M48
; DRILL file {KiCad (5.99.0-11349-g4025603a1f)} date Tue Jun 14 13:33:13 2022
; FORMAT={-:-/ absolute / metric / decimal}
; #@! TF.CreationDate,2022-06-14T13:33:13-04:00
; #@! TF.GenerationSoftware,Kicad,Pcbnew,(5.99.0-11349-g4025603a1f)
; #@! TF.FileFunction,NonPlated,1,2,NPTH
FMAT,2
METRIC
; #@! TA.AperFunction,NonPlated,NPTH,ComponentDrill
T1C1.200
; #@! TA.AperFunction,NonPlated,NPTH,ComponentDrill
T2C1.900
; #@! TA.AperFunction,NonPlated,NPTH,ComponentDrill
T3C3.200
; #@! TA.AperFunction,NonPlated,NPTH,ComponentDrill
T4C3.400
%
G90
G05
T1
X30.962Y-74.9
X38.277Y-82.215
X44.432Y-61.43
X51.168Y-81.635
X51.747Y-68.745
X52.919Y-106.825
X57.903Y-47.959
X58.483Y-88.95
X60.234Y-114.14
X64.638Y-68.165
X64.638Y-122.047
X65.218Y-55.275
X69.757Y-89.987
X71.953Y-75.48
X71.953Y-129.362
X76.492Y-137.133
X77.072Y-97.302
X78.108Y-54.695
X78.108Y-108.576
X83.227Y-76.517
X83.807Y-144.448
X85.423Y-62.01
X85.423Y-115.891
X89.962Y-123.663
X90.542Y-83.832
X91.579Y-95.106
X96.697Y-63.046
X97.277Y-130.978
X98.894Y-102.421
X103.433Y-110.193
X104.013Y-70.361
X105.049Y-81.635
X110.748Y-117.508
X112.364Y-88.95
X116.903Y-96.722
X124.218Y-104.037
X160.6Y-104.137
X167.915Y-96.822
X172.454Y-89.05
X174.07Y-117.607
X179.769Y-81.735
X180.805Y-70.461
X181.385Y-110.292
X185.924Y-102.521
X187.54Y-131.078
X188.12Y-63.146
X193.239Y-95.206
X194.276Y-83.931
X194.855Y-123.763
X199.394Y-62.109
X199.394Y-115.991
X201.011Y-144.548
X201.591Y-76.616
X206.709Y-54.794
X206.709Y-108.676
X207.746Y-97.402
X208.326Y-137.233
X212.865Y-129.461
X212.865Y-75.58
X215.061Y-90.087
X219.6Y-55.374
X220.18Y-122.146
X220.18Y-68.265
X224.584Y-114.24
X226.335Y-89.05
X226.915Y-48.059
X231.899Y-106.925
X233.07Y-68.845
X233.65Y-81.735
X240.385Y-61.53
X246.541Y-82.315
X253.856Y-75.0
T2
X33.734Y-71.732
X41.512Y-79.511
X47.204Y-58.262
X53.939Y-78.468
X54.982Y-66.04
X55.691Y-103.657
X60.675Y-44.792
X61.718Y-86.246
X63.469Y-111.435
X67.41Y-64.997
X67.41Y-118.879
X68.453Y-52.57
X72.529Y-86.819
X75.188Y-72.775
X75.188Y-126.657
X79.264Y-133.966
X80.307Y-94.597
X80.88Y-51.527
X80.88Y-105.408
X85.999Y-73.349
X87.042Y-141.744
X88.658Y-59.305
X88.658Y-113.187
X92.734Y-120.495
X93.777Y-81.127
X94.351Y-91.938
X99.469Y-59.878
X100.512Y-128.273
X102.129Y-99.716
X106.205Y-107.025
X107.248Y-67.657
X107.821Y-78.468
X113.983Y-114.803
X115.599Y-86.246
X119.675Y-93.554
X127.453Y-101.333
X157.432Y-101.365
X165.21Y-93.587
X169.286Y-86.278
X170.902Y-114.836
X177.064Y-78.5
X177.637Y-67.689
X178.68Y-107.057
X182.756Y-99.749
X184.372Y-128.306
X185.415Y-59.911
X190.534Y-91.971
X191.108Y-81.16
X192.151Y-120.528
X196.226Y-59.338
X196.226Y-113.219
X197.843Y-141.776
X198.886Y-73.381
X204.005Y-51.559
X204.005Y-105.441
X204.578Y-94.63
X205.621Y-133.998
X209.697Y-126.69
X209.697Y-72.808
X212.356Y-86.852
X216.432Y-52.602
X217.475Y-118.911
X217.475Y-65.03
X221.416Y-111.468
X223.167Y-86.278
X224.21Y-44.824
X229.194Y-103.69
X229.902Y-66.073
X230.945Y-78.5
X237.681Y-58.295
X243.373Y-79.543
X251.151Y-71.765
T3
X45.4Y-86.6
X77.8Y-44.8
X87.8Y-148.7
X115.7Y-69.2
X131.9Y-110.0
X152.95Y-110.0
X169.15Y-69.2
X197.05Y-148.7
X207.05Y-44.8
X239.45Y-86.6
T4
X37.623Y-75.621
X51.093Y-62.151
X57.829Y-82.357
X59.58Y-107.546
X64.564Y-48.681
X71.299Y-68.886
X71.299Y-122.768
X76.418Y-90.708
X83.153Y-137.855
X84.769Y-55.416
X84.769Y-109.297
X89.888Y-77.238
X96.623Y-124.384
X98.24Y-95.827
X103.358Y-63.768
X110.094Y-110.914
X111.71Y-82.357
X123.564Y-97.444
X161.321Y-97.476
X173.175Y-82.389
X174.791Y-110.946
X181.526Y-63.8
X186.645Y-95.86
X188.262Y-124.417
X194.997Y-77.271
X200.116Y-55.448
X200.116Y-109.33
X201.732Y-137.887
X208.467Y-90.741
X213.586Y-122.8
X213.586Y-68.919
X220.321Y-48.713
X225.305Y-107.579
X227.056Y-82.389
X233.791Y-62.184
X247.262Y-75.654
T0
M30
