G04 #@! TF.GenerationSoftware,KiCad,Pcbnew,(5.99.0-11349-g4025603a1f)*
G04 #@! TF.CreationDate,2022-06-14T13:32:38-04:00*
G04 #@! TF.ProjectId,eek,65656b2e-6b69-4636-9164-5f7063625858,rev?*
G04 #@! TF.SameCoordinates,Original*
G04 #@! TF.FileFunction,Paste,Bot*
G04 #@! TF.FilePolarity,Positive*
%FSLAX46Y46*%
G04 Gerber Fmt 4.6, Leading zero omitted, Abs format (unit mm)*
G04 Created by KiCad (PCBNEW (5.99.0-11349-g4025603a1f)) date 2022-06-14 13:32:38*
%MOMM*%
%LPD*%
G01*
G04 APERTURE LIST*
G04 Aperture macros list*
%AMRotRect*
0 Rectangle, with rotation*
0 The origin of the aperture is its center*
0 $1 length*
0 $2 width*
0 $3 Rotation angle, in degrees counterclockwise*
0 Add horizontal line*
21,1,$1,$2,0,0,$3*%
G04 Aperture macros list end*
%ADD10RotRect,0.900000X1.200000X225.000000*%
%ADD11R,1.200000X0.900000*%
%ADD12RotRect,1.800000X0.820000X225.000000*%
%ADD13RotRect,0.900000X1.200000X135.000000*%
%ADD14RotRect,1.800000X0.820000X135.000000*%
%ADD15RotRect,1.524000X1.524000X315.000000*%
%ADD16RotRect,1.524000X1.524000X225.000000*%
G04 APERTURE END LIST*
D10*
X165917008Y-104476455D03*
X168250460Y-102143003D03*
X177867112Y-89273659D03*
X180200564Y-86940207D03*
X188473714Y-68484720D03*
X186140262Y-70818172D03*
X204666459Y-62474312D03*
X206999911Y-60140860D03*
X227293875Y-53423345D03*
X224960423Y-55756797D03*
X179183274Y-117731726D03*
X181516726Y-115398274D03*
X193416726Y-100268274D03*
X191083274Y-102601726D03*
X199373274Y-84061726D03*
X201706726Y-81728274D03*
X218103274Y-75611726D03*
X220436726Y-73278274D03*
X240453452Y-66611548D03*
X238120000Y-68945000D03*
X183406726Y-117308274D03*
X181073274Y-119641726D03*
X192993274Y-104491726D03*
X195326726Y-102158274D03*
X201293274Y-85951726D03*
X203626726Y-83618274D03*
X220023274Y-77531726D03*
X222356726Y-75198274D03*
D11*
X213840000Y-103805000D03*
X213840000Y-100505000D03*
X216840000Y-97545000D03*
X216840000Y-100845000D03*
X219870000Y-97795000D03*
X219870000Y-94495000D03*
D12*
X218337662Y-123677233D03*
X214448574Y-127566321D03*
X215509234Y-128626981D03*
X219398322Y-124737894D03*
X206483725Y-138764062D03*
X202594637Y-142653150D03*
X203655297Y-143713810D03*
X207544385Y-139824723D03*
X179542956Y-111823294D03*
X175653868Y-115712382D03*
X176714528Y-116773042D03*
X180603616Y-112883955D03*
X238543238Y-63060504D03*
X234654150Y-66949592D03*
X235714810Y-68010252D03*
X239603898Y-64121165D03*
X204867277Y-56325311D03*
X200978189Y-60214399D03*
X202038849Y-61275059D03*
X205927937Y-57385972D03*
X231808047Y-83266079D03*
X227918959Y-87155167D03*
X228979619Y-88215827D03*
X232868707Y-84326740D03*
X225072854Y-49590120D03*
X221183766Y-53479208D03*
X222244426Y-54539868D03*
X226133514Y-50650781D03*
X213218917Y-91617717D03*
X209329829Y-95506805D03*
X210390489Y-96567465D03*
X214279577Y-92678378D03*
X193013339Y-125293678D03*
X189124251Y-129182766D03*
X190184911Y-130243426D03*
X194073999Y-126354339D03*
X204867278Y-110206848D03*
X200978190Y-114095936D03*
X202038850Y-115156596D03*
X205927938Y-111267509D03*
X218337663Y-69795695D03*
X214448575Y-73684783D03*
X215509235Y-74745443D03*
X219398323Y-70856356D03*
X191396893Y-96736463D03*
X187507805Y-100625551D03*
X188568465Y-101686211D03*
X192457553Y-97797124D03*
X252013622Y-76530887D03*
X248124534Y-80419975D03*
X249185194Y-81480635D03*
X253074282Y-77591548D03*
X199748531Y-78147333D03*
X195859443Y-82036421D03*
X196920103Y-83097081D03*
X200809191Y-79207994D03*
X177926509Y-83266079D03*
X174037421Y-87155167D03*
X175098081Y-88215827D03*
X178987169Y-84326740D03*
X230056896Y-108455698D03*
X226167808Y-112344786D03*
X227228468Y-113405446D03*
X231117556Y-109516359D03*
X166072572Y-98352910D03*
X162183484Y-102241998D03*
X163244144Y-103302658D03*
X167133232Y-99413571D03*
X186278147Y-64676949D03*
X182389059Y-68566037D03*
X183449719Y-69626697D03*
X187338807Y-65737610D03*
D13*
X44333274Y-66578274D03*
X46666726Y-68911726D03*
X66850000Y-75625000D03*
X64516548Y-73291548D03*
X91473274Y-100228274D03*
X93806726Y-102561726D03*
D11*
X68056128Y-97419861D03*
X68056128Y-100719861D03*
D13*
X62613274Y-75188274D03*
X64946726Y-77521726D03*
D11*
X64950000Y-94425000D03*
X64950000Y-97725000D03*
D13*
X44770000Y-70815000D03*
X42436548Y-68481548D03*
X81172960Y-83518274D03*
X83506412Y-85851726D03*
X83053274Y-81578274D03*
X85386726Y-83911726D03*
X91896726Y-104461726D03*
X89563274Y-102128274D03*
X96092913Y-68558203D03*
X98426365Y-70891655D03*
X59959755Y-55618149D03*
X57626303Y-53284697D03*
X104436772Y-87084401D03*
X106770224Y-89417853D03*
X77566715Y-60214343D03*
X79900167Y-62547795D03*
X118649618Y-104549938D03*
X116316166Y-102216486D03*
X101433274Y-117238274D03*
X103766726Y-119571726D03*
D11*
X71080000Y-100435000D03*
X71080000Y-103735000D03*
D13*
X105696726Y-117691726D03*
X103363274Y-115358274D03*
D10*
X242406726Y-68538274D03*
X240073274Y-70871726D03*
D14*
X82276047Y-142606427D03*
X78386959Y-138717339D03*
X77326299Y-139777999D03*
X81215386Y-143667087D03*
X95746431Y-129136041D03*
X91857343Y-125246953D03*
X90796683Y-126307613D03*
X94685770Y-130196701D03*
X50216532Y-66902866D03*
X46327444Y-63013778D03*
X45266784Y-64074438D03*
X49155871Y-67963526D03*
X83892493Y-114049211D03*
X80003405Y-110160123D03*
X78942745Y-111220783D03*
X82831832Y-115109871D03*
X36746147Y-80373251D03*
X32857059Y-76484163D03*
X31796399Y-77544823D03*
X35685486Y-81433911D03*
X89011238Y-81989697D03*
X85122150Y-78100609D03*
X84061490Y-79161269D03*
X87950577Y-83050357D03*
X70422109Y-127519595D03*
X66533021Y-123630507D03*
X65472361Y-124691167D03*
X69361448Y-128580255D03*
X75540855Y-95460081D03*
X71651767Y-91570993D03*
X70591107Y-92631653D03*
X74480194Y-96520741D03*
X70422109Y-73638060D03*
X66533021Y-69748972D03*
X65472361Y-70809632D03*
X69361448Y-74698720D03*
X97362876Y-100578827D03*
X93473788Y-96689739D03*
X92413128Y-97750399D03*
X96302215Y-101639487D03*
X56951725Y-87108443D03*
X53062637Y-83219355D03*
X52001977Y-84280015D03*
X55891064Y-88169103D03*
X109216814Y-115665658D03*
X105327726Y-111776570D03*
X104267066Y-112837230D03*
X108156153Y-116726318D03*
X63686916Y-53432482D03*
X59797828Y-49543394D03*
X58737168Y-50604054D03*
X62626255Y-54493142D03*
X83892493Y-60167674D03*
X80003405Y-56278586D03*
X78942745Y-57339246D03*
X82831832Y-61228334D03*
X110833260Y-87108443D03*
X106944172Y-83219355D03*
X105883512Y-84280015D03*
X109772599Y-88169103D03*
X58702874Y-112298061D03*
X54813786Y-108408973D03*
X53753126Y-109469633D03*
X57642213Y-113358721D03*
X122687200Y-102195273D03*
X118798112Y-98306185D03*
X117737452Y-99366845D03*
X121626539Y-103255933D03*
X102481622Y-68519313D03*
X98592534Y-64630225D03*
X97531874Y-65690885D03*
X101420961Y-69579973D03*
D15*
X102253949Y-132896051D03*
X104050000Y-131100000D03*
X105846051Y-129303949D03*
D16*
X178953949Y-129328949D03*
X180750000Y-131125000D03*
X182546051Y-132921051D03*
M02*
