G04 #@! TF.GenerationSoftware,KiCad,Pcbnew,(5.99.0-11349-g4025603a1f)*
G04 #@! TF.CreationDate,2022-06-14T13:32:38-04:00*
G04 #@! TF.ProjectId,eek,65656b2e-6b69-4636-9164-5f7063625858,rev?*
G04 #@! TF.SameCoordinates,Original*
G04 #@! TF.FileFunction,Legend,Top*
G04 #@! TF.FilePolarity,Positive*
%FSLAX46Y46*%
G04 Gerber Fmt 4.6, Leading zero omitted, Abs format (unit mm)*
G04 Created by KiCad (PCBNEW (5.99.0-11349-g4025603a1f)) date 2022-06-14 13:32:38*
%MOMM*%
%LPD*%
G01*
G04 APERTURE LIST*
G04 Aperture macros list*
%AMHorizOval*
0 Thick line with rounded ends*
0 $1 width*
0 $2 $3 position (X,Y) of the first rounded end (center of the circle)*
0 $4 $5 position (X,Y) of the second rounded end (center of the circle)*
0 Add line between two ends*
20,1,$1,$2,$3,$4,$5,0*
0 Add two circle primitives to create the rounded ends*
1,1,$1,$2,$3*
1,1,$1,$4,$5*%
%AMRotRect*
0 Rectangle, with rotation*
0 The origin of the aperture is its center*
0 $1 length*
0 $2 width*
0 $3 Rotation angle, in degrees counterclockwise*
0 Add horizontal line*
21,1,$1,$2,0,0,$3*%
G04 Aperture macros list end*
%ADD10C,0.150000*%
%ADD11C,0.100000*%
%ADD12C,0.120000*%
%ADD13C,0.381000*%
%ADD14HorizOval,2.000000X0.176777X-0.176777X-0.176777X0.176777X0*%
%ADD15HorizOval,1.550000X0.622622X-0.054472X-0.622622X0.054472X0*%
%ADD16HorizOval,2.300000X-0.366635X0.366635X0.366635X-0.366635X0*%
%ADD17HorizOval,1.250000X-0.041399X0.473192X0.041399X-0.473192X0*%
%ADD18HorizOval,1.250000X0.473192X-0.041399X-0.473192X0.041399X0*%
%ADD19HorizOval,1.550000X-0.054472X0.622622X0.054472X-0.622622X0*%
%ADD20C,3.987800*%
%ADD21C,1.701800*%
%ADD22HorizOval,2.000000X-0.176777X-0.176777X0.176777X0.176777X0*%
%ADD23HorizOval,1.550000X-0.054472X-0.622622X0.054472X0.622622X0*%
%ADD24HorizOval,2.300000X-0.366635X-0.366635X0.366635X0.366635X0*%
%ADD25HorizOval,1.250000X-0.041399X-0.473192X0.041399X0.473192X0*%
%ADD26HorizOval,1.550000X0.622622X0.054472X-0.622622X-0.054472X0*%
%ADD27HorizOval,1.250000X0.473192X0.041399X-0.473192X-0.041399X0*%
%ADD28RotRect,1.752600X1.752600X225.000000*%
%ADD29C,1.752600*%
G04 APERTURE END LIST*
D10*
X77038095Y-41052380D02*
X77038095Y-40052380D01*
X77038095Y-40528571D02*
X77609523Y-40528571D01*
X77609523Y-41052380D02*
X77609523Y-40052380D01*
X78038095Y-40147619D02*
X78085714Y-40100000D01*
X78180952Y-40052380D01*
X78419047Y-40052380D01*
X78514285Y-40100000D01*
X78561904Y-40147619D01*
X78609523Y-40242857D01*
X78609523Y-40338095D01*
X78561904Y-40480952D01*
X77990476Y-41052380D01*
X78609523Y-41052380D01*
X206288095Y-49452380D02*
X206288095Y-48452380D01*
X206288095Y-48928571D02*
X206859523Y-48928571D01*
X206859523Y-49452380D02*
X206859523Y-48452380D01*
X207240476Y-48452380D02*
X207859523Y-48452380D01*
X207526190Y-48833333D01*
X207669047Y-48833333D01*
X207764285Y-48880952D01*
X207811904Y-48928571D01*
X207859523Y-49023809D01*
X207859523Y-49261904D01*
X207811904Y-49357142D01*
X207764285Y-49404761D01*
X207669047Y-49452380D01*
X207383333Y-49452380D01*
X207288095Y-49404761D01*
X207240476Y-49357142D01*
X168388095Y-73852380D02*
X168388095Y-72852380D01*
X168388095Y-73328571D02*
X168959523Y-73328571D01*
X168959523Y-73852380D02*
X168959523Y-72852380D01*
X169864285Y-73185714D02*
X169864285Y-73852380D01*
X169626190Y-72804761D02*
X169388095Y-73519047D01*
X170007142Y-73519047D01*
X131138095Y-106252380D02*
X131138095Y-105252380D01*
X131138095Y-105728571D02*
X131709523Y-105728571D01*
X131709523Y-106252380D02*
X131709523Y-105252380D01*
X132614285Y-105252380D02*
X132423809Y-105252380D01*
X132328571Y-105300000D01*
X132280952Y-105347619D01*
X132185714Y-105490476D01*
X132138095Y-105680952D01*
X132138095Y-106061904D01*
X132185714Y-106157142D01*
X132233333Y-106204761D01*
X132328571Y-106252380D01*
X132519047Y-106252380D01*
X132614285Y-106204761D01*
X132661904Y-106157142D01*
X132709523Y-106061904D01*
X132709523Y-105823809D01*
X132661904Y-105728571D01*
X132614285Y-105680952D01*
X132519047Y-105633333D01*
X132328571Y-105633333D01*
X132233333Y-105680952D01*
X132185714Y-105728571D01*
X132138095Y-105823809D01*
X152188095Y-114652380D02*
X152188095Y-113652380D01*
X152188095Y-114128571D02*
X152759523Y-114128571D01*
X152759523Y-114652380D02*
X152759523Y-113652380D01*
X153378571Y-114080952D02*
X153283333Y-114033333D01*
X153235714Y-113985714D01*
X153188095Y-113890476D01*
X153188095Y-113842857D01*
X153235714Y-113747619D01*
X153283333Y-113700000D01*
X153378571Y-113652380D01*
X153569047Y-113652380D01*
X153664285Y-113700000D01*
X153711904Y-113747619D01*
X153759523Y-113842857D01*
X153759523Y-113890476D01*
X153711904Y-113985714D01*
X153664285Y-114033333D01*
X153569047Y-114080952D01*
X153378571Y-114080952D01*
X153283333Y-114128571D01*
X153235714Y-114176190D01*
X153188095Y-114271428D01*
X153188095Y-114461904D01*
X153235714Y-114557142D01*
X153283333Y-114604761D01*
X153378571Y-114652380D01*
X153569047Y-114652380D01*
X153664285Y-114604761D01*
X153711904Y-114557142D01*
X153759523Y-114461904D01*
X153759523Y-114271428D01*
X153711904Y-114176190D01*
X153664285Y-114128571D01*
X153569047Y-114080952D01*
X114938095Y-65452380D02*
X114938095Y-64452380D01*
X114938095Y-64928571D02*
X115509523Y-64928571D01*
X115509523Y-65452380D02*
X115509523Y-64452380D01*
X116033333Y-65452380D02*
X116223809Y-65452380D01*
X116319047Y-65404761D01*
X116366666Y-65357142D01*
X116461904Y-65214285D01*
X116509523Y-65023809D01*
X116509523Y-64642857D01*
X116461904Y-64547619D01*
X116414285Y-64500000D01*
X116319047Y-64452380D01*
X116128571Y-64452380D01*
X116033333Y-64500000D01*
X115985714Y-64547619D01*
X115938095Y-64642857D01*
X115938095Y-64880952D01*
X115985714Y-64976190D01*
X116033333Y-65023809D01*
X116128571Y-65071428D01*
X116319047Y-65071428D01*
X116414285Y-65023809D01*
X116461904Y-64976190D01*
X116509523Y-64880952D01*
X238211904Y-91252380D02*
X238211904Y-90252380D01*
X238211904Y-90728571D02*
X238783333Y-90728571D01*
X238783333Y-91252380D02*
X238783333Y-90252380D01*
X239783333Y-91252380D02*
X239211904Y-91252380D01*
X239497619Y-91252380D02*
X239497619Y-90252380D01*
X239402380Y-90395238D01*
X239307142Y-90490476D01*
X239211904Y-90538095D01*
X240402380Y-90252380D02*
X240497619Y-90252380D01*
X240592857Y-90300000D01*
X240640476Y-90347619D01*
X240688095Y-90442857D01*
X240735714Y-90633333D01*
X240735714Y-90871428D01*
X240688095Y-91061904D01*
X240640476Y-91157142D01*
X240592857Y-91204761D01*
X240497619Y-91252380D01*
X240402380Y-91252380D01*
X240307142Y-91204761D01*
X240259523Y-91157142D01*
X240211904Y-91061904D01*
X240164285Y-90871428D01*
X240164285Y-90633333D01*
X240211904Y-90442857D01*
X240259523Y-90347619D01*
X240307142Y-90300000D01*
X240402380Y-90252380D01*
X44638095Y-82852380D02*
X44638095Y-81852380D01*
X44638095Y-82328571D02*
X45209523Y-82328571D01*
X45209523Y-82852380D02*
X45209523Y-81852380D01*
X46209523Y-82852380D02*
X45638095Y-82852380D01*
X45923809Y-82852380D02*
X45923809Y-81852380D01*
X45828571Y-81995238D01*
X45733333Y-82090476D01*
X45638095Y-82138095D01*
X142795955Y-57064360D02*
X142230269Y-57630045D01*
X142095582Y-57495358D01*
X142041707Y-57387609D01*
X142041707Y-57279859D01*
X142068645Y-57199047D01*
X142149457Y-57064360D01*
X142230269Y-56983548D01*
X142364956Y-56902735D01*
X142445768Y-56875798D01*
X142553518Y-56875798D01*
X142661268Y-56929673D01*
X142795955Y-57064360D01*
X141933958Y-56202363D02*
X142257207Y-56525612D01*
X142095582Y-56363987D02*
X141529897Y-56929673D01*
X141664584Y-56902736D01*
X141772333Y-56902736D01*
X141853145Y-56929673D01*
X154257365Y-61353014D02*
X154203490Y-61245265D01*
X154068803Y-61110578D01*
X153987991Y-61083640D01*
X153934116Y-61083640D01*
X153853304Y-61110578D01*
X153799429Y-61164452D01*
X153772492Y-61245265D01*
X153772492Y-61299139D01*
X153799429Y-61379952D01*
X153880241Y-61514639D01*
X153907179Y-61595451D01*
X153907179Y-61649326D01*
X153880241Y-61730138D01*
X153826367Y-61784013D01*
X153745554Y-61810950D01*
X153691680Y-61810950D01*
X153610867Y-61784013D01*
X153476180Y-61649326D01*
X153422306Y-61541576D01*
X153233744Y-61406889D02*
X152910495Y-61083640D01*
X153637805Y-60679579D02*
X153072119Y-61245265D01*
X134818140Y-72118697D02*
X134872015Y-72118697D01*
X134979764Y-72172572D01*
X135033639Y-72226447D01*
X135087514Y-72334196D01*
X135087514Y-72441946D01*
X135060577Y-72522758D01*
X134979764Y-72657445D01*
X134898952Y-72738257D01*
X134764265Y-72819069D01*
X134683453Y-72846007D01*
X134575703Y-72846007D01*
X134467954Y-72792132D01*
X134414079Y-72738257D01*
X134360204Y-72630508D01*
X134360204Y-72576633D01*
X134117767Y-72441946D02*
X133740644Y-72064822D01*
X134548766Y-71741573D01*
X131363418Y-69421590D02*
X131316278Y-69327309D01*
X131316278Y-69280168D01*
X131339848Y-69209458D01*
X131410559Y-69138747D01*
X131481269Y-69115177D01*
X131528410Y-69115177D01*
X131599120Y-69138747D01*
X131787682Y-69327309D01*
X131292707Y-69822284D01*
X131127716Y-69657292D01*
X131104146Y-69586581D01*
X131104146Y-69539441D01*
X131127716Y-69468730D01*
X131174856Y-69421590D01*
X131245567Y-69398020D01*
X131292707Y-69398020D01*
X131363418Y-69421590D01*
X131528410Y-69586581D01*
X130844873Y-69374449D02*
X130514890Y-69044466D01*
X131221997Y-68761623D01*
X141053845Y-73875386D02*
X140999971Y-73767636D01*
X140999971Y-73713761D01*
X141026908Y-73632949D01*
X141107720Y-73552137D01*
X141188532Y-73525199D01*
X141242407Y-73525199D01*
X141323219Y-73552137D01*
X141538719Y-73767636D01*
X140973033Y-74333321D01*
X140784471Y-74144760D01*
X140757534Y-74063947D01*
X140757534Y-74010073D01*
X140784471Y-73929260D01*
X140838346Y-73875386D01*
X140919158Y-73848448D01*
X140973033Y-73848448D01*
X141053845Y-73875386D01*
X141242407Y-74063947D01*
X140461222Y-73821511D02*
X140111036Y-73471324D01*
X140515097Y-73444387D01*
X140434285Y-73363575D01*
X140407348Y-73282763D01*
X140407348Y-73228888D01*
X140434285Y-73148076D01*
X140568972Y-73013389D01*
X140649784Y-72986451D01*
X140703659Y-72986451D01*
X140784471Y-73013389D01*
X140946096Y-73175013D01*
X140973033Y-73255825D01*
X140973033Y-73309700D01*
X133399213Y-70592020D02*
X132833527Y-71157705D01*
X132698840Y-71023018D01*
X132644965Y-70915269D01*
X132644965Y-70807519D01*
X132671903Y-70726707D01*
X132752715Y-70592020D01*
X132833527Y-70511208D01*
X132968214Y-70430396D01*
X133049026Y-70403458D01*
X133156776Y-70403458D01*
X133264526Y-70457333D01*
X133399213Y-70592020D01*
X131998468Y-70322646D02*
X132267842Y-70592020D01*
X132564153Y-70349583D01*
X132510278Y-70349583D01*
X132429466Y-70322646D01*
X132294779Y-70187959D01*
X132267842Y-70107147D01*
X132267842Y-70053272D01*
X132294779Y-69972460D01*
X132429466Y-69837773D01*
X132510278Y-69810835D01*
X132564153Y-69810835D01*
X132644965Y-69837773D01*
X132779652Y-69972460D01*
X132806590Y-70053272D01*
X132806590Y-70107147D01*
X139257794Y-75671438D02*
X139203920Y-75563688D01*
X139203920Y-75509813D01*
X139230857Y-75429001D01*
X139311669Y-75348189D01*
X139392481Y-75321251D01*
X139446356Y-75321251D01*
X139527168Y-75348189D01*
X139742668Y-75563688D01*
X139176982Y-76129373D01*
X138988420Y-75940812D01*
X138961483Y-75859999D01*
X138961483Y-75806125D01*
X138988420Y-75725312D01*
X139042295Y-75671438D01*
X139123107Y-75644500D01*
X139176982Y-75644500D01*
X139257794Y-75671438D01*
X139446356Y-75859999D01*
X138692109Y-75536751D02*
X138638234Y-75536751D01*
X138557422Y-75509813D01*
X138422735Y-75375126D01*
X138395797Y-75294314D01*
X138395797Y-75240439D01*
X138422735Y-75159627D01*
X138476610Y-75105752D01*
X138584359Y-75051877D01*
X139230857Y-75051877D01*
X138880671Y-74701691D01*
X157388561Y-57869375D02*
X157334687Y-57761625D01*
X157334687Y-57707750D01*
X157361624Y-57626938D01*
X157442436Y-57546126D01*
X157523248Y-57519188D01*
X157577123Y-57519188D01*
X157657935Y-57546126D01*
X157873435Y-57761625D01*
X157307749Y-58327310D01*
X157119187Y-58138749D01*
X157092250Y-58057936D01*
X157092250Y-58004062D01*
X157119187Y-57923249D01*
X157173062Y-57869375D01*
X157253874Y-57842437D01*
X157307749Y-57842437D01*
X157388561Y-57869375D01*
X157577123Y-58057936D01*
X156634314Y-57653875D02*
X156580439Y-57600001D01*
X156553502Y-57519188D01*
X156553502Y-57465313D01*
X156580439Y-57384501D01*
X156661251Y-57249814D01*
X156795938Y-57115127D01*
X156930625Y-57034315D01*
X157011438Y-57007378D01*
X157065312Y-57007378D01*
X157146125Y-57034315D01*
X157200000Y-57088190D01*
X157226937Y-57169002D01*
X157226937Y-57222877D01*
X157200000Y-57303689D01*
X157119187Y-57438376D01*
X156984500Y-57573063D01*
X156849813Y-57653875D01*
X156769001Y-57680813D01*
X156715126Y-57680813D01*
X156634314Y-57653875D01*
X144605541Y-70242877D02*
X144794103Y-70431439D01*
X145090414Y-70135128D02*
X144524729Y-70700813D01*
X144255355Y-70431439D01*
X144093731Y-70269815D02*
X143716607Y-69892691D01*
X144524729Y-69569442D01*
X131534773Y-67948417D02*
X131480899Y-67840667D01*
X131480899Y-67786792D01*
X131507836Y-67705980D01*
X131588648Y-67625168D01*
X131669460Y-67598230D01*
X131723335Y-67598230D01*
X131804147Y-67625168D01*
X132019647Y-67840667D01*
X131453961Y-68406352D01*
X131265399Y-68217791D01*
X131238462Y-68136978D01*
X131238462Y-68083104D01*
X131265399Y-68002291D01*
X131319274Y-67948417D01*
X131400086Y-67921479D01*
X131453961Y-67921479D01*
X131534773Y-67948417D01*
X131723335Y-68136978D01*
X130834401Y-67409668D02*
X131211524Y-67032545D01*
X130753589Y-67759855D02*
X131292337Y-67490481D01*
X130942150Y-67140294D01*
X148197644Y-66650775D02*
X148386206Y-66839337D01*
X148682517Y-66543026D02*
X148116832Y-67108711D01*
X147847458Y-66839337D01*
X147362585Y-66354464D02*
X147631959Y-66623838D01*
X147928270Y-66381401D01*
X147874395Y-66381401D01*
X147793583Y-66354464D01*
X147658896Y-66219777D01*
X147631959Y-66138965D01*
X147631959Y-66085090D01*
X147658896Y-66004278D01*
X147793583Y-65869591D01*
X147874395Y-65842653D01*
X147928270Y-65842653D01*
X148009082Y-65869591D01*
X148143769Y-66004278D01*
X148170707Y-66085090D01*
X148170707Y-66138965D01*
X135611750Y-64248565D02*
X135046064Y-64814250D01*
X134911377Y-64679563D01*
X134857502Y-64571814D01*
X134857502Y-64464064D01*
X134884440Y-64383252D01*
X134965252Y-64248565D01*
X135046064Y-64167753D01*
X135180751Y-64086940D01*
X135261563Y-64060003D01*
X135369313Y-64060003D01*
X135477063Y-64113878D01*
X135611750Y-64248565D01*
X134534253Y-64302440D02*
X134157130Y-63925316D01*
X134965252Y-63602067D01*
X144066726Y-55820526D02*
X144093664Y-55901338D01*
X144174476Y-55982150D01*
X144282225Y-56036025D01*
X144389975Y-56036025D01*
X144470787Y-56009087D01*
X144605474Y-55928275D01*
X144686286Y-55847463D01*
X144767099Y-55712776D01*
X144794036Y-55631964D01*
X144794036Y-55524214D01*
X144740161Y-55416465D01*
X144686286Y-55362590D01*
X144578537Y-55308715D01*
X144524662Y-55308715D01*
X144336100Y-55497277D01*
X144443850Y-55605026D01*
X144336100Y-55012404D02*
X143770415Y-55578089D01*
X144012851Y-54689155D01*
X143447166Y-55254840D01*
X143743477Y-54419781D02*
X143177792Y-54985466D01*
X143043105Y-54850779D01*
X142989230Y-54743030D01*
X142989230Y-54635280D01*
X143016168Y-54554468D01*
X143096980Y-54419781D01*
X143177792Y-54338969D01*
X143312479Y-54258156D01*
X143393291Y-54231219D01*
X143501041Y-54231219D01*
X143608790Y-54285094D01*
X143743477Y-54419781D01*
X142849896Y-72079335D02*
X142796022Y-71971585D01*
X142796022Y-71917710D01*
X142822959Y-71836898D01*
X142903771Y-71756086D01*
X142984583Y-71729148D01*
X143038458Y-71729148D01*
X143119270Y-71756086D01*
X143334770Y-71971585D01*
X142769084Y-72537270D01*
X142580522Y-72348709D01*
X142553585Y-72267896D01*
X142553585Y-72214022D01*
X142580522Y-72133209D01*
X142634397Y-72079335D01*
X142715209Y-72052397D01*
X142769084Y-72052397D01*
X142849896Y-72079335D01*
X143038458Y-72267896D01*
X142472773Y-71109588D02*
X142796022Y-71432837D01*
X142634397Y-71271212D02*
X142068712Y-71836898D01*
X142203399Y-71809961D01*
X142311148Y-71809961D01*
X142391960Y-71836898D01*
X149993695Y-64854723D02*
X150182257Y-65043285D01*
X150478568Y-64746974D02*
X149912883Y-65312659D01*
X149643509Y-65043285D01*
X149374135Y-64396788D02*
X149751259Y-64019664D01*
X149293323Y-64746974D02*
X149832071Y-64477600D01*
X149481885Y-64127414D01*
X155381849Y-59951444D02*
X155408787Y-60032256D01*
X155489599Y-60113068D01*
X155597348Y-60166943D01*
X155705098Y-60166943D01*
X155785910Y-60140005D01*
X155920597Y-60059193D01*
X156001409Y-59978381D01*
X156082222Y-59843694D01*
X156109159Y-59762882D01*
X156109159Y-59655132D01*
X156055284Y-59547383D01*
X156001409Y-59493508D01*
X155893660Y-59439633D01*
X155839785Y-59439633D01*
X155651223Y-59628195D01*
X155758973Y-59735944D01*
X155651223Y-59143322D02*
X155085538Y-59709007D01*
X155327974Y-58820073D01*
X154762289Y-59385758D01*
X155058600Y-58550699D02*
X154492915Y-59116384D01*
X154358228Y-58981697D01*
X154304353Y-58873948D01*
X154304353Y-58766198D01*
X154331291Y-58685386D01*
X154412103Y-58550699D01*
X154492915Y-58469887D01*
X154627602Y-58389074D01*
X154708414Y-58362137D01*
X154816164Y-58362137D01*
X154923913Y-58416012D01*
X155058600Y-58550699D01*
X129734213Y-68196429D02*
X129767546Y-68096429D01*
X129800879Y-68063096D01*
X129867546Y-68029762D01*
X129967546Y-68029762D01*
X130034213Y-68063096D01*
X130067546Y-68096429D01*
X130100879Y-68163096D01*
X130100879Y-68429762D01*
X129400879Y-68429762D01*
X129400879Y-68196429D01*
X129434213Y-68129762D01*
X129467546Y-68096429D01*
X129534213Y-68063096D01*
X129600879Y-68063096D01*
X129667546Y-68096429D01*
X129700879Y-68129762D01*
X129734213Y-68196429D01*
X129734213Y-68429762D01*
X129400879Y-67396429D02*
X129400879Y-67729762D01*
X129734213Y-67763096D01*
X129700879Y-67729762D01*
X129667546Y-67663096D01*
X129667546Y-67496429D01*
X129700879Y-67429762D01*
X129734213Y-67396429D01*
X129800879Y-67363096D01*
X129967546Y-67363096D01*
X130034213Y-67396429D01*
X130067546Y-67429762D01*
X130100879Y-67496429D01*
X130100879Y-67663096D01*
X130067546Y-67729762D01*
X130034213Y-67763096D01*
D11*
X147905989Y-50529340D02*
X148148426Y-50286903D01*
X148451471Y-50832386D02*
X148027207Y-50408122D01*
X148249441Y-50185888D02*
X148956548Y-50327309D01*
X148532284Y-49903045D02*
X148673705Y-50610152D01*
X148774720Y-49660609D02*
X148815126Y-49620203D01*
X148875735Y-49600000D01*
X148916142Y-49599999D01*
X148976751Y-49620203D01*
X149077766Y-49680812D01*
X149178781Y-49781827D01*
X149239390Y-49882842D01*
X149259593Y-49943451D01*
X149259593Y-49983857D01*
X149239390Y-50044467D01*
X149198984Y-50084873D01*
X149138375Y-50105076D01*
X149097969Y-50105076D01*
X149037360Y-50084873D01*
X148936345Y-50024264D01*
X148835329Y-49923248D01*
X148774720Y-49822233D01*
X148754517Y-49761624D01*
X148754517Y-49721218D01*
X148774720Y-49660609D01*
X149380812Y-49014111D02*
X149562639Y-49923248D01*
X149966700Y-49317157D02*
X149542436Y-48892893D01*
X149643451Y-48791877D01*
X149724264Y-48751471D01*
X149805076Y-48751471D01*
X149865685Y-48771674D01*
X149966700Y-48832284D01*
X150027309Y-48892893D01*
X150087918Y-48993908D01*
X150108122Y-49054517D01*
X150108122Y-49135329D01*
X150067715Y-49216142D01*
X149966700Y-49317157D01*
X149926294Y-48509035D02*
X150188934Y-48246395D01*
X150209137Y-48549441D01*
X150269746Y-48488832D01*
X150330355Y-48468629D01*
X150370761Y-48468629D01*
X150431370Y-48488832D01*
X150532386Y-48589847D01*
X150552589Y-48650456D01*
X150552589Y-48690862D01*
X150532386Y-48751471D01*
X150411167Y-48872690D01*
X150350558Y-48892893D01*
X150310152Y-48892893D01*
D10*
X146401593Y-68446826D02*
X146590155Y-68635388D01*
X146886466Y-68339077D02*
X146320781Y-68904762D01*
X146051407Y-68635388D01*
X145593471Y-68177452D02*
X145701221Y-68285202D01*
X145782033Y-68312139D01*
X145835908Y-68312139D01*
X145970595Y-68285202D01*
X146105282Y-68204390D01*
X146320781Y-67988891D01*
X146347718Y-67908078D01*
X146347718Y-67854204D01*
X146320781Y-67773391D01*
X146213031Y-67665642D01*
X146132219Y-67638704D01*
X146078344Y-67638704D01*
X145997532Y-67665642D01*
X145862845Y-67800329D01*
X145835908Y-67881141D01*
X145835908Y-67935016D01*
X145862845Y-68015828D01*
X145970595Y-68123578D01*
X146051407Y-68150515D01*
X146105282Y-68150515D01*
X146186094Y-68123578D01*
X137692024Y-75750195D02*
X137857015Y-75915187D01*
X138116288Y-75655915D02*
X137621313Y-76150889D01*
X137385611Y-75915187D01*
X137102768Y-75632344D02*
X137055628Y-75585204D01*
X137032057Y-75514493D01*
X137032057Y-75467353D01*
X137055628Y-75396642D01*
X137126338Y-75278791D01*
X137244189Y-75160940D01*
X137362041Y-75090229D01*
X137432751Y-75066659D01*
X137479892Y-75066659D01*
X137550602Y-75090229D01*
X137597743Y-75137370D01*
X137621313Y-75208080D01*
X137621313Y-75255221D01*
X137597743Y-75325931D01*
X137527032Y-75443782D01*
X137409181Y-75561634D01*
X137291330Y-75632344D01*
X137220619Y-75655915D01*
X137173479Y-75655915D01*
X137102768Y-75632344D01*
X133492450Y-66313990D02*
X133303888Y-66125428D01*
X133519387Y-65748304D02*
X133788761Y-66017679D01*
X133223076Y-66583364D01*
X132953702Y-66313990D01*
X132468828Y-65829117D02*
X132576578Y-65936866D01*
X132657390Y-65963804D01*
X132711265Y-65963804D01*
X132845952Y-65936866D01*
X132980639Y-65856054D01*
X133196138Y-65640555D01*
X133223076Y-65559743D01*
X133223076Y-65505868D01*
X133196138Y-65425056D01*
X133088389Y-65317306D01*
X133007576Y-65290369D01*
X132953702Y-65290369D01*
X132872889Y-65317306D01*
X132738202Y-65451993D01*
X132711265Y-65532805D01*
X132711265Y-65586680D01*
X132738202Y-65667492D01*
X132845952Y-65775242D01*
X132926764Y-65802179D01*
X132980639Y-65802179D01*
X133061451Y-65775242D01*
X136466035Y-74251465D02*
X136654597Y-74440027D01*
X136950908Y-74143716D02*
X136385223Y-74709401D01*
X136115849Y-74440027D01*
X136169724Y-73362531D02*
X136492973Y-73685780D01*
X136331348Y-73524156D02*
X135765663Y-74089841D01*
X135900350Y-74062904D01*
X136008099Y-74062904D01*
X136088912Y-74089841D01*
X148184108Y-51676206D02*
X147618422Y-52241891D01*
X147483735Y-52107204D01*
X147429860Y-51999455D01*
X147429860Y-51891705D01*
X147456798Y-51810893D01*
X147537610Y-51676206D01*
X147618422Y-51595394D01*
X147753109Y-51514581D01*
X147833921Y-51487644D01*
X147941671Y-51487644D01*
X148049421Y-51541519D01*
X148184108Y-51676206D01*
X147133549Y-51649269D02*
X147079674Y-51649269D01*
X146998862Y-51622331D01*
X146864175Y-51487644D01*
X146837237Y-51406832D01*
X146837237Y-51352957D01*
X146864175Y-51272145D01*
X146918050Y-51218270D01*
X147025799Y-51164395D01*
X147672297Y-51164395D01*
X147322111Y-50814209D01*
X145862777Y-54024475D02*
X145889715Y-54105287D01*
X145970527Y-54186099D01*
X146078276Y-54239974D01*
X146186026Y-54239974D01*
X146266838Y-54213036D01*
X146401525Y-54132224D01*
X146482337Y-54051412D01*
X146563150Y-53916725D01*
X146590087Y-53835913D01*
X146590087Y-53728163D01*
X146536212Y-53620414D01*
X146482337Y-53566539D01*
X146374588Y-53512664D01*
X146320713Y-53512664D01*
X146132151Y-53701226D01*
X146239901Y-53808975D01*
X146132151Y-53216353D02*
X145566466Y-53782038D01*
X145808902Y-52893104D01*
X145243217Y-53458789D01*
X145539528Y-52623730D02*
X144973843Y-53189415D01*
X144839156Y-53054728D01*
X144785281Y-52946979D01*
X144785281Y-52839229D01*
X144812219Y-52758417D01*
X144893031Y-52623730D01*
X144973843Y-52542918D01*
X145108530Y-52462105D01*
X145189342Y-52435168D01*
X145297092Y-52435168D01*
X145404841Y-52489043D01*
X145539528Y-52623730D01*
X140999903Y-58860411D02*
X140434217Y-59426096D01*
X140299530Y-59291409D01*
X140245655Y-59183660D01*
X140245655Y-59075910D01*
X140272593Y-58995098D01*
X140353405Y-58860411D01*
X140434217Y-58779599D01*
X140568904Y-58698786D01*
X140649716Y-58671849D01*
X140757466Y-58671849D01*
X140865216Y-58725724D01*
X140999903Y-58860411D01*
X139760782Y-58752661D02*
X139706907Y-58698787D01*
X139679970Y-58617974D01*
X139679970Y-58564099D01*
X139706907Y-58483287D01*
X139787719Y-58348600D01*
X139922406Y-58213913D01*
X140057093Y-58133101D01*
X140137906Y-58106164D01*
X140191780Y-58106164D01*
X140272593Y-58133101D01*
X140326468Y-58186976D01*
X140353405Y-58267788D01*
X140353405Y-58321663D01*
X140326468Y-58402475D01*
X140245655Y-58537162D01*
X140110968Y-58671849D01*
X139976281Y-58752661D01*
X139895469Y-58779599D01*
X139841594Y-58779599D01*
X139760782Y-58752661D01*
X139203852Y-60656462D02*
X138638166Y-61222147D01*
X138503479Y-61087460D01*
X138449604Y-60979711D01*
X138449604Y-60871961D01*
X138476542Y-60791149D01*
X138557354Y-60656462D01*
X138638166Y-60575650D01*
X138772853Y-60494837D01*
X138853665Y-60467900D01*
X138961415Y-60467900D01*
X139069165Y-60521775D01*
X139203852Y-60656462D01*
X138018606Y-60225463D02*
X138395729Y-59848340D01*
X137937794Y-60575650D02*
X138476542Y-60306276D01*
X138126355Y-59956089D01*
X138551846Y-76914063D02*
X138651846Y-76947396D01*
X138685180Y-76980729D01*
X138718513Y-77047396D01*
X138718513Y-77147396D01*
X138685180Y-77214063D01*
X138651846Y-77247396D01*
X138585180Y-77280729D01*
X138318513Y-77280729D01*
X138318513Y-76580729D01*
X138551846Y-76580729D01*
X138618513Y-76614063D01*
X138651846Y-76647396D01*
X138685180Y-76714063D01*
X138685180Y-76780729D01*
X138651846Y-76847396D01*
X138618513Y-76880729D01*
X138551846Y-76914063D01*
X138318513Y-76914063D01*
X139318513Y-76580729D02*
X139185180Y-76580729D01*
X139118513Y-76614063D01*
X139085180Y-76647396D01*
X139018513Y-76747396D01*
X138985180Y-76880729D01*
X138985180Y-77147396D01*
X139018513Y-77214063D01*
X139051846Y-77247396D01*
X139118513Y-77280729D01*
X139251846Y-77280729D01*
X139318513Y-77247396D01*
X139351846Y-77214063D01*
X139385180Y-77147396D01*
X139385180Y-76980729D01*
X139351846Y-76914063D01*
X139318513Y-76880729D01*
X139251846Y-76847396D01*
X139118513Y-76847396D01*
X139051846Y-76880729D01*
X139018513Y-76914063D01*
X138985180Y-76980729D01*
X152086058Y-63893732D02*
X152463181Y-63139485D01*
X151708934Y-63516608D01*
X151708934Y-62492987D02*
X151762809Y-62492987D01*
X151870558Y-62546862D01*
X151924433Y-62600737D01*
X151978308Y-62708486D01*
X151978308Y-62816236D01*
X151951371Y-62897048D01*
X151870558Y-63031735D01*
X151789746Y-63112547D01*
X151655059Y-63193359D01*
X151574247Y-63220297D01*
X151466497Y-63220297D01*
X151358748Y-63166422D01*
X151304873Y-63112547D01*
X151250998Y-63004798D01*
X151250998Y-62950923D01*
X151143249Y-61927302D02*
X151197123Y-61927302D01*
X151304873Y-61981176D01*
X151358748Y-62035051D01*
X151412623Y-62142801D01*
X151412623Y-62250550D01*
X151385685Y-62331363D01*
X151304873Y-62466050D01*
X151224061Y-62546862D01*
X151089374Y-62627674D01*
X151008562Y-62654611D01*
X150900812Y-62654611D01*
X150793062Y-62600737D01*
X150739188Y-62546862D01*
X150685313Y-62439112D01*
X150685313Y-62385237D01*
X137030677Y-62183140D02*
X137084552Y-62183140D01*
X137192301Y-62237015D01*
X137246176Y-62290890D01*
X137300051Y-62398639D01*
X137300051Y-62506389D01*
X137273114Y-62587201D01*
X137192301Y-62721888D01*
X137111489Y-62802700D01*
X136976802Y-62883512D01*
X136895990Y-62910450D01*
X136788240Y-62910450D01*
X136680491Y-62856575D01*
X136626616Y-62802700D01*
X136572741Y-62694951D01*
X136572741Y-62641076D01*
X136033993Y-62210077D02*
X136141743Y-62317827D01*
X136222555Y-62344764D01*
X136276430Y-62344764D01*
X136411117Y-62317827D01*
X136545804Y-62237015D01*
X136761303Y-62021515D01*
X136788240Y-61940703D01*
X136788240Y-61886828D01*
X136761303Y-61806016D01*
X136653553Y-61698267D01*
X136572741Y-61671329D01*
X136518866Y-61671329D01*
X136438054Y-61698267D01*
X136303367Y-61832954D01*
X136276430Y-61913766D01*
X136276430Y-61967641D01*
X136303367Y-62048453D01*
X136411117Y-62156202D01*
X136491929Y-62183140D01*
X136545804Y-62183140D01*
X136626616Y-62156202D01*
X87038095Y-144952380D02*
X87038095Y-143952380D01*
X87038095Y-144428571D02*
X87609523Y-144428571D01*
X87609523Y-144952380D02*
X87609523Y-143952380D01*
X88561904Y-143952380D02*
X88085714Y-143952380D01*
X88038095Y-144428571D01*
X88085714Y-144380952D01*
X88180952Y-144333333D01*
X88419047Y-144333333D01*
X88514285Y-144380952D01*
X88561904Y-144428571D01*
X88609523Y-144523809D01*
X88609523Y-144761904D01*
X88561904Y-144857142D01*
X88514285Y-144904761D01*
X88419047Y-144952380D01*
X88180952Y-144952380D01*
X88085714Y-144904761D01*
X88038095Y-144857142D01*
D12*
X169176770Y-101216693D02*
X167967617Y-101011632D01*
X169381831Y-102425846D02*
X169176770Y-101216693D01*
X169381831Y-102425846D02*
X166624115Y-105183562D01*
X169883877Y-101923800D02*
X168469663Y-100509586D01*
X167967617Y-101011632D02*
X165209901Y-103769348D01*
X167967617Y-101011632D02*
X169381831Y-102425846D01*
X181331935Y-87223050D02*
X181126874Y-86013897D01*
X181833981Y-86721004D02*
X180419767Y-85306790D01*
X181331935Y-87223050D02*
X178574219Y-89980766D01*
X181126874Y-86013897D02*
X179917721Y-85808836D01*
X179917721Y-85808836D02*
X181331935Y-87223050D01*
X179917721Y-85808836D02*
X177160005Y-88566552D01*
X189605085Y-68767563D02*
X189400024Y-67558410D01*
X188190871Y-67353349D02*
X185433155Y-70111065D01*
X190107131Y-68265517D02*
X188692917Y-66851303D01*
X188190871Y-67353349D02*
X189605085Y-68767563D01*
X189605085Y-68767563D02*
X186847369Y-71525279D01*
X189400024Y-67558410D02*
X188190871Y-67353349D01*
X206717068Y-59009489D02*
X203959352Y-61767205D01*
X208131282Y-60423703D02*
X207926221Y-59214550D01*
X208131282Y-60423703D02*
X205373566Y-63181419D01*
X206717068Y-59009489D02*
X208131282Y-60423703D01*
X208633328Y-59921657D02*
X207219114Y-58507443D01*
X207926221Y-59214550D02*
X206717068Y-59009489D01*
X228927292Y-53204142D02*
X227513078Y-51789928D01*
X228220185Y-52497035D02*
X227011032Y-52291974D01*
X227011032Y-52291974D02*
X228425246Y-53706188D01*
X227011032Y-52291974D02*
X224253316Y-55049690D01*
X228425246Y-53706188D02*
X228220185Y-52497035D01*
X228425246Y-53706188D02*
X225667530Y-56463904D01*
X181233883Y-114266903D02*
X178476167Y-117024619D01*
X182648097Y-115681117D02*
X179890381Y-118438833D01*
X181233883Y-114266903D02*
X182648097Y-115681117D01*
X183150143Y-115179071D02*
X181735929Y-113764857D01*
X182648097Y-115681117D02*
X182443036Y-114471964D01*
X182443036Y-114471964D02*
X181233883Y-114266903D01*
X193133883Y-99136903D02*
X194548097Y-100551117D01*
X194343036Y-99341964D02*
X193133883Y-99136903D01*
X194548097Y-100551117D02*
X191790381Y-103308833D01*
X195050143Y-100049071D02*
X193635929Y-98634857D01*
X194548097Y-100551117D02*
X194343036Y-99341964D01*
X193133883Y-99136903D02*
X190376167Y-101894619D01*
X202633036Y-80801964D02*
X201423883Y-80596903D01*
X201423883Y-80596903D02*
X198666167Y-83354619D01*
X202838097Y-82011117D02*
X202633036Y-80801964D01*
X201423883Y-80596903D02*
X202838097Y-82011117D01*
X202838097Y-82011117D02*
X200080381Y-84768833D01*
X203340143Y-81509071D02*
X201925929Y-80094857D01*
X221363036Y-72351964D02*
X220153883Y-72146903D01*
X221568097Y-73561117D02*
X221363036Y-72351964D01*
X221568097Y-73561117D02*
X218810381Y-76318833D01*
X220153883Y-72146903D02*
X221568097Y-73561117D01*
X222070143Y-73059071D02*
X220655929Y-71644857D01*
X220153883Y-72146903D02*
X217396167Y-74904619D01*
X241379762Y-65685238D02*
X240170609Y-65480177D01*
X240170609Y-65480177D02*
X237412893Y-68237893D01*
X241584823Y-66894391D02*
X238827107Y-69652107D01*
X242086869Y-66392345D02*
X240672655Y-64978131D01*
X241584823Y-66894391D02*
X241379762Y-65685238D01*
X240170609Y-65480177D02*
X241584823Y-66894391D01*
X183123883Y-116176903D02*
X180366167Y-118934619D01*
X184538097Y-117591117D02*
X181780381Y-120348833D01*
X185040143Y-117089071D02*
X183625929Y-115674857D01*
X184333036Y-116381964D02*
X183123883Y-116176903D01*
X183123883Y-116176903D02*
X184538097Y-117591117D01*
X184538097Y-117591117D02*
X184333036Y-116381964D01*
X195043883Y-101026903D02*
X192286167Y-103784619D01*
X196253036Y-101231964D02*
X195043883Y-101026903D01*
X196458097Y-102441117D02*
X193700381Y-105198833D01*
X196458097Y-102441117D02*
X196253036Y-101231964D01*
X195043883Y-101026903D02*
X196458097Y-102441117D01*
X196960143Y-101939071D02*
X195545929Y-100524857D01*
X204758097Y-83901117D02*
X202000381Y-86658833D01*
X203343883Y-82486903D02*
X200586167Y-85244619D01*
X204758097Y-83901117D02*
X204553036Y-82691964D01*
X204553036Y-82691964D02*
X203343883Y-82486903D01*
X205260143Y-83399071D02*
X203845929Y-81984857D01*
X203343883Y-82486903D02*
X204758097Y-83901117D01*
X222073883Y-74066903D02*
X223488097Y-75481117D01*
X223283036Y-74271964D02*
X222073883Y-74066903D01*
X223990143Y-74979071D02*
X222575929Y-73564857D01*
X222073883Y-74066903D02*
X219316167Y-76824619D01*
X223488097Y-75481117D02*
X220730381Y-78238833D01*
X223488097Y-75481117D02*
X223283036Y-74271964D01*
X213840000Y-99195000D02*
X212840000Y-99905000D01*
X214840000Y-99905000D02*
X213840000Y-99195000D01*
X212840000Y-99905000D02*
X212840000Y-103805000D01*
X214840000Y-99905000D02*
X214840000Y-103805000D01*
X214840000Y-99195000D02*
X212840000Y-99195000D01*
X212840000Y-99905000D02*
X214840000Y-99905000D01*
X216840000Y-96235000D02*
X215840000Y-96945000D01*
X215840000Y-96945000D02*
X215840000Y-100845000D01*
X217840000Y-96235000D02*
X215840000Y-96235000D01*
X215840000Y-96945000D02*
X217840000Y-96945000D01*
X217840000Y-96945000D02*
X217840000Y-100845000D01*
X217840000Y-96945000D02*
X216840000Y-96235000D01*
X219870000Y-93185000D02*
X218870000Y-93895000D01*
X220870000Y-93185000D02*
X218870000Y-93185000D01*
X218870000Y-93895000D02*
X218870000Y-97795000D01*
X220870000Y-93895000D02*
X220870000Y-97795000D01*
X218870000Y-93895000D02*
X220870000Y-93895000D01*
X220870000Y-93895000D02*
X219870000Y-93185000D01*
X218479083Y-122475152D02*
X217135580Y-123818655D01*
X218549794Y-124384340D02*
X218125530Y-124808604D01*
X218549794Y-124384340D02*
X219681164Y-123252969D01*
X219681164Y-123252969D02*
X218974058Y-122545863D01*
X218974058Y-122545863D02*
X218479083Y-122475152D01*
X206695857Y-139471169D02*
X206271593Y-139895433D01*
X206695857Y-139471169D02*
X207827227Y-138339798D01*
X206625146Y-137561981D02*
X205281643Y-138905484D01*
X207827227Y-138339798D02*
X207120121Y-137632692D01*
X207120121Y-137632692D02*
X206625146Y-137561981D01*
X179755088Y-112530401D02*
X179330824Y-112954665D01*
X179684377Y-110621213D02*
X178340874Y-111964716D01*
X179755088Y-112530401D02*
X180886458Y-111399030D01*
X180179352Y-110691924D02*
X179684377Y-110621213D01*
X180886458Y-111399030D02*
X180179352Y-110691924D01*
X238755370Y-63767611D02*
X238331106Y-64191875D01*
X238755370Y-63767611D02*
X239886740Y-62636240D01*
X239179634Y-61929134D02*
X238684659Y-61858423D01*
X239886740Y-62636240D02*
X239179634Y-61929134D01*
X238684659Y-61858423D02*
X237341156Y-63201926D01*
X205008698Y-55123230D02*
X203665195Y-56466733D01*
X205503673Y-55193941D02*
X205008698Y-55123230D01*
X205079409Y-57032418D02*
X204655145Y-57456682D01*
X206210779Y-55901047D02*
X205503673Y-55193941D01*
X205079409Y-57032418D02*
X206210779Y-55901047D01*
X232020179Y-83973186D02*
X233151549Y-82841815D01*
X232444443Y-82134709D02*
X231949468Y-82063998D01*
X233151549Y-82841815D02*
X232444443Y-82134709D01*
X232020179Y-83973186D02*
X231595915Y-84397450D01*
X231949468Y-82063998D02*
X230605965Y-83407501D01*
X225214275Y-48388039D02*
X223870772Y-49731542D01*
X225284986Y-50297227D02*
X224860722Y-50721491D01*
X225284986Y-50297227D02*
X226416356Y-49165856D01*
X226416356Y-49165856D02*
X225709250Y-48458750D01*
X225709250Y-48458750D02*
X225214275Y-48388039D01*
X213431049Y-92324824D02*
X213006785Y-92749088D01*
X213855313Y-90486347D02*
X213360338Y-90415636D01*
X214562419Y-91193453D02*
X213855313Y-90486347D01*
X213360338Y-90415636D02*
X212016835Y-91759139D01*
X213431049Y-92324824D02*
X214562419Y-91193453D01*
X194356841Y-124869414D02*
X193649735Y-124162308D01*
X193154760Y-124091597D02*
X191811257Y-125435100D01*
X193649735Y-124162308D02*
X193154760Y-124091597D01*
X193225471Y-126000785D02*
X194356841Y-124869414D01*
X193225471Y-126000785D02*
X192801207Y-126425049D01*
X205079410Y-110913955D02*
X204655146Y-111338219D01*
X206210780Y-109782584D02*
X205503674Y-109075478D01*
X205008699Y-109004767D02*
X203665196Y-110348270D01*
X205079410Y-110913955D02*
X206210780Y-109782584D01*
X205503674Y-109075478D02*
X205008699Y-109004767D01*
X218549795Y-70502802D02*
X219681165Y-69371431D01*
X218479084Y-68593614D02*
X217135581Y-69937117D01*
X219681165Y-69371431D02*
X218974059Y-68664325D01*
X218974059Y-68664325D02*
X218479084Y-68593614D01*
X218549795Y-70502802D02*
X218125531Y-70927066D01*
X191609025Y-97443570D02*
X192740395Y-96312199D01*
X192033289Y-95605093D02*
X191538314Y-95534382D01*
X192740395Y-96312199D02*
X192033289Y-95605093D01*
X191609025Y-97443570D02*
X191184761Y-97867834D01*
X191538314Y-95534382D02*
X190194811Y-96877885D01*
X252650018Y-75399517D02*
X252155043Y-75328806D01*
X252225754Y-77237994D02*
X251801490Y-77662258D01*
X252155043Y-75328806D02*
X250811540Y-76672309D01*
X253357124Y-76106623D02*
X252650018Y-75399517D01*
X252225754Y-77237994D02*
X253357124Y-76106623D01*
X199960663Y-78854440D02*
X201092033Y-77723069D01*
X199889952Y-76945252D02*
X198546449Y-78288755D01*
X201092033Y-77723069D02*
X200384927Y-77015963D01*
X199960663Y-78854440D02*
X199536399Y-79278704D01*
X200384927Y-77015963D02*
X199889952Y-76945252D01*
X178562905Y-82134709D02*
X178067930Y-82063998D01*
X178138641Y-83973186D02*
X179270011Y-82841815D01*
X178067930Y-82063998D02*
X176724427Y-83407501D01*
X178138641Y-83973186D02*
X177714377Y-84397450D01*
X179270011Y-82841815D02*
X178562905Y-82134709D01*
X230693292Y-107324328D02*
X230198317Y-107253617D01*
X231400398Y-108031434D02*
X230693292Y-107324328D01*
X230198317Y-107253617D02*
X228854814Y-108597120D01*
X230269028Y-109162805D02*
X231400398Y-108031434D01*
X230269028Y-109162805D02*
X229844764Y-109587069D01*
X166213993Y-97150829D02*
X164870490Y-98494332D01*
X166284704Y-99060017D02*
X167416074Y-97928646D01*
X166708968Y-97221540D02*
X166213993Y-97150829D01*
X167416074Y-97928646D02*
X166708968Y-97221540D01*
X166284704Y-99060017D02*
X165860440Y-99484281D01*
X186419568Y-63474868D02*
X185076065Y-64818371D01*
X186490279Y-65384056D02*
X186066015Y-65808320D01*
X186914543Y-63545579D02*
X186419568Y-63474868D01*
X186490279Y-65384056D02*
X187621649Y-64252685D01*
X187621649Y-64252685D02*
X186914543Y-63545579D01*
X47593036Y-69838036D02*
X47798097Y-68628883D01*
X47798097Y-68628883D02*
X45040381Y-65871167D01*
X47798097Y-68628883D02*
X46383883Y-70043097D01*
X46383883Y-70043097D02*
X47593036Y-69838036D01*
X46885929Y-70545143D02*
X48300143Y-69130929D01*
X46383883Y-70043097D02*
X43626167Y-67285381D01*
X66567157Y-76756371D02*
X67776310Y-76551310D01*
X67776310Y-76551310D02*
X67981371Y-75342157D01*
X67981371Y-75342157D02*
X66567157Y-76756371D01*
X66567157Y-76756371D02*
X63809441Y-73998655D01*
X67069203Y-77258417D02*
X68483417Y-75844203D01*
X67981371Y-75342157D02*
X65223655Y-72584441D01*
X94938097Y-102278883D02*
X92180381Y-99521167D01*
X93523883Y-103693097D02*
X90766167Y-100935381D01*
X94025929Y-104195143D02*
X95440143Y-102780929D01*
X93523883Y-103693097D02*
X94733036Y-103488036D01*
X94733036Y-103488036D02*
X94938097Y-102278883D01*
X94938097Y-102278883D02*
X93523883Y-103693097D01*
X67056128Y-96819861D02*
X67056128Y-100719861D01*
X67056128Y-96819861D02*
X69056128Y-96819861D01*
X69056128Y-96819861D02*
X69056128Y-100719861D01*
X69056128Y-96819861D02*
X68056128Y-96109861D01*
X69056128Y-96109861D02*
X67056128Y-96109861D01*
X68056128Y-96109861D02*
X67056128Y-96819861D01*
X64663883Y-78653097D02*
X61906167Y-75895381D01*
X64663883Y-78653097D02*
X65873036Y-78448036D01*
X66078097Y-77238883D02*
X63320381Y-74481167D01*
X65165929Y-79155143D02*
X66580143Y-77740929D01*
X66078097Y-77238883D02*
X64663883Y-78653097D01*
X65873036Y-78448036D02*
X66078097Y-77238883D01*
X65950000Y-93115000D02*
X63950000Y-93115000D01*
X65950000Y-93825000D02*
X64950000Y-93115000D01*
X65950000Y-93825000D02*
X65950000Y-97725000D01*
X64950000Y-93115000D02*
X63950000Y-93825000D01*
X63950000Y-93825000D02*
X63950000Y-97725000D01*
X63950000Y-93825000D02*
X65950000Y-93825000D01*
X45901371Y-70532157D02*
X44487157Y-71946371D01*
X44487157Y-71946371D02*
X45696310Y-71741310D01*
X45696310Y-71741310D02*
X45901371Y-70532157D01*
X45901371Y-70532157D02*
X43143655Y-67774441D01*
X44989203Y-72448417D02*
X46403417Y-71034203D01*
X44487157Y-71946371D02*
X41729441Y-69188655D01*
X84637783Y-85568883D02*
X81880067Y-82811167D01*
X84637783Y-85568883D02*
X83223569Y-86983097D01*
X84432722Y-86778036D02*
X84637783Y-85568883D01*
X83223569Y-86983097D02*
X80465853Y-84225381D01*
X83725615Y-87485143D02*
X85139829Y-86070929D01*
X83223569Y-86983097D02*
X84432722Y-86778036D01*
X86518097Y-83628883D02*
X85103883Y-85043097D01*
X86518097Y-83628883D02*
X83760381Y-80871167D01*
X85605929Y-85545143D02*
X87020143Y-84130929D01*
X85103883Y-85043097D02*
X82346167Y-82285381D01*
X86313036Y-84838036D02*
X86518097Y-83628883D01*
X85103883Y-85043097D02*
X86313036Y-84838036D01*
X93028097Y-104178883D02*
X90270381Y-101421167D01*
X93028097Y-104178883D02*
X91613883Y-105593097D01*
X92823036Y-105388036D02*
X93028097Y-104178883D01*
X92115929Y-106095143D02*
X93530143Y-104680929D01*
X91613883Y-105593097D02*
X92823036Y-105388036D01*
X91613883Y-105593097D02*
X88856167Y-102835381D01*
X98645568Y-72525072D02*
X100059782Y-71110858D01*
X99557736Y-70608812D02*
X98143522Y-72023026D01*
X99352675Y-71817965D02*
X99557736Y-70608812D01*
X99557736Y-70608812D02*
X96800020Y-67851096D01*
X98143522Y-72023026D02*
X99352675Y-71817965D01*
X98143522Y-72023026D02*
X95385806Y-69265310D01*
X60886065Y-56544459D02*
X61091126Y-55335306D01*
X60178958Y-57251566D02*
X61593172Y-55837352D01*
X59676912Y-56749520D02*
X60886065Y-56544459D01*
X59676912Y-56749520D02*
X56919196Y-53991804D01*
X61091126Y-55335306D02*
X58333410Y-52577590D01*
X61091126Y-55335306D02*
X59676912Y-56749520D01*
X107696534Y-90344163D02*
X107901595Y-89135010D01*
X107901595Y-89135010D02*
X106487381Y-90549224D01*
X106989427Y-91051270D02*
X108403641Y-89637056D01*
X106487381Y-90549224D02*
X103729665Y-87791508D01*
X106487381Y-90549224D02*
X107696534Y-90344163D01*
X107901595Y-89135010D02*
X105143879Y-86377294D01*
X81031538Y-62264952D02*
X79617324Y-63679166D01*
X79617324Y-63679166D02*
X76859608Y-60921450D01*
X79617324Y-63679166D02*
X80826477Y-63474105D01*
X80119370Y-64181212D02*
X81533584Y-62766998D01*
X81031538Y-62264952D02*
X78273822Y-59507236D01*
X80826477Y-63474105D02*
X81031538Y-62264952D01*
X118868821Y-106183355D02*
X120283035Y-104769141D01*
X119780989Y-104267095D02*
X118366775Y-105681309D01*
X119575928Y-105476248D02*
X119780989Y-104267095D01*
X118366775Y-105681309D02*
X115609059Y-102923593D01*
X119780989Y-104267095D02*
X117023273Y-101509379D01*
X118366775Y-105681309D02*
X119575928Y-105476248D01*
X103985929Y-121205143D02*
X105400143Y-119790929D01*
X104693036Y-120498036D02*
X104898097Y-119288883D01*
X104898097Y-119288883D02*
X103483883Y-120703097D01*
X103483883Y-120703097D02*
X104693036Y-120498036D01*
X104898097Y-119288883D02*
X102140381Y-116531167D01*
X103483883Y-120703097D02*
X100726167Y-117945381D01*
X71080000Y-99125000D02*
X70080000Y-99835000D01*
X70080000Y-99835000D02*
X70080000Y-103735000D01*
X72080000Y-99125000D02*
X70080000Y-99125000D01*
X70080000Y-99835000D02*
X72080000Y-99835000D01*
X72080000Y-99835000D02*
X71080000Y-99125000D01*
X72080000Y-99835000D02*
X72080000Y-103735000D01*
X106828097Y-117408883D02*
X104070381Y-114651167D01*
X106828097Y-117408883D02*
X105413883Y-118823097D01*
X106623036Y-118618036D02*
X106828097Y-117408883D01*
X105413883Y-118823097D02*
X102656167Y-116065381D01*
X105413883Y-118823097D02*
X106623036Y-118618036D01*
X105915929Y-119325143D02*
X107330143Y-117910929D01*
X242123883Y-67406903D02*
X243538097Y-68821117D01*
X243333036Y-67611964D02*
X242123883Y-67406903D01*
X243538097Y-68821117D02*
X243333036Y-67611964D01*
X244040143Y-68319071D02*
X242625929Y-66904857D01*
X243538097Y-68821117D02*
X240780381Y-71578833D01*
X242123883Y-67406903D02*
X239366167Y-70164619D01*
X83407417Y-143242823D02*
X83478128Y-142747848D01*
X81568940Y-142818559D02*
X82700311Y-143949929D01*
X82700311Y-143949929D02*
X83407417Y-143242823D01*
X83478128Y-142747848D02*
X82134625Y-141404345D01*
X81568940Y-142818559D02*
X81144676Y-142394295D01*
X96877801Y-129772437D02*
X96948512Y-129277462D01*
X96948512Y-129277462D02*
X95605009Y-127933959D01*
X95039324Y-129348173D02*
X96170695Y-130479543D01*
X95039324Y-129348173D02*
X94615060Y-128923909D01*
X96170695Y-130479543D02*
X96877801Y-129772437D01*
X49509425Y-67114998D02*
X49085161Y-66690734D01*
X49509425Y-67114998D02*
X50640796Y-68246368D01*
X51418613Y-67044287D02*
X50075110Y-65700784D01*
X51347902Y-67539262D02*
X51418613Y-67044287D01*
X50640796Y-68246368D02*
X51347902Y-67539262D01*
X85023863Y-114685607D02*
X85094574Y-114190632D01*
X85094574Y-114190632D02*
X83751071Y-112847129D01*
X83185386Y-114261343D02*
X84316757Y-115392713D01*
X84316757Y-115392713D02*
X85023863Y-114685607D01*
X83185386Y-114261343D02*
X82761122Y-113837079D01*
X36039040Y-80585383D02*
X35614776Y-80161119D01*
X37170411Y-81716753D02*
X37877517Y-81009647D01*
X37948228Y-80514672D02*
X36604725Y-79171169D01*
X36039040Y-80585383D02*
X37170411Y-81716753D01*
X37877517Y-81009647D02*
X37948228Y-80514672D01*
X88304131Y-82201829D02*
X89435502Y-83333199D01*
X89435502Y-83333199D02*
X90142608Y-82626093D01*
X90142608Y-82626093D02*
X90213319Y-82131118D01*
X90213319Y-82131118D02*
X88869816Y-80787615D01*
X88304131Y-82201829D02*
X87879867Y-81777565D01*
X69715002Y-127731727D02*
X69290738Y-127307463D01*
X71624190Y-127661016D02*
X70280687Y-126317513D01*
X69715002Y-127731727D02*
X70846373Y-128863097D01*
X71553479Y-128155991D02*
X71624190Y-127661016D01*
X70846373Y-128863097D02*
X71553479Y-128155991D01*
X75965119Y-96803583D02*
X76672225Y-96096477D01*
X76672225Y-96096477D02*
X76742936Y-95601502D01*
X74833748Y-95672213D02*
X75965119Y-96803583D01*
X76742936Y-95601502D02*
X75399433Y-94257999D01*
X74833748Y-95672213D02*
X74409484Y-95247949D01*
X70846373Y-74981562D02*
X71553479Y-74274456D01*
X69715002Y-73850192D02*
X69290738Y-73425928D01*
X71624190Y-73779481D02*
X70280687Y-72435978D01*
X69715002Y-73850192D02*
X70846373Y-74981562D01*
X71553479Y-74274456D02*
X71624190Y-73779481D01*
X98494246Y-101215223D02*
X98564957Y-100720248D01*
X97787140Y-101922329D02*
X98494246Y-101215223D01*
X96655769Y-100790959D02*
X96231505Y-100366695D01*
X96655769Y-100790959D02*
X97787140Y-101922329D01*
X98564957Y-100720248D02*
X97221454Y-99376745D01*
X56244618Y-87320575D02*
X55820354Y-86896311D01*
X58083095Y-87744839D02*
X58153806Y-87249864D01*
X58153806Y-87249864D02*
X56810303Y-85906361D01*
X56244618Y-87320575D02*
X57375989Y-88451945D01*
X57375989Y-88451945D02*
X58083095Y-87744839D01*
X109641078Y-117009160D02*
X110348184Y-116302054D01*
X110348184Y-116302054D02*
X110418895Y-115807079D01*
X108509707Y-115877790D02*
X108085443Y-115453526D01*
X108509707Y-115877790D02*
X109641078Y-117009160D01*
X110418895Y-115807079D02*
X109075392Y-114463576D01*
X64111180Y-54775984D02*
X64818286Y-54068878D01*
X64888997Y-53573903D02*
X63545494Y-52230400D01*
X64818286Y-54068878D02*
X64888997Y-53573903D01*
X62979809Y-53644614D02*
X64111180Y-54775984D01*
X62979809Y-53644614D02*
X62555545Y-53220350D01*
X84316757Y-61511176D02*
X85023863Y-60804070D01*
X85094574Y-60309095D02*
X83751071Y-58965592D01*
X83185386Y-60379806D02*
X82761122Y-59955542D01*
X85023863Y-60804070D02*
X85094574Y-60309095D01*
X83185386Y-60379806D02*
X84316757Y-61511176D01*
X110126153Y-87320575D02*
X111257524Y-88451945D01*
X111257524Y-88451945D02*
X111964630Y-87744839D01*
X112035341Y-87249864D02*
X110691838Y-85906361D01*
X111964630Y-87744839D02*
X112035341Y-87249864D01*
X110126153Y-87320575D02*
X109701889Y-86896311D01*
X59834244Y-112934457D02*
X59904955Y-112439482D01*
X59904955Y-112439482D02*
X58561452Y-111095979D01*
X59127138Y-113641563D02*
X59834244Y-112934457D01*
X57995767Y-112510193D02*
X59127138Y-113641563D01*
X57995767Y-112510193D02*
X57571503Y-112085929D01*
X121980093Y-102407405D02*
X123111464Y-103538775D01*
X123818570Y-102831669D02*
X123889281Y-102336694D01*
X121980093Y-102407405D02*
X121555829Y-101983141D01*
X123889281Y-102336694D02*
X122545778Y-100993191D01*
X123111464Y-103538775D02*
X123818570Y-102831669D01*
X101774515Y-68731445D02*
X102905886Y-69862815D01*
X102905886Y-69862815D02*
X103612992Y-69155709D01*
X103683703Y-68660734D02*
X102340200Y-67317231D01*
X103612992Y-69155709D02*
X103683703Y-68660734D01*
X101774515Y-68731445D02*
X101350251Y-68307181D01*
D13*
X147780081Y-49987939D02*
X145984030Y-48191888D01*
X149576132Y-48191888D02*
X147780081Y-46395836D01*
X149576132Y-48191888D02*
X147780081Y-49987939D01*
D10*
X153396070Y-60326496D02*
X153325360Y-60397207D01*
X153325360Y-60397207D02*
X152971806Y-60043653D01*
X152971806Y-60043653D02*
X153042517Y-59972943D01*
X153042517Y-59972943D02*
X153396070Y-60326496D01*
G36*
X153396070Y-60326496D02*
G01*
X153325360Y-60397207D01*
X152971806Y-60043653D01*
X153042517Y-59972943D01*
X153396070Y-60326496D01*
G37*
X153396070Y-60326496D02*
X153325360Y-60397207D01*
X152971806Y-60043653D01*
X153042517Y-59972943D01*
X153396070Y-60326496D01*
X153113227Y-60043653D02*
X152547542Y-60609339D01*
X152547542Y-60609339D02*
X152476831Y-60538628D01*
X152476831Y-60538628D02*
X153042517Y-59972943D01*
X153042517Y-59972943D02*
X153113227Y-60043653D01*
G36*
X153113227Y-60043653D02*
G01*
X152547542Y-60609339D01*
X152476831Y-60538628D01*
X153042517Y-59972943D01*
X153113227Y-60043653D01*
G37*
X153113227Y-60043653D02*
X152547542Y-60609339D01*
X152476831Y-60538628D01*
X153042517Y-59972943D01*
X153113227Y-60043653D01*
X153396070Y-60326496D02*
X153183938Y-60538628D01*
X153183938Y-60538628D02*
X153113227Y-60467918D01*
X153113227Y-60467918D02*
X153325360Y-60255785D01*
X153325360Y-60255785D02*
X153396070Y-60326496D01*
G36*
X153396070Y-60326496D02*
G01*
X153183938Y-60538628D01*
X153113227Y-60467918D01*
X153325360Y-60255785D01*
X153396070Y-60326496D01*
G37*
X153396070Y-60326496D02*
X153183938Y-60538628D01*
X153113227Y-60467918D01*
X153325360Y-60255785D01*
X153396070Y-60326496D01*
X152971806Y-60467918D02*
X152901095Y-60538628D01*
X152901095Y-60538628D02*
X152830385Y-60467918D01*
X152830385Y-60467918D02*
X152901095Y-60397207D01*
X152901095Y-60397207D02*
X152971806Y-60467918D01*
G36*
X152971806Y-60467918D02*
G01*
X152901095Y-60538628D01*
X152830385Y-60467918D01*
X152901095Y-60397207D01*
X152971806Y-60467918D01*
G37*
X152971806Y-60467918D02*
X152901095Y-60538628D01*
X152830385Y-60467918D01*
X152901095Y-60397207D01*
X152971806Y-60467918D01*
X152971806Y-60750760D02*
X152830385Y-60892182D01*
X152830385Y-60892182D02*
X152759674Y-60821471D01*
X152759674Y-60821471D02*
X152901095Y-60680050D01*
X152901095Y-60680050D02*
X152971806Y-60750760D01*
G36*
X152971806Y-60750760D02*
G01*
X152830385Y-60892182D01*
X152759674Y-60821471D01*
X152901095Y-60680050D01*
X152971806Y-60750760D01*
G37*
X152971806Y-60750760D02*
X152830385Y-60892182D01*
X152759674Y-60821471D01*
X152901095Y-60680050D01*
X152971806Y-60750760D01*
D14*
X209413974Y-118628491D03*
X209520040Y-118734557D03*
D15*
X214469787Y-118310293D03*
D16*
X212185833Y-117836531D03*
D17*
X207207801Y-123648949D03*
D18*
X214420290Y-116436460D03*
D19*
X209081634Y-123698447D03*
D16*
X208622014Y-121400350D03*
D20*
X213585904Y-122800421D03*
D21*
X209993802Y-126392523D03*
X217178006Y-119208319D03*
D15*
X202615850Y-133397122D03*
D14*
X197560037Y-133715320D03*
D16*
X200331896Y-132923360D03*
D14*
X197666103Y-133821386D03*
D17*
X195353864Y-138735778D03*
D16*
X196768077Y-136487179D03*
D19*
X197227697Y-138785276D03*
D18*
X202566353Y-131523289D03*
D21*
X205324069Y-134295148D03*
X198139865Y-141479352D03*
D20*
X201731967Y-137887250D03*
D14*
X170619268Y-106774552D03*
D16*
X173391127Y-105982592D03*
D14*
X170725334Y-106880618D03*
D15*
X175675081Y-106456354D03*
D19*
X170286928Y-111844508D03*
D18*
X175625584Y-104582521D03*
D16*
X169827308Y-109546411D03*
D17*
X168413095Y-111795010D03*
D20*
X174791198Y-110946482D03*
D21*
X171199096Y-114538584D03*
X178383300Y-107354380D03*
D14*
X229619550Y-58011762D03*
X229725616Y-58117828D03*
D15*
X234675363Y-57693564D03*
D16*
X232391409Y-57219802D03*
D17*
X227413377Y-63032220D03*
D16*
X228827590Y-60783621D03*
D19*
X229287210Y-63081718D03*
D18*
X234625866Y-55819731D03*
D20*
X233791480Y-62183692D03*
D21*
X230199378Y-65775794D03*
X237383582Y-58591590D03*
D14*
X196049655Y-51382635D03*
D15*
X200999402Y-50958371D03*
D14*
X195943589Y-51276569D03*
D16*
X198715448Y-50484609D03*
X195151629Y-54048428D03*
D19*
X195611249Y-56346525D03*
D17*
X193737416Y-56297027D03*
D18*
X200949905Y-49084538D03*
D21*
X203707621Y-51856397D03*
D20*
X200115519Y-55448499D03*
D21*
X196523417Y-59040601D03*
D14*
X222990425Y-78323403D03*
D15*
X227940172Y-77899139D03*
D16*
X225656218Y-77425377D03*
D14*
X222884359Y-78217337D03*
D16*
X222092399Y-80989196D03*
D17*
X220678186Y-83237795D03*
D19*
X222552019Y-83287293D03*
D18*
X227890675Y-76025306D03*
D21*
X230648391Y-78797165D03*
X223464187Y-85981369D03*
D20*
X227056289Y-82389267D03*
D15*
X221204979Y-44223180D03*
D16*
X218921025Y-43749418D03*
D14*
X216255232Y-44647444D03*
X216149166Y-44541378D03*
D16*
X215357206Y-47313237D03*
D19*
X215816826Y-49611334D03*
D18*
X221155482Y-42349347D03*
D17*
X213942993Y-49561836D03*
D21*
X216728994Y-52305410D03*
D20*
X220321096Y-48713308D03*
D21*
X223913198Y-45121206D03*
D15*
X209351042Y-86250777D03*
D14*
X204401295Y-86675041D03*
X204295229Y-86568975D03*
D16*
X207067088Y-85777015D03*
X203503269Y-89340834D03*
D19*
X203962889Y-91638931D03*
D18*
X209301545Y-84376944D03*
D17*
X202089056Y-91589433D03*
D21*
X204875057Y-94333007D03*
D20*
X208467159Y-90740905D03*
D21*
X212059261Y-87148803D03*
D14*
X184089651Y-120244936D03*
D16*
X186861510Y-119452976D03*
D14*
X184195717Y-120351002D03*
D15*
X189145464Y-119926738D03*
D17*
X181883478Y-125265394D03*
D19*
X183757311Y-125314892D03*
D18*
X189095967Y-118052905D03*
D16*
X183297691Y-123016795D03*
D21*
X191853683Y-120824764D03*
D20*
X188261581Y-124416866D03*
D21*
X184669479Y-128008968D03*
D16*
X198715449Y-104366146D03*
D14*
X196049656Y-105264172D03*
D15*
X200999403Y-104839908D03*
D14*
X195943590Y-105158106D03*
D19*
X195611250Y-110228062D03*
D16*
X195151630Y-107929965D03*
D17*
X193737417Y-110178564D03*
D18*
X200949906Y-102966075D03*
D20*
X200115520Y-109330036D03*
D21*
X203707622Y-105737934D03*
X196523418Y-112922138D03*
D15*
X214469788Y-64428755D03*
D14*
X209520041Y-64853019D03*
D16*
X212185834Y-63954993D03*
D14*
X209413975Y-64746953D03*
D18*
X214420291Y-62554922D03*
D19*
X209081635Y-69816909D03*
D17*
X207207802Y-69767411D03*
D16*
X208622015Y-67518812D03*
D20*
X213585905Y-68918883D03*
D21*
X217178007Y-65326781D03*
X209993803Y-72510985D03*
D16*
X185245064Y-90895761D03*
D14*
X182473205Y-91687721D03*
D15*
X187529018Y-91369523D03*
D14*
X182579271Y-91793787D03*
D18*
X187479521Y-89495690D03*
D17*
X180267032Y-96708179D03*
D16*
X181681245Y-94459580D03*
D19*
X182140865Y-96757677D03*
D20*
X186645135Y-95859651D03*
D21*
X183053033Y-99451753D03*
X190237237Y-92267549D03*
D15*
X248145747Y-71163947D03*
D14*
X243196000Y-71588211D03*
D16*
X245861793Y-70690185D03*
D14*
X243089934Y-71482145D03*
D17*
X240883761Y-76502603D03*
D19*
X242757594Y-76552101D03*
D18*
X248096250Y-69290114D03*
D16*
X242297974Y-74254004D03*
D21*
X243669762Y-79246177D03*
D20*
X247261864Y-75654075D03*
D21*
X250853966Y-72061973D03*
D15*
X195880656Y-72780393D03*
D16*
X193596702Y-72306631D03*
D14*
X190930909Y-73204657D03*
X190824843Y-73098591D03*
D17*
X188618670Y-78119049D03*
D16*
X190032883Y-75870450D03*
D19*
X190492503Y-78168547D03*
D18*
X195831159Y-70906560D03*
D20*
X194996773Y-77270521D03*
D21*
X191404671Y-80862623D03*
X198588875Y-73678419D03*
D14*
X169108887Y-78323403D03*
X169002821Y-78217337D03*
D15*
X174058634Y-77899139D03*
D16*
X171774680Y-77425377D03*
X168210861Y-80989196D03*
D18*
X174009137Y-76025306D03*
D19*
X168670481Y-83287293D03*
D17*
X166796648Y-83237795D03*
D21*
X169582649Y-85981369D03*
D20*
X173174751Y-82389267D03*
D21*
X176766853Y-78797165D03*
D16*
X223905067Y-102614996D03*
D15*
X226189021Y-103088758D03*
D14*
X221239274Y-103513022D03*
X221133208Y-103406956D03*
D19*
X220800868Y-108476912D03*
D18*
X226139524Y-101214925D03*
D16*
X220341248Y-106178815D03*
D17*
X218927035Y-108427414D03*
D21*
X228897240Y-103986784D03*
D20*
X225305138Y-107578886D03*
D21*
X221713036Y-111170988D03*
D14*
X157148884Y-93304168D03*
D15*
X162204697Y-92985970D03*
D14*
X157254950Y-93410234D03*
D16*
X159920743Y-92512208D03*
X156356924Y-96076027D03*
D19*
X156816544Y-98374124D03*
D17*
X154942711Y-98324626D03*
D18*
X162155200Y-91112137D03*
D21*
X157728712Y-101068200D03*
D20*
X161320814Y-97476098D03*
D21*
X164912916Y-93883996D03*
D15*
X182410272Y-59310009D03*
D16*
X180126318Y-58836247D03*
D14*
X177460525Y-59734273D03*
X177354459Y-59628207D03*
D16*
X176562499Y-62400066D03*
D19*
X177022119Y-64698163D03*
D18*
X182360775Y-57436176D03*
D17*
X175148286Y-64648665D03*
D20*
X181526389Y-63800137D03*
D21*
X177934287Y-67392239D03*
X185118491Y-60208035D03*
D22*
X87324789Y-133682739D03*
D23*
X87642987Y-138738552D03*
D22*
X87218723Y-133788805D03*
D24*
X88116749Y-136454598D03*
D25*
X89516820Y-138689055D03*
D26*
X82254833Y-133350399D03*
D24*
X84552930Y-132890779D03*
D27*
X82304331Y-131476566D03*
D21*
X79560757Y-134262567D03*
X86744961Y-141446771D03*
D20*
X83152859Y-137854669D03*
D23*
X101113371Y-125268166D03*
D24*
X101587133Y-122984212D03*
D22*
X100689107Y-120318419D03*
X100795173Y-120212353D03*
D26*
X95725217Y-119880013D03*
D24*
X98023314Y-119420393D03*
D25*
X102987204Y-125218669D03*
D27*
X95774715Y-118006180D03*
D20*
X96623243Y-124384283D03*
D21*
X93031141Y-120792181D03*
X100215345Y-127976385D03*
D23*
X55583472Y-63034991D03*
D22*
X55265274Y-57979178D03*
X55159208Y-58085244D03*
D24*
X56057234Y-60751037D03*
D27*
X50244816Y-55773005D03*
D26*
X50195318Y-57646838D03*
D25*
X57457305Y-62985494D03*
D24*
X52493415Y-57187218D03*
D21*
X47501242Y-58559006D03*
D20*
X51093344Y-62151108D03*
D21*
X54685446Y-65743210D03*
D22*
X88835169Y-105231589D03*
X88941235Y-105125523D03*
D24*
X89733195Y-107897382D03*
D23*
X89259433Y-110181336D03*
D26*
X83871279Y-104793183D03*
D24*
X86169376Y-104333563D03*
D25*
X91133266Y-110131839D03*
D27*
X83920777Y-102919350D03*
D21*
X81177203Y-105705351D03*
X88361407Y-112889555D03*
D20*
X84769305Y-109297453D03*
D22*
X41794889Y-71449563D03*
X41688823Y-71555629D03*
D23*
X42113087Y-76505376D03*
D24*
X42586849Y-74221422D03*
D26*
X36724933Y-71117223D03*
D24*
X39023030Y-70657603D03*
D25*
X43986920Y-76455879D03*
D27*
X36774431Y-69243390D03*
D21*
X41215061Y-79213595D03*
D20*
X37622959Y-75621493D03*
D21*
X34030857Y-72029391D03*
D22*
X94059980Y-73066009D03*
D23*
X94378178Y-78121822D03*
D22*
X93953914Y-73172075D03*
D24*
X94851940Y-75837868D03*
D26*
X88990024Y-72733669D03*
D25*
X96252011Y-78072325D03*
D27*
X89039522Y-70859836D03*
D24*
X91288121Y-72274049D03*
D20*
X89888050Y-77237939D03*
D21*
X86295948Y-73645837D03*
X93480152Y-80830041D03*
D22*
X75364785Y-118701973D03*
X75470851Y-118595907D03*
D23*
X75789049Y-123651720D03*
D24*
X76262811Y-121367766D03*
D26*
X70400895Y-118263567D03*
D25*
X77662882Y-123602223D03*
D27*
X70450393Y-116389734D03*
D24*
X72698992Y-117803947D03*
D20*
X71298921Y-122767837D03*
D21*
X67706819Y-119175735D03*
X74891023Y-126359939D03*
D24*
X81381557Y-89308252D03*
D23*
X80907795Y-91592206D03*
D22*
X80589597Y-86536393D03*
X80483531Y-86642459D03*
D24*
X77817738Y-85744433D03*
D27*
X75569139Y-84330220D03*
D26*
X75519641Y-86204053D03*
D25*
X82781628Y-91542709D03*
D21*
X80009769Y-94300425D03*
D20*
X76417667Y-90708323D03*
D21*
X72825565Y-87116221D03*
D22*
X75470851Y-64714372D03*
D24*
X76262811Y-67486231D03*
D23*
X75789049Y-69770185D03*
D22*
X75364785Y-64820438D03*
D26*
X70400895Y-64382032D03*
D27*
X70450393Y-62508199D03*
D25*
X77662882Y-69720688D03*
D24*
X72698992Y-63922412D03*
D20*
X71298921Y-68886302D03*
D21*
X67706819Y-65294200D03*
X74891023Y-72478404D03*
D22*
X102411618Y-91655139D03*
D24*
X103203578Y-94426998D03*
D22*
X102305552Y-91761205D03*
D23*
X102729816Y-96710952D03*
D26*
X97341662Y-91322799D03*
D25*
X104603649Y-96661455D03*
D24*
X99639759Y-90863179D03*
D27*
X97391160Y-89448966D03*
D20*
X98239688Y-95827069D03*
D21*
X94647586Y-92234967D03*
X101831790Y-99419171D03*
D23*
X62318665Y-83240568D03*
D22*
X61894401Y-78290821D03*
D24*
X62792427Y-80956614D03*
D22*
X62000467Y-78184755D03*
D24*
X59228608Y-77392795D03*
D26*
X56930511Y-77852415D03*
D25*
X64192498Y-83191071D03*
D27*
X56980009Y-75978582D03*
D21*
X54236435Y-78764583D03*
X61420639Y-85948787D03*
D20*
X57828537Y-82356685D03*
D22*
X114265556Y-106741970D03*
X114159490Y-106848036D03*
D24*
X115057516Y-109513829D03*
D23*
X114583754Y-111797783D03*
D24*
X111493697Y-105950010D03*
D26*
X109195600Y-106409630D03*
D25*
X116457587Y-111748286D03*
D27*
X109245098Y-104535797D03*
D20*
X110093626Y-110913900D03*
D21*
X106501524Y-107321798D03*
X113685728Y-114506002D03*
D22*
X68629592Y-44614860D03*
D24*
X69527618Y-47280653D03*
D23*
X69053856Y-49564607D03*
D22*
X68735658Y-44508794D03*
D24*
X65963799Y-43716834D03*
D27*
X63715200Y-42302621D03*
D26*
X63665702Y-44176454D03*
D25*
X70927689Y-49515110D03*
D21*
X68155830Y-52272826D03*
X60971626Y-45088622D03*
D20*
X64563728Y-48680724D03*
D22*
X88941235Y-51243986D03*
X88835169Y-51350052D03*
D23*
X89259433Y-56299799D03*
D24*
X89733195Y-54015845D03*
D26*
X83871279Y-50911646D03*
D27*
X83920777Y-49037813D03*
D24*
X86169376Y-50452026D03*
D25*
X91133266Y-56250302D03*
D20*
X84769305Y-55415916D03*
D21*
X88361407Y-59008018D03*
X81177203Y-51823814D03*
D24*
X116673962Y-80956614D03*
D23*
X116200200Y-83240568D03*
D22*
X115775936Y-78290821D03*
X115882002Y-78184755D03*
D27*
X110861544Y-75978582D03*
D24*
X113110143Y-77392795D03*
D26*
X110812046Y-77852415D03*
D25*
X118074033Y-83191071D03*
D20*
X111710072Y-82356685D03*
D21*
X115302174Y-85948787D03*
X108117970Y-78764583D03*
D22*
X63751616Y-103374373D03*
D24*
X64543576Y-106146232D03*
D22*
X63645550Y-103480439D03*
D23*
X64069814Y-108430186D03*
D27*
X58731158Y-101168200D03*
D26*
X58681660Y-103042033D03*
D24*
X60979757Y-102582413D03*
D25*
X65943647Y-108380689D03*
D20*
X59579686Y-107546303D03*
D21*
X55987584Y-103954201D03*
X63171788Y-111138405D03*
D24*
X128527902Y-96043444D03*
D22*
X127735942Y-93271585D03*
X127629876Y-93377651D03*
D23*
X128054140Y-98327398D03*
D26*
X122665986Y-92939245D03*
D27*
X122715484Y-91065412D03*
D24*
X124964083Y-92479625D03*
D25*
X129927973Y-98277901D03*
D21*
X127156114Y-101035617D03*
X119971910Y-93851413D03*
D20*
X123564012Y-97443515D03*
D23*
X107848562Y-64651438D03*
D24*
X108322324Y-62367484D03*
D22*
X107530364Y-59595625D03*
X107424298Y-59701691D03*
D24*
X104758505Y-58803665D03*
D27*
X102509906Y-57389452D03*
D26*
X102460408Y-59263285D03*
D25*
X109722395Y-64601941D03*
D20*
X103358434Y-63767555D03*
D21*
X99766332Y-60175453D03*
X106950536Y-67359657D03*
D28*
X147780081Y-48191888D03*
D29*
X145984030Y-49987939D03*
X144187979Y-51783990D03*
X142391927Y-53580041D03*
X140595876Y-55376092D03*
X138799825Y-57172144D03*
X137003774Y-58968195D03*
X135207722Y-60764246D03*
X133411671Y-62560297D03*
X131615620Y-64356349D03*
X129819569Y-66152400D03*
X128185162Y-68110096D03*
X138799825Y-78724758D03*
X140595876Y-76928707D03*
X142391927Y-75132656D03*
X144187979Y-73336605D03*
X145984030Y-71540554D03*
X147780081Y-69744502D03*
X149576132Y-67948451D03*
X151372184Y-66152400D03*
X153168235Y-64356349D03*
X154964286Y-62560297D03*
X156760337Y-60764246D03*
X158556388Y-58968195D03*
X129819569Y-69744502D03*
X131615620Y-71540554D03*
X133411671Y-73336605D03*
X135207722Y-75132656D03*
X137003774Y-76928707D03*
M02*
