G04 #@! TF.GenerationSoftware,KiCad,Pcbnew,(5.99.0-11349-g4025603a1f)*
G04 #@! TF.CreationDate,2022-06-14T13:32:42-04:00*
G04 #@! TF.ProjectId,eek,65656b2e-6b69-4636-9164-5f7063625858,rev?*
G04 #@! TF.SameCoordinates,Original*
G04 #@! TF.FileFunction,Profile,NP*
%FSLAX46Y46*%
G04 Gerber Fmt 4.6, Leading zero omitted, Abs format (unit mm)*
G04 Created by KiCad (PCBNEW (5.99.0-11349-g4025603a1f)) date 2022-06-14 13:32:42*
%MOMM*%
%LPD*%
G01*
G04 APERTURE LIST*
G04 #@! TA.AperFunction,Profile*
%ADD10C,0.050000*%
G04 #@! TD*
G04 APERTURE END LIST*
D10*
X64449999Y-35100001D02*
X84522731Y-41839740D01*
X64200001Y-35150001D02*
X24347944Y-75003048D01*
X181796625Y-50180677D02*
X200322823Y-41836817D01*
X214040695Y-135599176D02*
X226839327Y-122800544D01*
X244799839Y-87162362D02*
G75*
G03*
X244092733Y-87162362I-353553J-353553D01*
G01*
X247274713Y-88930129D02*
X260497610Y-75707232D01*
X194938761Y-152579790D02*
G75*
G03*
X200312773Y-152579790I2687006J2687006D01*
G01*
X238506590Y-107597748D02*
G75*
G03*
X238506589Y-106890641I-353554J353553D01*
G01*
X231789074Y-99466020D02*
G75*
G03*
X231789075Y-100173127I353554J-353553D01*
G01*
X244092733Y-87162362D02*
X231789075Y-99466020D01*
X244799840Y-87162362D02*
X246567607Y-88930129D01*
X238506589Y-107597748D02*
X225778667Y-120325670D01*
X225778667Y-120325669D02*
G75*
G03*
X225778667Y-121032777I353554J-353554D01*
G01*
X201383483Y-151509079D02*
X201312773Y-151579790D01*
X246567607Y-88930129D02*
G75*
G03*
X247274713Y-88930129I353553J353553D01*
G01*
X214959933Y-137225522D02*
X214040695Y-136306283D01*
X238506589Y-106890641D02*
X231789075Y-100173127D01*
X214040695Y-135599177D02*
G75*
G03*
X214040695Y-136306283I353553J-353553D01*
G01*
X226839327Y-122093437D02*
X225778667Y-121032777D01*
X201383483Y-151509079D02*
X214959933Y-137932629D01*
X226839327Y-122800543D02*
G75*
G03*
X226839327Y-122093437I-353553J353553D01*
G01*
X260497611Y-75707232D02*
G75*
G03*
X260497610Y-75000125I-353554J353553D01*
G01*
X214959933Y-137932628D02*
G75*
G03*
X214959933Y-137225522I-353553J353553D01*
G01*
X194938761Y-152579790D02*
X156967127Y-114749577D01*
X220645553Y-35147078D02*
G75*
G03*
X220395555Y-35097078I-149999J-99999D01*
G01*
X220645553Y-35147078D02*
X260497610Y-75000125D01*
X220395555Y-35097078D02*
X200322823Y-41836817D01*
X181796625Y-50180677D02*
X163198332Y-57735378D01*
X103048929Y-50183600D02*
X84522731Y-41839740D01*
X121670586Y-58007737D02*
X103048929Y-50183600D01*
X131969596Y-48981519D02*
X123205907Y-57748644D01*
X145970311Y-42617558D02*
X131969596Y-48981519D01*
X147879499Y-42971111D02*
X151415032Y-46506645D01*
X162375188Y-57466800D02*
X159971024Y-55062637D01*
X83462071Y-151512002D02*
X83532781Y-151582713D01*
X89906793Y-152582713D02*
X127878427Y-114752500D01*
X69885621Y-137935551D02*
G75*
G02*
X69885621Y-137228445I353553J353553D01*
G01*
X40045714Y-87165285D02*
X38277947Y-88933052D01*
X37570841Y-88933052D02*
X24347944Y-75710155D01*
X40752821Y-87165285D02*
X53056479Y-99468943D01*
X46338965Y-106893564D02*
X53056479Y-100176050D01*
X46338965Y-107600671D02*
X59066887Y-120328593D01*
X83462071Y-151512002D02*
X69885621Y-137935552D01*
X69885621Y-137228445D02*
X70804859Y-136309206D01*
X70804859Y-135602099D02*
X58006227Y-122803467D01*
X58006227Y-122096360D02*
X59066887Y-121035700D01*
X147879499Y-42971111D02*
X147808786Y-42900400D01*
X158132547Y-55062638D02*
X152830000Y-60375000D01*
X201312773Y-151579790D02*
X200312773Y-152579790D01*
X83532781Y-151582713D02*
X84532781Y-152582713D01*
X155970000Y-113755000D02*
X128880000Y-113755000D01*
X146110000Y-53655000D02*
X152830000Y-60375000D01*
X151415032Y-48345123D02*
X146110000Y-53655000D01*
X38277947Y-88933052D02*
G75*
G02*
X37570841Y-88933052I-353553J353553D01*
G01*
X89906793Y-152582713D02*
G75*
G02*
X84532781Y-152582713I-2687006J2687006D01*
G01*
X158132547Y-55062638D02*
G75*
G02*
X159971024Y-55062637I919239J-919238D01*
G01*
X40045715Y-87165285D02*
G75*
G02*
X40752821Y-87165285I353553J-353553D01*
G01*
X70804859Y-135602100D02*
G75*
G02*
X70804859Y-136309206I-353553J-353553D01*
G01*
X145970311Y-42617559D02*
G75*
G02*
X147808786Y-42900400I777817J-1060659D01*
G01*
X24347943Y-75710155D02*
G75*
G02*
X24347944Y-75003048I353554J353553D01*
G01*
X151415033Y-46506646D02*
G75*
G02*
X151415032Y-48345123I-919239J-919238D01*
G01*
X64200001Y-35150001D02*
G75*
G02*
X64449999Y-35100001I149999J-99999D01*
G01*
X46338964Y-107600671D02*
G75*
G02*
X46338965Y-106893564I353554J353553D01*
G01*
X59066887Y-120328592D02*
G75*
G02*
X59066887Y-121035700I-353554J-353554D01*
G01*
X53056480Y-99468943D02*
G75*
G02*
X53056479Y-100176050I-353554J-353553D01*
G01*
X123205906Y-57748644D02*
G75*
G02*
X121670586Y-58007737I-977413J1113401D01*
G01*
X156967127Y-114749577D02*
X155970000Y-113755000D01*
X127878427Y-114752500D02*
X128880000Y-113755000D01*
X163198332Y-57735378D02*
G75*
G02*
X162375190Y-57466800I-236246J671629D01*
G01*
X58006227Y-122803466D02*
G75*
G02*
X58006227Y-122096360I353553J353553D01*
G01*
X217206291Y-123889365D02*
X219186190Y-125869264D01*
X216640605Y-128414849D02*
X214660706Y-126434950D01*
X214660706Y-126152107D02*
X216923448Y-123889365D01*
X219186190Y-126152107D02*
X216923448Y-128414849D01*
X216923449Y-128414849D02*
G75*
G02*
X216640605Y-128414849I-141422J141422D01*
G01*
X216923447Y-123889365D02*
G75*
G02*
X217206291Y-123889365I141422J-141422D01*
G01*
X219186189Y-125869264D02*
G75*
G02*
X219186190Y-126152107I-141421J-141422D01*
G01*
X214660707Y-126434950D02*
G75*
G02*
X214660706Y-126152107I141421J141422D01*
G01*
X204786668Y-143501678D02*
X202806769Y-141521779D01*
X202806769Y-141238936D02*
X205069511Y-138976194D01*
X207332253Y-141238936D02*
X205069511Y-143501678D01*
X205352354Y-138976194D02*
X207332253Y-140956093D01*
X205069510Y-138976194D02*
G75*
G02*
X205352354Y-138976194I141422J-141422D01*
G01*
X207332252Y-140956093D02*
G75*
G02*
X207332253Y-141238936I-141421J-141422D01*
G01*
X205069512Y-143501678D02*
G75*
G02*
X204786668Y-143501678I-141422J141422D01*
G01*
X202806770Y-141521779D02*
G75*
G02*
X202806769Y-141238936I141421J141422D01*
G01*
X178411585Y-112035426D02*
X180391484Y-114015325D01*
X180391484Y-114298168D02*
X178128742Y-116560910D01*
X177845899Y-116560910D02*
X175866000Y-114581011D01*
X175866000Y-114298168D02*
X178128742Y-112035426D01*
X180391483Y-114015325D02*
G75*
G02*
X180391484Y-114298168I-141421J-141422D01*
G01*
X178128743Y-116560910D02*
G75*
G02*
X177845899Y-116560910I-141422J141422D01*
G01*
X175866001Y-114581011D02*
G75*
G02*
X175866000Y-114298168I141421J141422D01*
G01*
X178128741Y-112035426D02*
G75*
G02*
X178411585Y-112035426I141422J-141422D01*
G01*
X237411867Y-63272636D02*
X239391766Y-65252535D01*
X234866282Y-65535378D02*
X237129024Y-63272636D01*
X239391766Y-65535378D02*
X237129024Y-67798120D01*
X236846181Y-67798120D02*
X234866282Y-65818221D01*
X239391765Y-65252535D02*
G75*
G02*
X239391766Y-65535378I-141421J-141422D01*
G01*
X237129025Y-67798120D02*
G75*
G02*
X236846181Y-67798120I-141422J141422D01*
G01*
X234866283Y-65818221D02*
G75*
G02*
X234866282Y-65535378I141421J141422D01*
G01*
X237129023Y-63272636D02*
G75*
G02*
X237411867Y-63272636I141422J-141422D01*
G01*
X203170220Y-61062927D02*
X201190321Y-59083028D01*
X205715805Y-58800185D02*
X203453063Y-61062927D01*
X203735906Y-56537443D02*
X205715805Y-58517342D01*
X201190321Y-58800185D02*
X203453063Y-56537443D01*
X205715804Y-58517342D02*
G75*
G02*
X205715805Y-58800185I-141421J-141422D01*
G01*
X201190322Y-59083028D02*
G75*
G02*
X201190321Y-58800185I141421J141422D01*
G01*
X203453062Y-56537443D02*
G75*
G02*
X203735906Y-56537443I141422J-141422D01*
G01*
X203453064Y-61062927D02*
G75*
G02*
X203170220Y-61062927I-141422J141422D01*
G01*
X230110990Y-88003695D02*
X228131091Y-86023796D01*
X228131091Y-85740953D02*
X230393833Y-83478211D01*
X232656575Y-85740953D02*
X230393833Y-88003695D01*
X230676676Y-83478211D02*
X232656575Y-85458110D01*
X228131092Y-86023796D02*
G75*
G02*
X228131091Y-85740953I141421J141422D01*
G01*
X230393834Y-88003695D02*
G75*
G02*
X230110990Y-88003695I-141422J141422D01*
G01*
X230393832Y-83478211D02*
G75*
G02*
X230676676Y-83478211I141422J-141422D01*
G01*
X232656574Y-85458110D02*
G75*
G02*
X232656575Y-85740953I-141421J-141422D01*
G01*
X223375797Y-54327736D02*
X221395898Y-52347837D01*
X221395898Y-52064994D02*
X223658640Y-49802252D01*
X223941483Y-49802252D02*
X225921382Y-51782151D01*
X225921382Y-52064994D02*
X223658640Y-54327736D01*
X223658639Y-49802252D02*
G75*
G02*
X223941483Y-49802252I141422J-141422D01*
G01*
X221395899Y-52347837D02*
G75*
G02*
X221395898Y-52064994I141421J141422D01*
G01*
X223658641Y-54327736D02*
G75*
G02*
X223375797Y-54327736I-141422J141422D01*
G01*
X225921381Y-51782151D02*
G75*
G02*
X225921382Y-52064994I-141421J-141422D01*
G01*
X214067445Y-94092591D02*
X211804703Y-96355333D01*
X212087546Y-91829849D02*
X214067445Y-93809748D01*
X209541961Y-94092591D02*
X211804703Y-91829849D01*
X211521860Y-96355333D02*
X209541961Y-94375434D01*
X209541962Y-94375434D02*
G75*
G02*
X209541961Y-94092591I141421J141422D01*
G01*
X214067444Y-93809748D02*
G75*
G02*
X214067445Y-94092591I-141421J-141422D01*
G01*
X211804704Y-96355333D02*
G75*
G02*
X211521860Y-96355333I-141422J141422D01*
G01*
X211804702Y-91829849D02*
G75*
G02*
X212087546Y-91829849I141422J-141422D01*
G01*
X193861867Y-127768552D02*
X191599125Y-130031294D01*
X191881968Y-125505810D02*
X193861867Y-127485709D01*
X191316282Y-130031294D02*
X189336383Y-128051395D01*
X189336383Y-127768552D02*
X191599125Y-125505810D01*
X189336384Y-128051395D02*
G75*
G02*
X189336383Y-127768552I141421J141422D01*
G01*
X193861866Y-127485709D02*
G75*
G02*
X193861867Y-127768552I-141421J-141422D01*
G01*
X191599126Y-130031294D02*
G75*
G02*
X191316282Y-130031294I-141422J141422D01*
G01*
X191599124Y-125505810D02*
G75*
G02*
X191881968Y-125505810I141422J-141422D01*
G01*
X201190322Y-112681722D02*
X203453064Y-110418980D01*
X203735907Y-110418980D02*
X205715806Y-112398879D01*
X203170221Y-114944464D02*
X201190322Y-112964565D01*
X205715806Y-112681722D02*
X203453064Y-114944464D01*
X201190323Y-112964565D02*
G75*
G02*
X201190322Y-112681722I141421J141422D01*
G01*
X203453063Y-110418980D02*
G75*
G02*
X203735907Y-110418980I141422J-141422D01*
G01*
X203453065Y-114944464D02*
G75*
G02*
X203170221Y-114944464I-141422J141422D01*
G01*
X205715805Y-112398879D02*
G75*
G02*
X205715806Y-112681722I-141421J-141422D01*
G01*
X216640606Y-74533311D02*
X214660707Y-72553412D01*
X217206292Y-70007827D02*
X219186191Y-71987726D01*
X214660707Y-72270569D02*
X216923449Y-70007827D01*
X219186191Y-72270569D02*
X216923449Y-74533311D01*
X216923448Y-70007827D02*
G75*
G02*
X217206292Y-70007827I141422J-141422D01*
G01*
X214660708Y-72553412D02*
G75*
G02*
X214660707Y-72270569I141421J141422D01*
G01*
X219186190Y-71987726D02*
G75*
G02*
X219186191Y-72270569I-141421J-141422D01*
G01*
X216923450Y-74533311D02*
G75*
G02*
X216640606Y-74533311I-141422J141422D01*
G01*
X189699836Y-101474079D02*
X187719937Y-99494180D01*
X187719937Y-99211337D02*
X189982679Y-96948595D01*
X192245421Y-99211337D02*
X189982679Y-101474079D01*
X190265522Y-96948595D02*
X192245421Y-98928494D01*
X187719938Y-99494180D02*
G75*
G02*
X187719937Y-99211337I141421J141422D01*
G01*
X192245420Y-98928494D02*
G75*
G02*
X192245421Y-99211337I-141421J-141422D01*
G01*
X189982678Y-96948595D02*
G75*
G02*
X190265522Y-96948595I141422J-141422D01*
G01*
X189982680Y-101474079D02*
G75*
G02*
X189699836Y-101474079I-141422J141422D01*
G01*
X250882251Y-76743019D02*
X252862150Y-78722918D01*
X248336666Y-79005761D02*
X250599408Y-76743019D01*
X252862150Y-79005761D02*
X250599408Y-81268503D01*
X250316565Y-81268503D02*
X248336666Y-79288604D01*
X250599407Y-76743019D02*
G75*
G02*
X250882251Y-76743019I141422J-141422D01*
G01*
X248336667Y-79288604D02*
G75*
G02*
X248336666Y-79005761I141421J141422D01*
G01*
X250599409Y-81268503D02*
G75*
G02*
X250316565Y-81268503I-141422J141422D01*
G01*
X252862149Y-78722918D02*
G75*
G02*
X252862150Y-79005761I-141421J-141422D01*
G01*
X198617160Y-78359465D02*
X200597059Y-80339364D01*
X196071575Y-80622207D02*
X198334317Y-78359465D01*
X200597059Y-80622207D02*
X198334317Y-82884949D01*
X198051474Y-82884949D02*
X196071575Y-80905050D01*
X198334318Y-82884949D02*
G75*
G02*
X198051474Y-82884949I-141422J141422D01*
G01*
X198334316Y-78359465D02*
G75*
G02*
X198617160Y-78359465I141422J-141422D01*
G01*
X200597058Y-80339364D02*
G75*
G02*
X200597059Y-80622207I-141421J-141422D01*
G01*
X196071576Y-80905050D02*
G75*
G02*
X196071575Y-80622207I141421J141422D01*
G01*
X176229452Y-88003695D02*
X174249553Y-86023796D01*
X178775037Y-85740953D02*
X176512295Y-88003695D01*
X176795138Y-83478211D02*
X178775037Y-85458110D01*
X174249553Y-85740953D02*
X176512295Y-83478211D01*
X178775036Y-85458110D02*
G75*
G02*
X178775037Y-85740953I-141421J-141422D01*
G01*
X176512294Y-83478211D02*
G75*
G02*
X176795138Y-83478211I141422J-141422D01*
G01*
X176512296Y-88003695D02*
G75*
G02*
X176229452Y-88003695I-141422J141422D01*
G01*
X174249554Y-86023796D02*
G75*
G02*
X174249553Y-85740953I141421J141422D01*
G01*
X228925525Y-108667830D02*
X230905424Y-110647729D01*
X230905424Y-110930572D02*
X228642682Y-113193314D01*
X228359839Y-113193314D02*
X226379940Y-111213415D01*
X226379940Y-110930572D02*
X228642682Y-108667830D01*
X226379941Y-111213415D02*
G75*
G02*
X226379940Y-110930572I141421J141422D01*
G01*
X228642681Y-108667830D02*
G75*
G02*
X228925525Y-108667830I141422J-141422D01*
G01*
X230905423Y-110647729D02*
G75*
G02*
X230905424Y-110930572I-141421J-141422D01*
G01*
X228642683Y-113193314D02*
G75*
G02*
X228359839Y-113193314I-141422J141422D01*
G01*
X162395616Y-100827784D02*
X164658358Y-98565042D01*
X164375515Y-103090526D02*
X162395616Y-101110627D01*
X166921100Y-100827784D02*
X164658358Y-103090526D01*
X164941201Y-98565042D02*
X166921100Y-100544941D01*
X164658357Y-98565042D02*
G75*
G02*
X164941201Y-98565042I141422J-141422D01*
G01*
X166921099Y-100544941D02*
G75*
G02*
X166921100Y-100827784I-141421J-141422D01*
G01*
X164658359Y-103090526D02*
G75*
G02*
X164375515Y-103090526I-141422J141422D01*
G01*
X162395617Y-101110627D02*
G75*
G02*
X162395616Y-100827784I141421J141422D01*
G01*
X184581090Y-69414565D02*
X182601191Y-67434666D01*
X185146776Y-64889081D02*
X187126675Y-66868980D01*
X187126675Y-67151823D02*
X184863933Y-69414565D01*
X182601191Y-67151823D02*
X184863933Y-64889081D01*
X184863934Y-69414565D02*
G75*
G02*
X184581090Y-69414565I-141422J141422D01*
G01*
X184863932Y-64889081D02*
G75*
G02*
X185146776Y-64889081I141422J-141422D01*
G01*
X187126674Y-66868980D02*
G75*
G02*
X187126675Y-67151823I-141421J-141422D01*
G01*
X182601192Y-67434666D02*
G75*
G02*
X182601191Y-67151823I141421J141422D01*
G01*
X79801173Y-138929471D02*
X82063915Y-141192213D01*
X79801173Y-143454955D02*
X77538431Y-141192213D01*
X77538431Y-140909370D02*
X79518330Y-138929471D01*
X82063915Y-141475056D02*
X80084016Y-143454955D01*
X79518330Y-138929472D02*
G75*
G02*
X79801173Y-138929471I141422J-141421D01*
G01*
X82063915Y-141192212D02*
G75*
G02*
X82063915Y-141475056I-141422J-141422D01*
G01*
X80084016Y-143454954D02*
G75*
G02*
X79801173Y-143454955I-141422J141421D01*
G01*
X77538431Y-141192214D02*
G75*
G02*
X77538431Y-140909370I141422J141422D01*
G01*
X91008815Y-127438984D02*
X92988714Y-125459085D01*
X93271557Y-125459085D02*
X95534299Y-127721827D01*
X95534299Y-128004670D02*
X93554400Y-129984569D01*
X93271557Y-129984569D02*
X91008815Y-127721827D01*
X91008815Y-127721828D02*
G75*
G02*
X91008815Y-127438984I141422J141422D01*
G01*
X95534299Y-127721826D02*
G75*
G02*
X95534299Y-128004670I-141422J-141422D01*
G01*
X93554400Y-129984568D02*
G75*
G02*
X93271557Y-129984569I-141422J141421D01*
G01*
X92988714Y-125459086D02*
G75*
G02*
X93271557Y-125459085I141422J-141421D01*
G01*
X45478916Y-65205809D02*
X47458815Y-63225910D01*
X47741658Y-63225910D02*
X50004400Y-65488652D01*
X50004400Y-65771495D02*
X48024501Y-67751394D01*
X47741658Y-67751394D02*
X45478916Y-65488652D01*
X45478916Y-65488653D02*
G75*
G02*
X45478916Y-65205809I141422J141422D01*
G01*
X48024501Y-67751393D02*
G75*
G02*
X47741658Y-67751394I-141422J141421D01*
G01*
X50004400Y-65488651D02*
G75*
G02*
X50004400Y-65771495I-141422J-141422D01*
G01*
X47458815Y-63225911D02*
G75*
G02*
X47741658Y-63225910I141422J-141421D01*
G01*
X81417619Y-110372255D02*
X83680361Y-112634997D01*
X81417619Y-114897739D02*
X79154877Y-112634997D01*
X83680361Y-112917840D02*
X81700462Y-114897739D01*
X79154877Y-112352154D02*
X81134776Y-110372255D01*
X81134776Y-110372256D02*
G75*
G02*
X81417619Y-110372255I141422J-141421D01*
G01*
X79154877Y-112634998D02*
G75*
G02*
X79154877Y-112352154I141422J141422D01*
G01*
X83680361Y-112634996D02*
G75*
G02*
X83680361Y-112917840I-141422J-141422D01*
G01*
X81700462Y-114897738D02*
G75*
G02*
X81417619Y-114897739I-141422J141421D01*
G01*
X34271273Y-76696295D02*
X36534015Y-78959037D01*
X36534015Y-79241880D02*
X34554116Y-81221779D01*
X34271273Y-81221779D02*
X32008531Y-78959037D01*
X32008531Y-78676194D02*
X33988430Y-76696295D01*
X36534015Y-78959036D02*
G75*
G02*
X36534015Y-79241880I-141422J-141422D01*
G01*
X32008531Y-78959038D02*
G75*
G02*
X32008531Y-78676194I141422J141422D01*
G01*
X34554116Y-81221778D02*
G75*
G02*
X34271273Y-81221779I-141422J141421D01*
G01*
X33988430Y-76696296D02*
G75*
G02*
X34271273Y-76696295I141422J-141421D01*
G01*
X84273622Y-80292640D02*
X86253521Y-78312741D01*
X86536364Y-82838225D02*
X84273622Y-80575483D01*
X88799106Y-80858326D02*
X86819207Y-82838225D01*
X86536364Y-78312741D02*
X88799106Y-80575483D01*
X86253521Y-78312742D02*
G75*
G02*
X86536364Y-78312741I141422J-141421D01*
G01*
X84273622Y-80575484D02*
G75*
G02*
X84273622Y-80292640I141422J141422D01*
G01*
X88799106Y-80575482D02*
G75*
G02*
X88799106Y-80858326I-141422J-141422D01*
G01*
X86819207Y-82838224D02*
G75*
G02*
X86536364Y-82838225I-141422J141421D01*
G01*
X67947235Y-128368123D02*
X65684493Y-126105381D01*
X65684493Y-125822538D02*
X67664392Y-123842639D01*
X70209977Y-126388224D02*
X68230078Y-128368123D01*
X67947235Y-123842639D02*
X70209977Y-126105381D01*
X65684493Y-126105382D02*
G75*
G02*
X65684493Y-125822538I141422J141422D01*
G01*
X70209977Y-126105380D02*
G75*
G02*
X70209977Y-126388224I-141422J-141422D01*
G01*
X68230078Y-128368122D02*
G75*
G02*
X67947235Y-128368123I-141422J141421D01*
G01*
X67664392Y-123842640D02*
G75*
G02*
X67947235Y-123842639I141422J-141421D01*
G01*
X70803239Y-93763024D02*
X72783138Y-91783125D01*
X73065981Y-91783125D02*
X75328723Y-94045867D01*
X75328723Y-94328710D02*
X73348824Y-96308609D01*
X73065981Y-96308609D02*
X70803239Y-94045867D01*
X73348824Y-96308608D02*
G75*
G02*
X73065981Y-96308609I-141422J141421D01*
G01*
X70803239Y-94045868D02*
G75*
G02*
X70803239Y-93763024I141422J141422D01*
G01*
X72783138Y-91783126D02*
G75*
G02*
X73065981Y-91783125I141422J-141421D01*
G01*
X75328723Y-94045866D02*
G75*
G02*
X75328723Y-94328710I-141422J-141422D01*
G01*
X65684493Y-71941003D02*
X67664392Y-69961104D01*
X67947235Y-74486588D02*
X65684493Y-72223846D01*
X67947235Y-69961104D02*
X70209977Y-72223846D01*
X70209977Y-72506689D02*
X68230078Y-74486588D01*
X65684493Y-72223847D02*
G75*
G02*
X65684493Y-71941003I141422J141422D01*
G01*
X70209977Y-72223845D02*
G75*
G02*
X70209977Y-72506689I-141422J-141422D01*
G01*
X67664392Y-69961105D02*
G75*
G02*
X67947235Y-69961104I141422J-141421D01*
G01*
X68230078Y-74486587D02*
G75*
G02*
X67947235Y-74486588I-141422J141421D01*
G01*
X92625260Y-98881770D02*
X94605159Y-96901871D01*
X94888002Y-101427355D02*
X92625260Y-99164613D01*
X97150744Y-99447456D02*
X95170845Y-101427355D01*
X94888002Y-96901871D02*
X97150744Y-99164613D01*
X97150744Y-99164612D02*
G75*
G02*
X97150744Y-99447456I-141422J-141422D01*
G01*
X95170845Y-101427354D02*
G75*
G02*
X94888002Y-101427355I-141422J141421D01*
G01*
X92625260Y-99164614D02*
G75*
G02*
X92625260Y-98881770I141422J141422D01*
G01*
X94605159Y-96901872D02*
G75*
G02*
X94888002Y-96901871I141422J-141421D01*
G01*
X54476851Y-83431487D02*
X56739593Y-85694229D01*
X54476851Y-87956971D02*
X52214109Y-85694229D01*
X56739593Y-85977072D02*
X54759694Y-87956971D01*
X52214109Y-85411386D02*
X54194008Y-83431487D01*
X54759694Y-87956970D02*
G75*
G02*
X54476851Y-87956971I-141422J141421D01*
G01*
X52214109Y-85694230D02*
G75*
G02*
X52214109Y-85411386I141422J141422D01*
G01*
X54194008Y-83431488D02*
G75*
G02*
X54476851Y-83431487I141422J-141421D01*
G01*
X56739593Y-85694228D02*
G75*
G02*
X56739593Y-85977072I-141422J-141422D01*
G01*
X104479198Y-113968601D02*
X106459097Y-111988702D01*
X106741940Y-111988702D02*
X109004682Y-114251444D01*
X106741940Y-116514186D02*
X104479198Y-114251444D01*
X109004682Y-114534287D02*
X107024783Y-116514186D01*
X109004682Y-114251443D02*
G75*
G02*
X109004682Y-114534287I-141422J-141422D01*
G01*
X106459097Y-111988703D02*
G75*
G02*
X106741940Y-111988702I141422J-141421D01*
G01*
X104479198Y-114251445D02*
G75*
G02*
X104479198Y-113968601I141422J141422D01*
G01*
X107024783Y-116514185D02*
G75*
G02*
X106741940Y-116514186I-141422J141421D01*
G01*
X58949300Y-51735425D02*
X60929199Y-49755526D01*
X61212042Y-54281010D02*
X58949300Y-52018268D01*
X61212042Y-49755526D02*
X63474784Y-52018268D01*
X63474784Y-52301111D02*
X61494885Y-54281010D01*
X58949300Y-52018269D02*
G75*
G02*
X58949300Y-51735425I141422J141422D01*
G01*
X61494885Y-54281009D02*
G75*
G02*
X61212042Y-54281010I-141422J141421D01*
G01*
X63474784Y-52018267D02*
G75*
G02*
X63474784Y-52301111I-141422J-141422D01*
G01*
X60929199Y-49755527D02*
G75*
G02*
X61212042Y-49755526I141422J-141421D01*
G01*
X83680361Y-59036303D02*
X81700462Y-61016202D01*
X79154877Y-58470617D02*
X81134776Y-56490718D01*
X81417619Y-56490718D02*
X83680361Y-58753460D01*
X81417619Y-61016202D02*
X79154877Y-58753460D01*
X79154877Y-58753461D02*
G75*
G02*
X79154877Y-58470617I141422J141422D01*
G01*
X83680361Y-58753459D02*
G75*
G02*
X83680361Y-59036303I-141422J-141422D01*
G01*
X81700462Y-61016201D02*
G75*
G02*
X81417619Y-61016202I-141422J141421D01*
G01*
X81134776Y-56490719D02*
G75*
G02*
X81417619Y-56490718I141422J-141421D01*
G01*
X108358386Y-87956971D02*
X106095644Y-85694229D01*
X110621128Y-85977072D02*
X108641229Y-87956971D01*
X108358386Y-83431487D02*
X110621128Y-85694229D01*
X106095644Y-85411386D02*
X108075543Y-83431487D01*
X106095644Y-85694230D02*
G75*
G02*
X106095644Y-85411386I141422J141422D01*
G01*
X108075543Y-83431488D02*
G75*
G02*
X108358386Y-83431487I141422J-141421D01*
G01*
X108641229Y-87956970D02*
G75*
G02*
X108358386Y-87956971I-141422J141421D01*
G01*
X110621128Y-85694228D02*
G75*
G02*
X110621128Y-85977072I-141422J-141422D01*
G01*
X56228000Y-108621105D02*
X58490742Y-110883847D01*
X58490742Y-111166690D02*
X56510843Y-113146589D01*
X56228000Y-113146589D02*
X53965258Y-110883847D01*
X53965258Y-110601004D02*
X55945157Y-108621105D01*
X56510843Y-113146588D02*
G75*
G02*
X56228000Y-113146589I-141422J141421D01*
G01*
X55945157Y-108621106D02*
G75*
G02*
X56228000Y-108621105I141422J-141421D01*
G01*
X58490742Y-110883846D02*
G75*
G02*
X58490742Y-111166690I-141422J-141422D01*
G01*
X53965258Y-110883848D02*
G75*
G02*
X53965258Y-110601004I141422J141422D01*
G01*
X117949584Y-100498216D02*
X119929483Y-98518317D01*
X122475068Y-101063902D02*
X120495169Y-103043801D01*
X120212326Y-98518317D02*
X122475068Y-100781059D01*
X120212326Y-103043801D02*
X117949584Y-100781059D01*
X117949584Y-100781060D02*
G75*
G02*
X117949584Y-100498216I141422J141422D01*
G01*
X119929483Y-98518318D02*
G75*
G02*
X120212326Y-98518317I141422J-141421D01*
G01*
X120495169Y-103043800D02*
G75*
G02*
X120212326Y-103043801I-141422J141421D01*
G01*
X122475068Y-100781058D02*
G75*
G02*
X122475068Y-101063902I-141422J-141422D01*
G01*
X100006748Y-69367841D02*
X97744006Y-67105099D01*
X102269490Y-67387942D02*
X100289591Y-69367841D01*
X100006748Y-64842357D02*
X102269490Y-67105099D01*
X97744006Y-66822256D02*
X99723905Y-64842357D01*
X99723905Y-64842358D02*
G75*
G02*
X100006748Y-64842357I141422J-141421D01*
G01*
X102269490Y-67105098D02*
G75*
G02*
X102269490Y-67387942I-141422J-141422D01*
G01*
X100289591Y-69367840D02*
G75*
G02*
X100006748Y-69367841I-141422J141421D01*
G01*
X97744006Y-67105100D02*
G75*
G02*
X97744006Y-66822256I141422J141422D01*
G01*
M02*
