M48
; DRILL file {KiCad (5.99.0-11349-g4025603a1f)} date Tue Jun 14 13:33:13 2022
; FORMAT={-:-/ absolute / metric / decimal}
; #@! TF.CreationDate,2022-06-14T13:33:13-04:00
; #@! TF.GenerationSoftware,Kicad,Pcbnew,(5.99.0-11349-g4025603a1f)
; #@! TF.FileFunction,Plated,1,2,PTH
FMAT,2
METRIC
; #@! TA.AperFunction,Plated,PTH,ViaDrill
T1C0.400
; #@! TA.AperFunction,Plated,PTH,ComponentDrill
T2C0.400
; #@! TA.AperFunction,Plated,PTH,ComponentDrill
T3C0.762
; #@! TA.AperFunction,Plated,PTH,ComponentDrill
T4C1.092
; #@! TA.AperFunction,Plated,PTH,ComponentDrill
T5C1.200
; #@! TA.AperFunction,Plated,PTH,ComponentDrill
T6C1.500
; #@! TA.AperFunction,Plated,PTH,ComponentDrill
T7C1.513
; #@! TA.AperFunction,Plated,PTH,ComponentDrill
T8C1.700
; #@! TA.AperFunction,Plated,PTH,ComponentDrill
T9C1.702
; #@! TA.AperFunction,Plated,PTH,ComponentDrill
T10C3.988
%
G90
G05
T1
X29.54Y-76.295
X37.12Y-83.865
X39.18Y-84.708
X42.213Y-63.432
X42.85Y-62.565
X46.83Y-79.165
X47.71Y-82.385
X49.57Y-83.075
X50.99Y-72.137
X51.123Y-70.772
X51.35Y-107.845
X52.408Y-71.237
X53.12Y-67.015
X56.35Y-49.265
X57.26Y-90.585
X58.95Y-115.775
X59.094Y-91.443
X60.637Y-65.992
X62.99Y-67.315
X63.07Y-69.605
X63.2Y-123.355
X63.98Y-56.835
X67.471Y-89.745
X68.16Y-91.435
X68.57Y-88.115
X69.855Y-110.935
X70.86Y-131.095
X71.22Y-77.555
X71.434Y-79.148
X72.565Y-77.973
X72.69Y-131.915
X74.97Y-138.415
X75.367Y-104.072
X75.76Y-98.865
X76.42Y-109.875
X76.49Y-53.745
X76.57Y-56.175
X76.987Y-106.379
X77.351Y-49.776
X77.73Y-52.085
X77.98Y-106.254
X81.324Y-75.389
X81.72Y-78.025
X82.26Y-145.885
X82.67Y-117.365
X83.77Y-64.565
X84.14Y-63.535
X84.16Y-117.695
X85.105Y-121.325
X85.822Y-94.247
X86.035Y-64.502
X86.035Y-118.384
X86.332Y-92.462
X87.533Y-90.625
X88.33Y-125.125
X88.928Y-121.842
X89.7Y-86.025
X90.01Y-96.545
X90.11Y-121.855
X90.94Y-93.315
X92.7Y-134.925
X94.31Y-63.385
X95.17Y-64.574
X95.84Y-133.815
X95.93Y-132.635
X96.302Y-60.501
X98.11Y-104.595
X98.88Y-106.505
X99.01Y-132.605
X99.505Y-104.913
X100.466Y-80.504
X100.931Y-77.479
X101.905Y-111.72
X101.97Y-109.125
X102.71Y-71.995
X103.522Y-83.163
X104.22Y-79.991
X104.653Y-79.09
X104.97Y-132.045
X109.25Y-119.015
X110.618Y-125.243
X110.975Y-69.877
X111.3Y-90.385
X111.359Y-120.0
X112.63Y-61.585
X112.81Y-116.685
X112.976Y-91.443
X113.923Y-60.886
X113.934Y-59.872
X113.94Y-57.872
X113.941Y-58.872
X113.95Y-63.885
X113.95Y-62.885
X113.951Y-64.885
X113.961Y-61.886
X115.376Y-98.25
X115.82Y-95.295
X116.507Y-94.177
X118.92Y-95.565
X123.06Y-105.525
X123.93Y-106.815
X126.499Y-103.136
X128.05Y-90.385
X129.078Y-90.387
X133.267Y-96.872
X134.52Y-102.995
X157.555Y-103.936
X158.82Y-83.043
X159.484Y-82.295
X160.149Y-81.548
X160.85Y-80.835
X161.55Y-80.085
X162.01Y-105.845
X162.78Y-106.485
X169.47Y-98.095
X169.908Y-89.446
X170.407Y-96.21
X171.33Y-97.445
X171.93Y-91.355
X172.071Y-96.326
X172.09Y-119.175
X173.35Y-94.625
X173.981Y-90.578
X174.3Y-73.105
X175.48Y-119.005
X178.298Y-70.986
X178.86Y-101.495
X179.33Y-71.415
X179.667Y-108.813
X179.86Y-131.975
X181.33Y-83.065
X182.261Y-81.124
X182.332Y-71.988
X182.54Y-83.105
X183.49Y-111.045
X183.49Y-131.675
X183.878Y-109.681
X184.94Y-110.915
X185.87Y-130.475
X187.451Y-104.048
X188.73Y-136.745
X188.95Y-132.545
X189.83Y-64.365
X190.32Y-134.845
X190.66Y-62.505
X191.488Y-93.923
X192.34Y-115.035
X195.31Y-96.105
X195.731Y-94.594
X195.803Y-85.459
X196.301Y-126.503
X196.47Y-124.805
X196.66Y-95.875
X196.87Y-116.575
X197.176Y-62.259
X197.348Y-123.151
X197.71Y-119.145
X197.82Y-63.235
X200.922Y-63.637
X200.922Y-117.518
X202.13Y-146.375
X203.729Y-126.446
X203.76Y-77.405
X204.79Y-103.045
X205.1Y-97.665
X206.475Y-103.845
X207.14Y-100.595
X208.155Y-111.416
X208.28Y-109.925
X208.29Y-56.105
X209.202Y-108.064
X209.273Y-98.929
X209.786Y-138.799
X210.83Y-136.655
X214.31Y-131.005
X214.32Y-77.105
X216.6Y-91.195
X217.054Y-55.77
X218.26Y-56.445
X218.74Y-61.285
X221.127Y-56.902
X221.64Y-123.713
X222.01Y-69.475
X222.611Y-124.926
X222.672Y-121.535
X223.76Y-89.315
X225.13Y-90.405
X226.111Y-115.767
X227.413Y-45.468
X227.862Y-90.578
X228.63Y-49.215
X230.13Y-73.805
X232.27Y-74.235
X233.225Y-106.391
X234.52Y-70.425
X235.11Y-83.105
X241.99Y-62.515
X243.93Y-82.615
X244.74Y-83.385
X244.89Y-84.615
X248.068Y-83.842
X255.31Y-76.315
T2
X30.693Y-76.258
X36.987Y-82.551
X44.164Y-62.788
X50.457Y-69.081
X50.899Y-82.993
X52.65Y-108.183
X57.192Y-89.286
X57.634Y-49.317
X58.943Y-114.476
X63.927Y-55.61
X64.369Y-69.523
X64.369Y-123.404
X69.488Y-91.345
X70.663Y-75.816
X70.663Y-129.697
X75.781Y-97.638
X76.223Y-138.491
X77.84Y-56.052
X77.84Y-109.934
X82.516Y-144.784
X82.958Y-77.874
X84.133Y-62.346
X84.133Y-116.227
X89.252Y-84.168
X89.694Y-125.021
X91.31Y-96.463
X95.987Y-131.314
X96.429Y-64.404
X97.603Y-102.757
X102.722Y-70.697
X103.164Y-111.55
X104.78Y-82.993
X109.457Y-117.844
X111.074Y-89.286
X116.634Y-98.08
X122.928Y-104.373
X161.957Y-104.406
X168.25Y-98.112
X173.811Y-89.319
X175.428Y-117.876
X180.104Y-83.026
X181.721Y-111.583
X182.163Y-70.73
X187.282Y-102.789
X188.456Y-64.437
X188.898Y-131.347
X193.575Y-96.496
X195.191Y-125.053
X195.633Y-84.2
X200.752Y-62.378
X200.752Y-116.26
X201.926Y-77.907
X202.368Y-144.817
X207.045Y-56.085
X207.045Y-109.966
X208.662Y-138.524
X209.104Y-97.671
X214.222Y-129.73
X214.222Y-75.849
X215.397Y-91.377
X220.516Y-123.437
X220.516Y-69.555
X220.957Y-55.643
X225.942Y-114.509
X227.251Y-49.35
X227.693Y-89.319
X232.235Y-108.215
X233.986Y-83.026
X234.428Y-69.113
X240.721Y-62.82
X247.898Y-82.584
X254.192Y-76.29
T3
X40.909Y-66.954
X42.806Y-65.051
X46.297Y-72.342
X48.194Y-70.439
X56.099Y-51.757
X61.086Y-73.661
X61.487Y-57.145
X62.989Y-71.764
X64.95Y-92.265
X64.95Y-99.885
X66.474Y-79.049
X68.056Y-95.26
X68.056Y-102.88
X68.377Y-77.152
X71.08Y-98.275
X71.08Y-105.895
X76.039Y-58.687
X79.646Y-81.991
X81.428Y-64.075
X81.526Y-80.051
X85.034Y-87.379
X86.914Y-85.439
X88.036Y-100.601
X89.946Y-98.701
X93.424Y-105.989
X94.566Y-67.031
X95.334Y-104.089
X99.906Y-115.711
X99.954Y-72.419
X101.836Y-113.831
X102.909Y-85.557
X105.294Y-121.099
X107.224Y-119.219
X108.298Y-90.945
X114.789Y-100.689
X120.177Y-106.077
X164.39Y-106.004
X169.778Y-100.616
X176.34Y-90.801
X177.656Y-119.259
X179.546Y-121.169
X181.728Y-85.413
X183.044Y-113.871
X184.613Y-72.346
X184.934Y-115.781
X189.556Y-104.129
X190.001Y-66.957
X191.466Y-106.019
X194.944Y-98.741
X196.854Y-100.631
X197.846Y-85.589
X199.766Y-87.479
X203.139Y-64.002
X203.234Y-80.201
X205.154Y-82.091
X208.527Y-58.614
X213.84Y-98.345
X213.84Y-105.965
X216.576Y-77.139
X216.84Y-95.385
X216.84Y-103.005
X218.496Y-79.059
X219.87Y-92.335
X219.87Y-99.955
X221.964Y-71.751
X223.433Y-57.284
X223.884Y-73.671
X228.821Y-51.896
X236.593Y-70.472
X238.546Y-72.399
X241.981Y-65.084
X243.934Y-67.011
T4
X128.185Y-68.11
X129.82Y-66.152
X129.82Y-69.745
X131.616Y-64.356
X131.616Y-71.541
X133.412Y-62.56
X133.412Y-73.337
X135.208Y-60.764
X135.208Y-75.133
X137.004Y-58.968
X137.004Y-76.929
X138.8Y-57.172
X138.8Y-78.725
X140.596Y-55.376
X140.596Y-76.929
X142.392Y-53.58
X142.392Y-75.133
X144.188Y-51.784
X144.188Y-73.337
X145.984Y-49.988
X145.984Y-71.541
X147.78Y-48.192
X147.78Y-69.745
X149.576Y-67.948
X151.372Y-66.152
X153.168Y-64.356
X154.964Y-62.56
X156.76Y-60.764
X158.556Y-58.968
T5
X36.774Y-69.243
X41.689Y-71.556
X43.987Y-76.456
X50.245Y-55.773
X55.159Y-58.085
X56.98Y-75.979
X57.457Y-62.985
X58.731Y-101.168
X61.894Y-78.291
X63.646Y-103.48
X63.715Y-42.303
X64.192Y-83.191
X65.944Y-108.381
X68.63Y-44.615
X70.45Y-62.508
X70.45Y-116.39
X70.928Y-49.515
X75.365Y-64.82
X75.365Y-118.702
X75.569Y-84.33
X77.663Y-69.721
X77.663Y-123.602
X80.484Y-86.642
X82.304Y-131.477
X82.782Y-91.543
X83.921Y-49.038
X83.921Y-102.919
X87.219Y-133.789
X88.835Y-51.35
X88.835Y-105.232
X89.04Y-70.86
X89.517Y-138.689
X91.133Y-56.25
X91.133Y-110.132
X93.954Y-73.172
X95.775Y-118.006
X96.252Y-78.072
X97.391Y-89.449
X100.689Y-120.318
X102.306Y-91.761
X102.51Y-57.389
X102.987Y-125.219
X104.604Y-96.661
X107.424Y-59.702
X109.245Y-104.536
X109.722Y-64.602
X110.862Y-75.979
X114.159Y-106.848
X115.776Y-78.291
X116.458Y-111.748
X118.074Y-83.191
X122.715Y-91.065
X127.63Y-93.378
X129.928Y-98.278
X154.943Y-98.325
X157.255Y-93.41
X162.155Y-91.112
X166.797Y-83.238
X168.413Y-111.795
X169.109Y-78.323
X170.725Y-106.881
X174.009Y-76.025
X175.148Y-64.649
X175.626Y-104.583
X177.461Y-59.734
X180.267Y-96.708
X181.883Y-125.265
X182.361Y-57.436
X182.579Y-91.794
X184.196Y-120.351
X187.48Y-89.496
X188.619Y-78.119
X189.096Y-118.053
X190.931Y-73.205
X193.737Y-56.297
X193.737Y-110.179
X195.354Y-138.736
X195.831Y-70.907
X196.05Y-51.383
X196.05Y-105.264
X197.666Y-133.821
X200.95Y-49.085
X200.95Y-102.966
X202.089Y-91.589
X202.566Y-131.523
X204.401Y-86.675
X207.208Y-123.649
X207.208Y-69.767
X209.302Y-84.377
X209.52Y-118.735
X209.52Y-64.853
X213.943Y-49.562
X214.42Y-116.436
X214.42Y-62.555
X216.255Y-44.647
X218.927Y-108.427
X220.678Y-83.238
X221.155Y-42.349
X221.239Y-103.513
X222.99Y-78.323
X226.14Y-101.215
X227.413Y-63.032
X227.891Y-76.025
X229.726Y-58.118
X234.626Y-55.82
X240.884Y-76.503
X243.196Y-71.588
X248.096Y-69.29
T6
X36.725Y-71.117
X42.113Y-76.505
X50.195Y-57.647
X55.583Y-63.035
X56.931Y-77.852
X58.682Y-103.042
X62.319Y-83.241
X63.666Y-44.176
X64.07Y-108.43
X69.054Y-49.565
X70.401Y-64.382
X70.401Y-118.264
X75.52Y-86.204
X75.789Y-69.77
X75.789Y-123.652
X80.908Y-91.592
X82.255Y-133.35
X83.871Y-50.912
X83.871Y-104.793
X87.643Y-138.739
X88.99Y-72.734
X89.259Y-56.3
X89.259Y-110.181
X94.378Y-78.122
X95.725Y-119.88
X97.342Y-91.323
X101.113Y-125.268
X102.46Y-59.263
X102.73Y-96.711
X107.849Y-64.651
X109.196Y-106.41
X110.812Y-77.852
X114.584Y-111.798
X116.2Y-83.241
X122.666Y-92.939
X128.054Y-98.327
X156.817Y-98.374
X162.205Y-92.986
X168.67Y-83.287
X170.287Y-111.845
X174.059Y-77.899
X175.675Y-106.456
X177.022Y-64.698
X182.141Y-96.758
X182.41Y-59.31
X183.757Y-125.315
X187.529Y-91.37
X189.145Y-119.927
X190.493Y-78.169
X195.611Y-56.347
X195.611Y-110.228
X195.881Y-72.78
X197.228Y-138.785
X200.999Y-50.958
X200.999Y-104.84
X202.616Y-133.397
X203.963Y-91.639
X209.082Y-123.698
X209.082Y-69.817
X209.351Y-86.251
X214.47Y-118.31
X214.47Y-64.429
X215.817Y-49.611
X220.801Y-108.477
X221.205Y-44.223
X222.552Y-83.287
X226.189Y-103.089
X227.94Y-77.899
X229.287Y-63.082
X234.675Y-57.694
X242.758Y-76.552
X248.146Y-71.164
T8
X41.795Y-71.45
X55.265Y-57.979
X62.0Y-78.185
X63.752Y-103.374
X68.736Y-44.509
X75.471Y-64.714
X75.471Y-118.596
X80.59Y-86.536
X87.325Y-133.683
X88.941Y-51.244
X88.941Y-105.126
X94.06Y-73.066
X100.795Y-120.212
X102.412Y-91.655
X107.53Y-59.596
X114.266Y-106.742
X115.882Y-78.185
X127.736Y-93.272
X157.149Y-93.304
X169.003Y-78.217
X170.619Y-106.775
X177.354Y-59.628
X182.473Y-91.688
X184.09Y-120.245
X190.825Y-73.099
X195.944Y-51.277
X195.944Y-105.158
X197.56Y-133.715
X204.295Y-86.569
X209.414Y-118.628
X209.414Y-64.747
X216.149Y-44.541
X221.133Y-103.407
X222.884Y-78.217
X229.62Y-58.012
X243.09Y-71.482
T9
X34.031Y-72.029
X41.215Y-79.214
X47.501Y-58.559
X54.236Y-78.765
X54.685Y-65.743
X55.988Y-103.954
X60.972Y-45.089
X61.421Y-85.949
X63.172Y-111.138
X67.707Y-65.294
X67.707Y-119.176
X68.156Y-52.273
X72.826Y-87.116
X74.891Y-72.478
X74.891Y-126.36
X79.561Y-134.263
X80.01Y-94.3
X81.177Y-51.824
X81.177Y-105.705
X86.296Y-73.646
X86.745Y-141.447
X88.361Y-59.008
X88.361Y-112.89
X93.031Y-120.792
X93.48Y-80.83
X94.648Y-92.235
X99.766Y-60.175
X100.215Y-127.976
X101.832Y-99.419
X106.502Y-107.322
X106.951Y-67.36
X108.118Y-78.765
X113.686Y-114.506
X115.302Y-85.949
X119.972Y-93.851
X127.156Y-101.036
X157.729Y-101.068
X164.913Y-93.884
X169.583Y-85.981
X171.199Y-114.539
X176.767Y-78.797
X177.934Y-67.392
X178.383Y-107.354
X183.053Y-99.452
X184.669Y-128.009
X185.118Y-60.208
X190.237Y-92.268
X191.405Y-80.863
X191.854Y-120.825
X196.523Y-59.041
X196.523Y-112.922
X198.14Y-141.479
X198.589Y-73.678
X203.708Y-51.856
X203.708Y-105.738
X204.875Y-94.333
X205.324Y-134.295
X209.994Y-126.393
X209.994Y-72.511
X212.059Y-87.149
X216.729Y-52.305
X217.178Y-119.208
X217.178Y-65.327
X221.713Y-111.171
X223.464Y-85.981
X223.913Y-45.121
X228.897Y-103.987
X230.199Y-65.776
X230.648Y-78.797
X237.384Y-58.592
X243.67Y-79.246
X250.854Y-72.062
T10
X37.623Y-75.621
X51.093Y-62.151
X57.829Y-82.357
X59.58Y-107.546
X64.564Y-48.681
X71.299Y-68.886
X71.299Y-122.768
X76.418Y-90.708
X83.153Y-137.855
X84.769Y-55.416
X84.769Y-109.297
X89.888Y-77.238
X96.623Y-124.384
X98.24Y-95.827
X103.358Y-63.768
X110.094Y-110.914
X111.71Y-82.357
X123.564Y-97.444
X161.321Y-97.476
X173.175Y-82.389
X174.791Y-110.946
X181.526Y-63.8
X186.645Y-95.86
X188.262Y-124.417
X194.997Y-77.271
X200.116Y-55.448
X200.116Y-109.33
X201.732Y-137.887
X208.467Y-90.741
X213.586Y-122.8
X213.586Y-68.919
X220.321Y-48.713
X225.305Y-107.579
X227.056Y-82.389
X233.791Y-62.184
X247.262Y-75.654
T7
X39.39Y-70.291G85X38.656Y-71.024
G05
X42.953Y-73.855G85X42.22Y-74.588
G05
X52.86Y-56.821G85X52.127Y-57.554
G05
X56.424Y-60.384G85X55.691Y-61.118
G05
X59.595Y-77.026G85X58.862Y-77.759
G05
X61.346Y-102.216G85X60.613Y-102.949
G05
X63.159Y-80.59G85X62.426Y-81.323
G05
X64.91Y-105.78G85X64.177Y-106.513
G05
X66.33Y-43.35G85X65.597Y-44.083
G05
X69.894Y-46.914G85X69.161Y-47.647
G05
X73.066Y-63.556G85X72.332Y-64.289
G05
X73.066Y-117.437G85X72.332Y-118.171
G05
X76.629Y-67.12G85X75.896Y-67.853
G05
X76.629Y-121.001G85X75.896Y-121.734
G05
X78.184Y-85.378G85X77.451Y-86.111
G05
X81.748Y-88.942G85X81.015Y-89.675
G05
X84.92Y-132.524G85X84.186Y-133.257
G05
X86.536Y-50.085G85X85.803Y-50.819
G05
X86.536Y-103.967G85X85.803Y-104.7
G05
X88.483Y-136.088G85X87.75Y-136.821
G05
X90.1Y-53.649G85X89.367Y-54.382
G05
X90.1Y-107.531G85X89.367Y-108.264
G05
X91.655Y-71.907G85X90.921Y-72.641
G05
X95.219Y-75.471G85X94.485Y-76.205
G05
X98.39Y-119.054G85X97.657Y-119.787
G05
X100.006Y-90.497G85X99.273Y-91.23
G05
X101.954Y-122.618G85X101.22Y-123.351
G05
X103.57Y-94.06G85X102.837Y-94.794
G05
X105.125Y-58.437G85X104.392Y-59.17
G05
X108.689Y-62.001G85X107.956Y-62.734
G05
X111.86Y-105.583G85X111.127Y-106.317
G05
X113.477Y-77.026G85X112.744Y-77.759
G05
X115.424Y-109.147G85X114.691Y-109.88
G05
X117.041Y-80.59G85X116.307Y-81.323
G05
X125.331Y-92.113G85X124.597Y-92.846
G05
X128.895Y-95.677G85X128.161Y-96.41
G05
X155.99Y-95.709G85X156.724Y-96.443
G05
X159.554Y-92.146G85X160.287Y-92.879
G05
X167.844Y-80.623G85X168.577Y-81.356
G05
X169.461Y-109.18G85X170.194Y-109.913
G05
X171.408Y-77.059G85X172.141Y-77.792
G05
X173.024Y-105.616G85X173.758Y-106.349
G05
X176.196Y-62.033G85X176.929Y-62.767
G05
X179.76Y-58.47G85X180.493Y-59.203
G05
X181.315Y-94.093G85X182.048Y-94.826
G05
X182.931Y-122.65G85X183.664Y-123.383
G05
X184.878Y-90.529G85X185.612Y-91.262
G05
X186.495Y-119.086G85X187.228Y-119.82
G05
X189.666Y-75.504G85X190.4Y-76.237
G05
X193.23Y-71.94G85X193.963Y-72.673
G05
X194.785Y-53.682G85X195.518Y-54.415
G05
X194.785Y-107.563G85X195.518Y-108.297
G05
X196.401Y-136.121G85X197.135Y-136.854
G05
X198.349Y-50.118G85X199.082Y-50.851
G05
X198.349Y-104.0G85X199.082Y-104.733
G05
X199.965Y-132.557G85X200.699Y-133.29
G05
X203.137Y-88.974G85X203.87Y-89.707
G05
X206.7Y-85.41G85X207.434Y-86.144
G05
X208.255Y-121.034G85X208.989Y-121.767
G05
X208.255Y-67.152G85X208.989Y-67.885
G05
X211.819Y-117.47G85X212.552Y-118.203
G05
X211.819Y-63.588G85X212.552Y-64.322
G05
X214.991Y-46.947G85X215.724Y-47.68
G05
X218.554Y-43.383G85X219.288Y-44.116
G05
X219.975Y-105.812G85X220.708Y-106.545
G05
X221.726Y-80.623G85X222.459Y-81.356
G05
X223.538Y-102.248G85X224.272Y-102.982
G05
X225.29Y-77.059G85X226.023Y-77.792
G05
X228.461Y-60.417G85X229.194Y-61.15
G05
X232.025Y-56.853G85X232.758Y-57.586
G05
X241.931Y-73.887G85X242.665Y-74.621
G05
X245.495Y-70.324G85X246.228Y-71.057
G05
T0
M30
