G04 #@! TF.GenerationSoftware,KiCad,Pcbnew,(5.99.0-11349-g4025603a1f)*
G04 #@! TF.CreationDate,2022-06-14T13:32:38-04:00*
G04 #@! TF.ProjectId,eek,65656b2e-6b69-4636-9164-5f7063625858,rev?*
G04 #@! TF.SameCoordinates,Original*
G04 #@! TF.FileFunction,Legend,Bot*
G04 #@! TF.FilePolarity,Positive*
%FSLAX46Y46*%
G04 Gerber Fmt 4.6, Leading zero omitted, Abs format (unit mm)*
G04 Created by KiCad (PCBNEW (5.99.0-11349-g4025603a1f)) date 2022-06-14 13:32:38*
%MOMM*%
%LPD*%
G01*
G04 APERTURE LIST*
G04 Aperture macros list*
%AMRotRect*
0 Rectangle, with rotation*
0 The origin of the aperture is its center*
0 $1 length*
0 $2 width*
0 $3 Rotation angle, in degrees counterclockwise*
0 Add horizontal line*
21,1,$1,$2,0,0,$3*%
G04 Aperture macros list end*
%ADD10C,0.750000*%
%ADD11C,0.150000*%
%ADD12C,1.000000*%
%ADD13C,0.120000*%
%ADD14RotRect,1.752600X1.752600X225.000000*%
%ADD15C,1.752600*%
G04 APERTURE END LIST*
D10*
X246819882Y-69073418D02*
X245968851Y-69104841D01*
X245112966Y-69176648D01*
X244253952Y-69286919D01*
X243393536Y-69433736D01*
X242533443Y-69615182D01*
X241675401Y-69829337D01*
X240821136Y-70074283D01*
X239972373Y-70348102D01*
X239130840Y-70648875D01*
X238298263Y-70974684D01*
X237476367Y-71323610D01*
X236666880Y-71693736D01*
X235871527Y-72083142D01*
X235092036Y-72489910D01*
X234330132Y-72912123D01*
X233587541Y-73347861D01*
X232865990Y-73795206D01*
X232167206Y-74252240D01*
X231492915Y-74717044D01*
X230844842Y-75187700D01*
X230224715Y-75662290D01*
X229634259Y-76138895D01*
X228549268Y-77090477D01*
X227603680Y-78027098D01*
X226811306Y-78933412D01*
X226185955Y-79794072D01*
X225741440Y-80593730D01*
X132904048Y-55868595D02*
X132321242Y-56108603D01*
X138461072Y-47326111D02*
X139154711Y-47000976D01*
X139841711Y-46672398D01*
X140518710Y-46344177D01*
X141508103Y-45860825D01*
X142456081Y-45399645D01*
X143351298Y-44973459D01*
X144182407Y-44595089D01*
X144938060Y-44277356D01*
X145808611Y-43970198D01*
X146638817Y-43816200D01*
X146879852Y-43838330D01*
X86275337Y-117104297D02*
X87065801Y-116470199D01*
X87885889Y-115856911D01*
X88555798Y-115381511D01*
X89312550Y-114869941D01*
X90146109Y-114336827D01*
X91046442Y-113796795D01*
X92003517Y-113264470D01*
X93007299Y-112754478D01*
X94047755Y-112281446D01*
X95114851Y-111859999D01*
X96198553Y-111504762D01*
X97288829Y-111230363D01*
X98375645Y-111051425D01*
X99448967Y-110982577D01*
X228573349Y-62593491D02*
X229284176Y-62846987D01*
X230111414Y-63065768D01*
X231134388Y-63307244D01*
X231900063Y-63480005D01*
X232715156Y-63661605D01*
X233564638Y-63851546D01*
X234433478Y-64049329D01*
X235306645Y-64254455D01*
X236169110Y-64466426D01*
X237005842Y-64684743D01*
X237801811Y-64908906D01*
X238541987Y-65138417D01*
X239514760Y-65491621D01*
X239794839Y-65611490D01*
X89120442Y-106165033D02*
X88637082Y-106946385D01*
X88260797Y-107636654D01*
X87903898Y-108366636D01*
X87575748Y-109119503D01*
X87285705Y-109878426D01*
X87043131Y-110626576D01*
X86820925Y-111520979D01*
X86761001Y-111859303D01*
X179969099Y-58386516D02*
X179282013Y-58732874D01*
X178663191Y-59249851D01*
X178567899Y-59807912D01*
X104745162Y-70728768D02*
X104245465Y-71534271D01*
X103853899Y-72196472D01*
X103387724Y-72998274D01*
X102861838Y-73914654D01*
X102291144Y-74920587D01*
X101690542Y-75991051D01*
X101074932Y-77101020D01*
X100459216Y-78225472D01*
X99858293Y-79339382D01*
X99287066Y-80417728D01*
X98760434Y-81435484D01*
X98293298Y-82367627D01*
X97900559Y-83189134D01*
X97483541Y-84159211D01*
X97397876Y-84400143D01*
X225741440Y-80593730D02*
X225415728Y-81367136D01*
X225135346Y-82153491D01*
X224896940Y-82944124D01*
X224697153Y-83730361D01*
X224532631Y-84503533D01*
X224400017Y-85254967D01*
X224253588Y-86322390D01*
X224160081Y-87292125D01*
X224108172Y-88134906D01*
X224084097Y-89010545D01*
X224090738Y-89665973D01*
X127499474Y-54868653D02*
X128080127Y-54327151D01*
X128686452Y-53786305D01*
X129315931Y-53247975D01*
X129966047Y-52714024D01*
X130634284Y-52186315D01*
X131318126Y-51666710D01*
X132015054Y-51157071D01*
X132722553Y-50659261D01*
X133438106Y-50175143D01*
X134159196Y-49706578D01*
X134883306Y-49255429D01*
X135607919Y-48823559D01*
X136330519Y-48412829D01*
X137048589Y-48025103D01*
X137759612Y-47662243D01*
X138461072Y-47326111D01*
X168297015Y-115567872D02*
X167934057Y-114499940D01*
X167552061Y-113747356D01*
X167071775Y-112973030D01*
X166504968Y-112186188D01*
X165863409Y-111396057D01*
X165158867Y-110611861D01*
X164403109Y-109842826D01*
X163607906Y-109098177D01*
X162785026Y-108387142D01*
X161946237Y-107718944D01*
X161103308Y-107102809D01*
X160268007Y-106547964D01*
X159452105Y-106063634D01*
X158667368Y-105659044D01*
X157925566Y-105343420D01*
X157574444Y-105221854D01*
X128519994Y-58173779D02*
X129102800Y-58413787D01*
X109901323Y-65454036D02*
X109679572Y-64690534D01*
X109483540Y-63879197D01*
X109305272Y-63051835D01*
X109136814Y-62240260D01*
X108970211Y-61476285D01*
X108752447Y-60636715D01*
X108456677Y-59880499D01*
X108401988Y-59788072D01*
X223886529Y-89891281D02*
X222997080Y-89233584D01*
X222114312Y-88584590D01*
X221238538Y-87944551D01*
X220370070Y-87313721D01*
X219509219Y-86692354D01*
X218656297Y-86080702D01*
X217811617Y-85479019D01*
X216975490Y-84887559D01*
X216148229Y-84306574D01*
X215330146Y-83736319D01*
X214521553Y-83177046D01*
X213722761Y-82629010D01*
X212934083Y-82092463D01*
X212155831Y-81567659D01*
X211388317Y-81054851D01*
X210631853Y-80554292D01*
X209886751Y-80066237D01*
X209153323Y-79590938D01*
X208431882Y-79128650D01*
X207722738Y-78679624D01*
X207026205Y-78244115D01*
X206342594Y-77822376D01*
X205672217Y-77414660D01*
X205015387Y-77021222D01*
X203743613Y-76278189D01*
X202529770Y-75595304D01*
X201376353Y-74974594D01*
X200285860Y-74418088D01*
X105767689Y-56482896D02*
X104950789Y-56564673D01*
X104492939Y-57201043D01*
X104160870Y-57921168D01*
X104128769Y-58586670D01*
X136249321Y-112516260D02*
X136143010Y-111736250D01*
X136638087Y-111155581D01*
X163081715Y-60710258D02*
X163095675Y-61519116D01*
X162852101Y-62452299D01*
X162588377Y-63194051D01*
X162255793Y-64009193D01*
X161864821Y-64878596D01*
X161425929Y-65783134D01*
X160949587Y-66703678D01*
X160446265Y-67621101D01*
X159926434Y-68516276D01*
X159400562Y-69370075D01*
X158879120Y-70163371D01*
X158372577Y-70877037D01*
X157891403Y-71491944D01*
X157240112Y-72187292D01*
X136516597Y-112042453D02*
X136901472Y-112730624D01*
X137318426Y-113269495D01*
X174196544Y-65253886D02*
X174418294Y-64490384D01*
X174614326Y-63679046D01*
X174792593Y-62851684D01*
X174961052Y-62040109D01*
X175127655Y-61276133D01*
X175345418Y-60436563D01*
X175641188Y-59680346D01*
X175695878Y-59587919D01*
X85103875Y-116434730D02*
X85100597Y-117194744D01*
X85062824Y-118121808D01*
X85025167Y-119011018D01*
X85027845Y-119849144D01*
X85111072Y-120622957D01*
X85373896Y-121448011D01*
X85512161Y-121694264D01*
X173806385Y-80958752D02*
X173930789Y-81721100D01*
X174006898Y-82474442D01*
X174067042Y-83339474D01*
X174110115Y-84276642D01*
X174135010Y-85246388D01*
X174140623Y-86209159D01*
X174125847Y-87125398D01*
X174089577Y-87955551D01*
X174005872Y-88860141D01*
X173915151Y-89335598D01*
X149118268Y-109580390D02*
X148393755Y-109313852D01*
X148158502Y-109240219D01*
X137597843Y-109624815D02*
X138253885Y-109624815D01*
X147769728Y-110455113D02*
X148207089Y-110552305D01*
X197336886Y-111659172D02*
X197459464Y-112593385D01*
X197549013Y-113441199D01*
X197629016Y-114312467D01*
X197697647Y-115146423D01*
X197764660Y-116043826D01*
X197817041Y-116816767D01*
X197822551Y-116904168D01*
X55593798Y-94913871D02*
X56188456Y-94307016D01*
X56857390Y-93717820D01*
X57450589Y-93224458D01*
X58088216Y-92716958D01*
X58739674Y-92222299D01*
X59374366Y-91767460D01*
X60141656Y-91269577D01*
X60871867Y-90911638D01*
X60976057Y-90885298D01*
X173166111Y-93052455D02*
X173091845Y-94231371D01*
X172984074Y-95245359D01*
X172832667Y-96416701D01*
X172640171Y-97723897D01*
X172409133Y-99145451D01*
X172279957Y-99892394D01*
X172142100Y-100659863D01*
X171995882Y-101445173D01*
X171841619Y-102245635D01*
X171679632Y-103058563D01*
X171510238Y-103881269D01*
X171333755Y-104711066D01*
X171150502Y-105545267D01*
X170960798Y-106381183D01*
X170764961Y-107216129D01*
X170563308Y-108047416D01*
X170356159Y-108872357D01*
X170143832Y-109688266D01*
X169926646Y-110492454D01*
X169704918Y-111282235D01*
X169478967Y-112054921D01*
X169249111Y-112807824D01*
X169015670Y-113538259D01*
X168539302Y-114920969D01*
X168297013Y-115567872D01*
X109901323Y-65454036D02*
X109679572Y-64690534D01*
X109483540Y-63879197D01*
X109305272Y-63051835D01*
X109136814Y-62240260D01*
X108970211Y-61476285D01*
X108752447Y-60636715D01*
X108456677Y-59880499D01*
X108401988Y-59788072D01*
X220554617Y-59978756D02*
X221393298Y-60261266D01*
X222177099Y-60518699D01*
X222908137Y-60753024D01*
X223910393Y-61065497D01*
X224805840Y-61337069D01*
X225601621Y-61574393D01*
X226519975Y-61849049D01*
X227290783Y-62090419D01*
X228072603Y-62369350D01*
X228573349Y-62593491D01*
X132321242Y-54469723D02*
X132904047Y-54709731D01*
X248564684Y-67880265D02*
X249506981Y-68378095D01*
X250409855Y-68885190D01*
X251261672Y-69388835D01*
X252050804Y-69876311D01*
X252765618Y-70334904D01*
X253394484Y-70751895D01*
X254079172Y-71221192D01*
X254720634Y-71678140D01*
X254851023Y-71774149D01*
X156455814Y-92302959D02*
X157372505Y-92389893D01*
X158257658Y-92420718D01*
X159095543Y-92380278D01*
X159870432Y-92253420D01*
X160695000Y-91965780D01*
X161379025Y-91505688D01*
X146213231Y-107309312D02*
X146703047Y-106729256D01*
X147144869Y-106079489D01*
X147534440Y-105365990D01*
X147867501Y-104594739D01*
X148139797Y-103771715D01*
X148347070Y-102902900D01*
X148485064Y-101994272D01*
X148549523Y-101051813D01*
X73263370Y-82116207D02*
X72603822Y-82537881D01*
X71966118Y-82960181D01*
X71198260Y-83475837D01*
X70324463Y-84068058D01*
X69368941Y-84720052D01*
X68355908Y-85415027D01*
X67309579Y-86136192D01*
X66254168Y-86866755D01*
X65213890Y-87589925D01*
X64212959Y-88288909D01*
X63275590Y-88946915D01*
X62425997Y-89547153D01*
X61688395Y-90072830D01*
X60844942Y-90684813D01*
X60493255Y-90950626D01*
X188089663Y-70033601D02*
X188591520Y-70754373D01*
X188960213Y-71412831D01*
X189361840Y-72057579D01*
X190051609Y-72405109D01*
X190436920Y-72477132D01*
X96180335Y-88389124D02*
X95588088Y-89210385D01*
X95023886Y-90166239D01*
X94607124Y-90928678D01*
X94168138Y-91768471D01*
X93715743Y-92666067D01*
X93258749Y-93601914D01*
X92805969Y-94556463D01*
X92366214Y-95510162D01*
X91948296Y-96443461D01*
X91561027Y-97336810D01*
X91213219Y-98170656D01*
X90913683Y-98925451D01*
X90574168Y-99866652D01*
X90433867Y-100338281D01*
X110316950Y-60009193D02*
X111180143Y-59992381D01*
X112022781Y-59953897D01*
X112796166Y-59962719D01*
X113495543Y-60188893D01*
X148989384Y-91164366D02*
X149939651Y-91208906D01*
X150776426Y-91263481D01*
X151841762Y-91361117D01*
X152710815Y-91473515D01*
X153625486Y-91638233D01*
X154494726Y-91852372D01*
X155352414Y-92092767D01*
X156105196Y-92253810D01*
X156455814Y-92302959D01*
X198783605Y-116416915D02*
X198026639Y-113726391D01*
X197334141Y-111248080D01*
X196702421Y-108971553D01*
X196127791Y-106886379D01*
X195606561Y-104982130D01*
X195135043Y-103248377D01*
X194709546Y-101674689D01*
X194326382Y-100250638D01*
X193981861Y-98965794D01*
X193672295Y-97809729D01*
X193393995Y-96772011D01*
X193143270Y-95842213D01*
X192916433Y-95009905D01*
X192709794Y-94264657D01*
X192342352Y-92993626D01*
X192011431Y-91945684D01*
X191687519Y-91037398D01*
X191341102Y-90185332D01*
X190942667Y-89306052D01*
X190462701Y-88316122D01*
X189871690Y-87132109D01*
X189525320Y-86441248D01*
X189140122Y-85670577D01*
X188712406Y-84809668D01*
X188238483Y-83848092D01*
X181516470Y-62435189D02*
X182434458Y-62216986D01*
X183239738Y-62027560D01*
X184239526Y-61794496D01*
X185396603Y-61527614D01*
X186673750Y-61236733D01*
X188033749Y-60931674D01*
X189439382Y-60622256D01*
X190853429Y-60318300D01*
X192238674Y-60029625D01*
X193557896Y-59766052D01*
X194773879Y-59537399D01*
X195849403Y-59353488D01*
X196747250Y-59224139D01*
X197679462Y-59153898D01*
X103614536Y-69306896D02*
X103954615Y-68595330D01*
X104145548Y-67842920D01*
X103745792Y-67458319D01*
X136705802Y-101051813D02*
X136772470Y-102005191D01*
X136916102Y-102932835D01*
X137133623Y-103826366D01*
X137421957Y-104677407D01*
X137778030Y-105477583D01*
X138198766Y-106218515D01*
X138681089Y-106891828D01*
X139221926Y-107489144D01*
X127642049Y-92503092D02*
X126725357Y-92590027D01*
X125840205Y-92620851D01*
X125002320Y-92580412D01*
X124227431Y-92453553D01*
X123402864Y-92165913D01*
X122718840Y-91705822D01*
X188238483Y-83848092D02*
X187750461Y-82856245D01*
X187282622Y-81910678D01*
X186834531Y-81010191D01*
X186405756Y-80153582D01*
X185995863Y-79339649D01*
X185604418Y-78567193D01*
X185230990Y-77835012D01*
X184875145Y-77141904D01*
X184214468Y-75868107D01*
X183618924Y-74736192D01*
X183085047Y-73736552D01*
X182609371Y-72859577D01*
X182188430Y-72095660D01*
X181818760Y-71435193D01*
X181352804Y-70617440D01*
X180878630Y-69799496D01*
X180483335Y-69106747D01*
X198585729Y-121494136D02*
X198605559Y-120590238D01*
X198544347Y-119779523D01*
X198392268Y-118906597D01*
X198187278Y-118115952D01*
X197964171Y-117379279D01*
X197822551Y-116904168D01*
X228504102Y-94713724D02*
X227909443Y-94106869D01*
X227240508Y-93517673D01*
X226647309Y-93024311D01*
X226009682Y-92516811D01*
X225358223Y-92022152D01*
X224723530Y-91567312D01*
X223956240Y-91069429D01*
X223226029Y-90711490D01*
X223121840Y-90685150D01*
X182915717Y-55957708D02*
X182150642Y-55842275D01*
X181351905Y-55953705D01*
X180725227Y-56380747D01*
X180227032Y-57077930D01*
X179952149Y-57682610D01*
X135994194Y-110050027D02*
X135780453Y-110797239D01*
X135860547Y-111289218D01*
X199304565Y-75351274D02*
X200110928Y-75835457D01*
X200868489Y-76303180D01*
X201716237Y-76834090D01*
X202617471Y-77404373D01*
X203535491Y-77990216D01*
X204433599Y-78567807D01*
X205275095Y-79113333D01*
X206023281Y-79602982D01*
X206812279Y-80127768D01*
X207200019Y-80394430D01*
X117771510Y-121331039D02*
X117433111Y-120557827D01*
X117090825Y-119750883D01*
X116802524Y-119049042D01*
X116512373Y-118314239D01*
X116243071Y-117591353D01*
X115955669Y-116723611D01*
X115787265Y-115942987D01*
X115800858Y-115767996D01*
X138569766Y-113050814D02*
X137882409Y-112689478D01*
X137767934Y-112577006D01*
X178567899Y-59807912D02*
X178728551Y-60599691D01*
X178889118Y-61351360D01*
X179255880Y-61853930D01*
X184648913Y-110782447D02*
X183558996Y-110816569D01*
X182425105Y-110930636D01*
X181261338Y-111115408D01*
X180081790Y-111361647D01*
X178900559Y-111660112D01*
X177731742Y-112001566D01*
X176589436Y-112376769D01*
X175487738Y-112776483D01*
X174440743Y-113191467D01*
X173462551Y-113612484D01*
X172567256Y-114030295D01*
X171768957Y-114435660D01*
X171081750Y-114819340D01*
X170290073Y-115333992D01*
X169827650Y-115747884D01*
X60976057Y-90885298D02*
X61735608Y-91007295D01*
X62732070Y-91336117D01*
X63559398Y-91658393D01*
X64492117Y-92056928D01*
X65508777Y-92526414D01*
X66587930Y-93061547D01*
X67708124Y-93657019D01*
X68847911Y-94307524D01*
X69985842Y-95007755D01*
X71100466Y-95752407D01*
X72170333Y-96536174D01*
X73173995Y-97353747D01*
X74090002Y-98199822D01*
X74896904Y-99069092D01*
X75252738Y-99510767D01*
X140732514Y-108520770D02*
X141445801Y-108873651D01*
X142211388Y-108988409D01*
X142627405Y-108992930D01*
X201488650Y-58838237D02*
X202239971Y-58720216D01*
X203018075Y-58658815D01*
X203985160Y-58613018D01*
X205113114Y-58584348D01*
X206373825Y-58574329D01*
X207739182Y-58584487D01*
X209181073Y-58616346D01*
X210671385Y-58671431D01*
X211425914Y-58708159D01*
X212182006Y-58751265D01*
X212936148Y-58800940D01*
X213684826Y-58857374D01*
X215151731Y-58991282D01*
X216554610Y-59154513D01*
X217865352Y-59348592D01*
X219055843Y-59575044D01*
X220097972Y-59835393D01*
X220554617Y-59978756D01*
X182604925Y-66466930D02*
X181940022Y-66072533D01*
X181357797Y-65498116D01*
X180969219Y-64754560D01*
X180852488Y-63920082D01*
X181023050Y-63175780D01*
X181097476Y-63046981D01*
X127936845Y-61580071D02*
X127134820Y-61438529D01*
X126453098Y-61047418D01*
X125941948Y-60457010D01*
X125651641Y-59717574D01*
X125604251Y-59247475D01*
X138569766Y-111131284D02*
X138007420Y-111637409D01*
X137816532Y-112163943D01*
X148207089Y-110552305D02*
X148786510Y-111114008D01*
X149239748Y-111657857D01*
X135739057Y-110037878D02*
X136508757Y-109945196D01*
X136638077Y-109964986D01*
X130269441Y-59247475D02*
X130269441Y-59247475D01*
X184648913Y-110782447D02*
X183558996Y-110816569D01*
X182425105Y-110930636D01*
X181261338Y-111115408D01*
X180081790Y-111361647D01*
X178900559Y-111660112D01*
X177731742Y-112001566D01*
X176589436Y-112376769D01*
X175487738Y-112776483D01*
X174440743Y-113191467D01*
X173462551Y-113612484D01*
X172567256Y-114030295D01*
X171768957Y-114435660D01*
X171081750Y-114819340D01*
X170290073Y-115333992D01*
X169827650Y-115747884D01*
X187917543Y-88188983D02*
X188509790Y-89010244D01*
X189073992Y-89966098D01*
X189490755Y-90728538D01*
X189929740Y-91568331D01*
X190382136Y-92465927D01*
X190839130Y-93401775D01*
X191291911Y-94356324D01*
X191731666Y-95310024D01*
X192149585Y-96243324D01*
X192536854Y-97136672D01*
X192884663Y-97970519D01*
X193184198Y-98725314D01*
X193523714Y-99666515D01*
X193664016Y-100138145D01*
X75252738Y-99510767D02*
X75958121Y-100458323D01*
X76711259Y-101513026D01*
X77499355Y-102655064D01*
X78309614Y-103864625D01*
X79129241Y-105121898D01*
X79538569Y-105762235D01*
X79945440Y-106407071D01*
X80348255Y-107053928D01*
X80745415Y-107700332D01*
X81135321Y-108343804D01*
X81886969Y-109612051D01*
X82590405Y-110838857D01*
X83232834Y-112004410D01*
X83801459Y-113088899D01*
X84283485Y-114072512D01*
X84666117Y-114935438D01*
X84936558Y-115657864D01*
X85103875Y-116434730D01*
X127642049Y-92503092D02*
X126725357Y-92590027D01*
X125840205Y-92620851D01*
X125002320Y-92580412D01*
X124227431Y-92453553D01*
X123402864Y-92165913D01*
X122718840Y-91705822D01*
X166326364Y-121130918D02*
X166664762Y-120357706D01*
X167007048Y-119550761D01*
X167295349Y-118848920D01*
X167585500Y-118114117D01*
X167854802Y-117391230D01*
X168142203Y-116523487D01*
X168310607Y-115742863D01*
X168297015Y-115567872D01*
X103745792Y-67458319D02*
X102927034Y-67603210D01*
X101958162Y-67798567D01*
X101090375Y-67996167D01*
X100155000Y-68237043D01*
X99200077Y-68520738D01*
X98273651Y-68846797D01*
X97423763Y-69214762D01*
X96698456Y-69624177D01*
X96008212Y-70233751D01*
X208845153Y-99310627D02*
X208139769Y-100258183D01*
X207386631Y-101312887D01*
X206598535Y-102454926D01*
X205788275Y-103664488D01*
X204968648Y-104921761D01*
X204559320Y-105562099D01*
X204152449Y-106206935D01*
X203749634Y-106853793D01*
X203352473Y-107500197D01*
X202962568Y-108143670D01*
X202210919Y-109411917D01*
X201507483Y-110638724D01*
X200865054Y-111804278D01*
X200296429Y-112888767D01*
X199814403Y-113872381D01*
X199431771Y-114735307D01*
X199161329Y-115457734D01*
X198994013Y-116234600D01*
X133145454Y-55289163D02*
X133145454Y-55289163D01*
X175695878Y-59587919D02*
X176187369Y-58923299D01*
X176720643Y-58290795D01*
X177288789Y-57634268D01*
X177826909Y-56985905D01*
X178270100Y-56377893D01*
X178330179Y-56282741D01*
X146632251Y-110333935D02*
X146093930Y-110888205D01*
X146093176Y-111111154D01*
X136638077Y-109964986D02*
X137362589Y-109698447D01*
X137597843Y-109624815D01*
X140732513Y-108520769D02*
X140155556Y-109070988D01*
X139565209Y-109663133D01*
X139109907Y-110307805D01*
X139124094Y-110718533D01*
X114270224Y-115948008D02*
X114681966Y-116644908D01*
X115029409Y-117507503D01*
X115313494Y-118265432D01*
X115646301Y-119041209D01*
X116067775Y-119795633D01*
X116617859Y-120489507D01*
X117336499Y-121083632D01*
X117771510Y-121331039D01*
X193664016Y-100138145D02*
X193876966Y-101002770D01*
X194099218Y-101951157D01*
X194319154Y-102921956D01*
X194525155Y-103853817D01*
X194705603Y-104685391D01*
X194877528Y-105490368D01*
X194977442Y-105964899D01*
X176594997Y-71453297D02*
X176455685Y-70560417D01*
X176376183Y-69707813D01*
X176418089Y-68928781D01*
X176843722Y-68487787D01*
X44303061Y-65811652D02*
X43469630Y-66193779D01*
X42594090Y-66607874D01*
X41703538Y-67038749D01*
X40825071Y-67471214D01*
X39985788Y-67890080D01*
X39212785Y-68280158D01*
X38533161Y-68626259D01*
X37819087Y-68993064D01*
X37278023Y-69273580D01*
X129344206Y-58993219D02*
X129102800Y-59572651D01*
X223121840Y-90685150D02*
X222362287Y-90807148D01*
X221365824Y-91135970D01*
X220538496Y-91458246D01*
X219605777Y-91856781D01*
X218589116Y-92326268D01*
X217509963Y-92861401D01*
X216389768Y-93456874D01*
X215249981Y-94107379D01*
X214112050Y-94807612D01*
X212997426Y-95552264D01*
X211927558Y-96336031D01*
X210923895Y-97153605D01*
X210007888Y-97999681D01*
X209200986Y-98868951D01*
X208845153Y-99310627D01*
X179969099Y-58386516D02*
X179282013Y-58732874D01*
X178663191Y-59249851D01*
X178567899Y-59807912D01*
X83812022Y-74618238D02*
X84918338Y-74079061D01*
X86108839Y-73513558D01*
X87365449Y-72928576D01*
X88670092Y-72330964D01*
X90004692Y-71727569D01*
X91351176Y-71125239D01*
X92691466Y-70530822D01*
X94007488Y-69951166D01*
X95281166Y-69393119D01*
X96494425Y-68863530D01*
X97629189Y-68369246D01*
X98667382Y-67917114D01*
X99590931Y-67513984D01*
X100381758Y-67166703D01*
X101279606Y-66765478D01*
X101492947Y-66667080D01*
X55524545Y-62793652D02*
X54813717Y-63047148D01*
X53986480Y-63265930D01*
X52963506Y-63507406D01*
X52197832Y-63680167D01*
X51382739Y-63861767D01*
X50533258Y-64051708D01*
X49664418Y-64249491D01*
X48791252Y-64454618D01*
X47928787Y-64666589D01*
X47092056Y-64884905D01*
X46296087Y-65109068D01*
X45555911Y-65338580D01*
X44583139Y-65691783D01*
X44303061Y-65811652D01*
X137986617Y-110839708D02*
X137549256Y-110936901D01*
X198994013Y-116234600D02*
X198997290Y-116994615D01*
X199035064Y-117921679D01*
X199072721Y-118810889D01*
X199070044Y-119649016D01*
X198986816Y-120422829D01*
X198723993Y-121247883D01*
X198585729Y-121494136D01*
X144991360Y-95026597D02*
X145634595Y-95648191D01*
X146187787Y-96397228D01*
X146560289Y-97075616D01*
X146866212Y-97813966D01*
X147101580Y-98602679D01*
X147262414Y-99432153D01*
X147344738Y-100292789D01*
X147355215Y-100731793D01*
X132904047Y-54709731D02*
X133145454Y-55289163D01*
X99448967Y-110982577D02*
X100538883Y-111016699D01*
X101672773Y-111130765D01*
X102836540Y-111315537D01*
X104016087Y-111561775D01*
X105197318Y-111860240D01*
X106366134Y-112201694D01*
X107508440Y-112576896D01*
X108610138Y-112976609D01*
X109657132Y-113391594D01*
X110635324Y-113812610D01*
X111530618Y-114230420D01*
X112328917Y-114635785D01*
X113016124Y-115019465D01*
X113807800Y-115534116D01*
X114270224Y-115948008D01*
X129344206Y-58993219D02*
X129344206Y-58993219D01*
X216214931Y-57762467D02*
X217031039Y-57889039D01*
X217913708Y-58048949D01*
X218857538Y-58240085D01*
X219857131Y-58460338D01*
X220907087Y-58707595D01*
X222002006Y-58979748D01*
X223136491Y-59274686D01*
X224305141Y-59590298D01*
X225502558Y-59924474D01*
X226723342Y-60275104D01*
X227962094Y-60640077D01*
X229213416Y-61017283D01*
X230471907Y-61404611D01*
X231732170Y-61799951D01*
X232988804Y-62201193D01*
X234236410Y-62606225D01*
X235469590Y-63012939D01*
X236682944Y-63419223D01*
X237871074Y-63822967D01*
X239028579Y-64222061D01*
X240150061Y-64614393D01*
X241230121Y-64997855D01*
X242263360Y-65370335D01*
X243244378Y-65729723D01*
X244167776Y-66073908D01*
X245028155Y-66400781D01*
X245820116Y-66708230D01*
X246538261Y-66994146D01*
X247731501Y-67492935D01*
X248564684Y-67880265D01*
X148474367Y-109750473D02*
X149260783Y-109651810D01*
X149762151Y-109665432D01*
X112562361Y-58665090D02*
X111696691Y-58954759D01*
X110969512Y-59239811D01*
X110251870Y-59598822D01*
X110316950Y-60009193D01*
X197822551Y-116904168D02*
X197032086Y-116270069D01*
X196211998Y-115656782D01*
X195542088Y-115181381D01*
X194785336Y-114669811D01*
X193951776Y-114136697D01*
X193051442Y-113596664D01*
X192094367Y-113064339D01*
X191090584Y-112554348D01*
X190050128Y-112081316D01*
X188983031Y-111659868D01*
X187899328Y-111304632D01*
X186809051Y-111030232D01*
X185722235Y-110851295D01*
X184648913Y-110782447D01*
X224090738Y-89665973D02*
X224607693Y-90222213D01*
X225246491Y-90915208D01*
X225816097Y-91538472D01*
X226418353Y-92204226D01*
X227012823Y-92870851D01*
X227559068Y-93496730D01*
X228142492Y-94195923D01*
X228504102Y-94713724D01*
X133145454Y-55289163D02*
X132904048Y-55868595D01*
X130750810Y-54911177D02*
X130903926Y-54157154D01*
X131389155Y-53477269D01*
X132119828Y-53061124D01*
X132699228Y-52974034D01*
X105767689Y-56482896D02*
X104950789Y-56564673D01*
X104492939Y-57201043D01*
X104160870Y-57921168D01*
X104128769Y-58586670D01*
X63543273Y-60178917D02*
X62704592Y-60461427D01*
X61920791Y-60718860D01*
X61189753Y-60953185D01*
X60187497Y-61265659D01*
X59292051Y-61537231D01*
X58496271Y-61774554D01*
X57577917Y-62049210D01*
X56807109Y-62290580D01*
X56025289Y-62569511D01*
X55524545Y-62793652D01*
X173915151Y-89335598D02*
X173622693Y-90052186D01*
X173316193Y-90839691D01*
X173215669Y-91759181D01*
X173173301Y-92747271D01*
X173166111Y-93052455D01*
X146457644Y-111086857D02*
X147111407Y-110707487D01*
X147186579Y-110746686D01*
X76897867Y-80594579D02*
X76227736Y-80959066D01*
X75418191Y-81223401D01*
X74624087Y-81469309D01*
X73846022Y-81795752D01*
X73263370Y-82116207D01*
X147502460Y-109240219D02*
X146913053Y-108660020D01*
X146449835Y-107986909D01*
X146213231Y-107309313D01*
X181097476Y-63046981D02*
X181516470Y-62435189D01*
X149762151Y-109665432D02*
X149975891Y-110412644D01*
X149895798Y-110904623D01*
X149118258Y-110770986D02*
X148604125Y-110200258D01*
X148547260Y-110163539D01*
X140263649Y-106436989D02*
X139620413Y-105815394D01*
X139067221Y-105066357D01*
X138694719Y-104387969D01*
X138388796Y-103649619D01*
X138153428Y-102860906D01*
X137992594Y-102031432D01*
X137910270Y-101170796D01*
X137899794Y-100731793D01*
X85103875Y-116434730D02*
X85100597Y-117194744D01*
X85062824Y-118121808D01*
X85025167Y-119011018D01*
X85027845Y-119849144D01*
X85111072Y-120622957D01*
X85373896Y-121448011D01*
X85512161Y-121694264D01*
X134647648Y-54911177D02*
X134647648Y-54911177D01*
X178330179Y-56282741D02*
X179147078Y-56364519D01*
X179604928Y-57000889D01*
X179936997Y-57721014D01*
X179969099Y-58386516D01*
X148304282Y-111329835D02*
X147887534Y-110680260D01*
X147769728Y-110455113D01*
X122205785Y-59875963D02*
X123032648Y-59617060D01*
X123650527Y-59087111D01*
X124202597Y-58484094D01*
X124835920Y-57742103D01*
X125380842Y-57105620D01*
X125998644Y-56409309D01*
X126700973Y-55661033D01*
X127499474Y-54868653D01*
X29246886Y-71974311D02*
X30038874Y-71665182D01*
X30763347Y-71387492D01*
X31640974Y-71057041D01*
X32617839Y-70697620D01*
X33640029Y-70333019D01*
X34653629Y-69987027D01*
X35604724Y-69683436D01*
X36439401Y-69446034D01*
X37278023Y-69273580D01*
X103000394Y-63247133D02*
X102581401Y-62635341D01*
X194977442Y-105964899D02*
X195460802Y-106746251D01*
X195837087Y-107436521D01*
X196193986Y-108166503D01*
X196522137Y-108919370D01*
X196812180Y-109678294D01*
X197054755Y-110426445D01*
X197276961Y-111320848D01*
X197336886Y-111659172D01*
X58356456Y-80793883D02*
X58682167Y-81567288D01*
X58962549Y-82353643D01*
X59200955Y-83144275D01*
X59400742Y-83930512D01*
X59565265Y-84703683D01*
X59697878Y-85455116D01*
X59844308Y-86522539D01*
X59937815Y-87492274D01*
X59989723Y-88335054D01*
X60013799Y-89210692D01*
X60007159Y-89866120D01*
X37278023Y-69273580D02*
X38129052Y-69305003D01*
X38984937Y-69376809D01*
X39843951Y-69487081D01*
X40704366Y-69633898D01*
X41564458Y-69815343D01*
X42422500Y-70029498D01*
X43276765Y-70274444D01*
X44125527Y-70548262D01*
X44967060Y-70849035D01*
X45799637Y-71174843D01*
X46621532Y-71523770D01*
X47431019Y-71893895D01*
X48226371Y-72283301D01*
X49005862Y-72690069D01*
X49767766Y-73112281D01*
X50510357Y-73548019D01*
X51231907Y-73995364D01*
X51930691Y-74452397D01*
X52604982Y-74917201D01*
X53253055Y-75387857D01*
X53873182Y-75862446D01*
X54463637Y-76339051D01*
X55548627Y-77290632D01*
X56494215Y-78227252D01*
X57286589Y-79133566D01*
X57911940Y-79994225D01*
X58356456Y-80793883D01*
X104841989Y-62054082D02*
X103092373Y-61523796D01*
X101395012Y-61030347D01*
X99748517Y-60572647D01*
X98151499Y-60149610D01*
X96602569Y-59760147D01*
X95100338Y-59403172D01*
X93643416Y-59077596D01*
X92230415Y-58782334D01*
X90859946Y-58516296D01*
X89530619Y-58278397D01*
X88241045Y-58067547D01*
X86989835Y-57882661D01*
X85775601Y-57722651D01*
X84596953Y-57586429D01*
X83452502Y-57472908D01*
X82340858Y-57381001D01*
X81260634Y-57309620D01*
X80210439Y-57257677D01*
X79188885Y-57224086D01*
X78194583Y-57207759D01*
X77226143Y-57207609D01*
X76282176Y-57222548D01*
X75361294Y-57251489D01*
X74462108Y-57293345D01*
X73583227Y-57347028D01*
X72723264Y-57411450D01*
X71880828Y-57485525D01*
X71054532Y-57568165D01*
X70242985Y-57658283D01*
X69444800Y-57754791D01*
X68658586Y-57856602D01*
X67882955Y-57962629D01*
X93660957Y-72677281D02*
X92906296Y-72823917D01*
X92149714Y-73005146D01*
X91272373Y-73236687D01*
X90312611Y-73508857D01*
X89308770Y-73811971D01*
X88299188Y-74136347D01*
X87322207Y-74472300D01*
X86416166Y-74810146D01*
X85619405Y-75140203D01*
X84793316Y-75551423D01*
X147355215Y-100731793D02*
X147313639Y-101604409D01*
X147191563Y-102450664D01*
X146992964Y-103260958D01*
X146721821Y-104025689D01*
X146382112Y-104735258D01*
X145977813Y-105380065D01*
X145387671Y-106080375D01*
X144991360Y-106436989D01*
X82609229Y-59038395D02*
X81857908Y-58920374D01*
X81079804Y-58858974D01*
X80112720Y-58813176D01*
X78984767Y-58784506D01*
X77724056Y-58774488D01*
X76358700Y-58784647D01*
X74916810Y-58816506D01*
X73426499Y-58871591D01*
X72671970Y-58908319D01*
X71915878Y-58951425D01*
X71161736Y-59001100D01*
X70413059Y-59057535D01*
X68946155Y-59191443D01*
X67543276Y-59354674D01*
X66232536Y-59548754D01*
X65042045Y-59775205D01*
X63999916Y-60035554D01*
X63543273Y-60178917D01*
X114574348Y-116183889D02*
X114206092Y-115104914D01*
X113841079Y-113913911D01*
X113479934Y-112620066D01*
X113123283Y-111232565D01*
X112771751Y-109760594D01*
X112425966Y-108213339D01*
X112086552Y-106599986D01*
X111754136Y-104929722D01*
X111429343Y-103211731D01*
X111112800Y-101455201D01*
X110805132Y-99669317D01*
X110506966Y-97863265D01*
X110218927Y-96046231D01*
X109941642Y-94227401D01*
X109675735Y-92415962D01*
X109421834Y-90621099D01*
X109180564Y-88851998D01*
X108952550Y-87117845D01*
X108738420Y-85427826D01*
X108538799Y-83791128D01*
X108354312Y-82216937D01*
X108185586Y-80714437D01*
X108033247Y-79292816D01*
X107897920Y-77961259D01*
X107780232Y-76728953D01*
X107680808Y-75605083D01*
X107600275Y-74598835D01*
X107539258Y-73719396D01*
X107478277Y-72377687D01*
X107502873Y-71653444D01*
X58356456Y-80793883D02*
X58682167Y-81567288D01*
X58962549Y-82353643D01*
X59200955Y-83144275D01*
X59400742Y-83930512D01*
X59565265Y-84703683D01*
X59697878Y-85455116D01*
X59844308Y-86522539D01*
X59937815Y-87492274D01*
X59989723Y-88335054D01*
X60013799Y-89210692D01*
X60007159Y-89866120D01*
X122205786Y-59875962D02*
X121343485Y-59671736D01*
X120520859Y-59478456D01*
X119736823Y-59297449D01*
X118990292Y-59130041D01*
X117938443Y-58907333D01*
X116964878Y-58722691D01*
X116065933Y-58580594D01*
X115237948Y-58485523D01*
X114477260Y-58441957D01*
X113561364Y-58471732D01*
X112749919Y-58611654D01*
X112562361Y-58665090D01*
X122718840Y-91705822D02*
X121985452Y-90864097D01*
X121404146Y-90128757D01*
X120709171Y-89218690D01*
X119922579Y-88160091D01*
X119066426Y-86979153D01*
X118619156Y-86350994D01*
X118162766Y-85702072D01*
X117700012Y-85035664D01*
X117233651Y-84355042D01*
X116766440Y-83663481D01*
X116301137Y-82964256D01*
X115840496Y-82260641D01*
X115387276Y-81555909D01*
X114944233Y-80853336D01*
X114514124Y-80156196D01*
X114099705Y-79467762D01*
X113703734Y-78791310D01*
X113328966Y-78130113D01*
X112654070Y-76866582D01*
X112097071Y-75703364D01*
X111680023Y-74666654D01*
X111530873Y-74203925D01*
X139250108Y-112382623D02*
X139324755Y-111611064D01*
X139298701Y-111471452D01*
X110291484Y-81158894D02*
X110167080Y-81921241D01*
X110090970Y-82674583D01*
X110030827Y-83539615D01*
X109987755Y-84476782D01*
X109962860Y-85446528D01*
X109957247Y-86409298D01*
X109972023Y-87325537D01*
X110008293Y-88155689D01*
X110091999Y-89060278D01*
X110182721Y-89535735D01*
X148989384Y-91164366D02*
X149939651Y-91208906D01*
X150776426Y-91263481D01*
X151841762Y-91361117D01*
X152710815Y-91473515D01*
X153625486Y-91638233D01*
X154494726Y-91852372D01*
X155352414Y-92092767D01*
X156105196Y-92253810D01*
X156455814Y-92302959D01*
X107254147Y-68687935D02*
X106507606Y-69008669D01*
X105905701Y-69457619D01*
X105293486Y-70045427D01*
X104816769Y-70626941D01*
X104745162Y-70728768D01*
X228504102Y-94713724D02*
X227909443Y-94106869D01*
X227240508Y-93517673D01*
X226647309Y-93024311D01*
X226009682Y-92516811D01*
X225358223Y-92022152D01*
X224723530Y-91567312D01*
X223956240Y-91069429D01*
X223226029Y-90711490D01*
X223121840Y-90685150D01*
X129102800Y-58413787D02*
X129344206Y-58993219D01*
X157240112Y-72187292D02*
X156464863Y-72925789D01*
X155775380Y-73613422D01*
X154973497Y-74430519D01*
X154081262Y-75354125D01*
X153120722Y-76361288D01*
X152113924Y-77429055D01*
X151600067Y-77978493D01*
X151082914Y-78534474D01*
X150565220Y-79094129D01*
X150049740Y-79654590D01*
X149539231Y-80212987D01*
X148544147Y-81312113D01*
X147602017Y-82368555D01*
X146734887Y-83359359D01*
X145964804Y-84261573D01*
X145313814Y-85052243D01*
X144803965Y-85708417D01*
X144457304Y-86207142D01*
X161379025Y-91505688D02*
X162112412Y-90663962D01*
X162693718Y-89928621D01*
X163388694Y-89018554D01*
X164175286Y-87959954D01*
X165031439Y-86779016D01*
X165478709Y-86150856D01*
X165935100Y-85501934D01*
X166397854Y-84835525D01*
X166864215Y-84154903D01*
X167331425Y-83463342D01*
X167796729Y-82764116D01*
X168257370Y-82060500D01*
X168710590Y-81355769D01*
X169153633Y-80653195D01*
X169583742Y-79956054D01*
X169998161Y-79267620D01*
X170394132Y-78591167D01*
X170768900Y-77929970D01*
X171443796Y-76666438D01*
X172000795Y-75503220D01*
X172417843Y-74466509D01*
X172566994Y-74003780D01*
X111530873Y-74203925D02*
X111294556Y-73349095D01*
X111094861Y-72552374D01*
X110927782Y-71810108D01*
X110729556Y-70790821D01*
X110582186Y-69873512D01*
X110472152Y-69045851D01*
X110385936Y-68295511D01*
X110284668Y-67394026D01*
X110169667Y-66578860D01*
X110008891Y-65820791D01*
X109901323Y-65454036D01*
X136638087Y-111155581D02*
X137152219Y-110584854D01*
X137209085Y-110548135D01*
X132699228Y-56848319D02*
X131940815Y-56696088D01*
X131256973Y-56213666D01*
X130838406Y-55487223D01*
X130750810Y-54911177D01*
X138253885Y-109624815D02*
X138712652Y-108961328D01*
X139047250Y-108206219D01*
X139221927Y-107489144D01*
X29246886Y-71974311D02*
X30038874Y-71665182D01*
X30763347Y-71387492D01*
X31640974Y-71057041D01*
X32617839Y-70697620D01*
X33640029Y-70333019D01*
X34653629Y-69987027D01*
X35604724Y-69683436D01*
X36439401Y-69446034D01*
X37278023Y-69273580D01*
X216214931Y-57762467D02*
X217031039Y-57889039D01*
X217913708Y-58048949D01*
X218857538Y-58240085D01*
X219857131Y-58460338D01*
X220907087Y-58707595D01*
X222002006Y-58979748D01*
X223136491Y-59274686D01*
X224305141Y-59590298D01*
X225502558Y-59924474D01*
X226723342Y-60275104D01*
X227962094Y-60640077D01*
X229213416Y-61017283D01*
X230471907Y-61404611D01*
X231732170Y-61799951D01*
X232988804Y-62201193D01*
X234236410Y-62606225D01*
X235469590Y-63012939D01*
X236682944Y-63419223D01*
X237871074Y-63822967D01*
X239028579Y-64222061D01*
X240150061Y-64614393D01*
X241230121Y-64997855D01*
X242263360Y-65370335D01*
X243244378Y-65729723D01*
X244167776Y-66073908D01*
X245028155Y-66400781D01*
X245820116Y-66708230D01*
X246538261Y-66994146D01*
X247731501Y-67492935D01*
X248564684Y-67880265D01*
X168297015Y-115567872D02*
X167934057Y-114499940D01*
X167552061Y-113747356D01*
X167071775Y-112973030D01*
X166504968Y-112186188D01*
X165863409Y-111396057D01*
X165158867Y-110611861D01*
X164403109Y-109842826D01*
X163607906Y-109098177D01*
X162785026Y-108387142D01*
X161946237Y-107718944D01*
X161103308Y-107102809D01*
X160268007Y-106547964D01*
X159452105Y-106063634D01*
X158667368Y-105659044D01*
X157925566Y-105343420D01*
X157574444Y-105221854D01*
X55593798Y-94913871D02*
X56188456Y-94307016D01*
X56857390Y-93717820D01*
X57450589Y-93224458D01*
X58088216Y-92716958D01*
X58739674Y-92222299D01*
X59374366Y-91767460D01*
X60141656Y-91269577D01*
X60871867Y-90911638D01*
X60976057Y-90885298D01*
X121535137Y-64904985D02*
X121075492Y-65618553D01*
X120605091Y-66272043D01*
X120144919Y-66885288D01*
X120132498Y-66901499D01*
X150017288Y-109653283D02*
X149247587Y-109560600D01*
X149118268Y-109580390D01*
X85314283Y-116617045D02*
X86071247Y-113926522D01*
X86763745Y-111448212D01*
X87395464Y-109171686D01*
X87970093Y-107086513D01*
X88491322Y-105182265D01*
X88962841Y-103448512D01*
X89388337Y-101874825D01*
X89771500Y-100450775D01*
X90116020Y-99165931D01*
X90425586Y-98009866D01*
X90703886Y-96972149D01*
X90954610Y-96042351D01*
X91181448Y-95210043D01*
X91388087Y-94464796D01*
X91755529Y-93193765D01*
X92086449Y-92145824D01*
X92410361Y-91237538D01*
X92756777Y-90385473D01*
X93155212Y-89506193D01*
X93635178Y-88516264D01*
X94226188Y-87332251D01*
X94572558Y-86641390D01*
X94957756Y-85870719D01*
X95385472Y-85009811D01*
X95859395Y-84048235D01*
X178567899Y-59807912D02*
X178728551Y-60599691D01*
X178889118Y-61351360D01*
X179255880Y-61853930D01*
X101492947Y-66667080D02*
X102157848Y-66272683D01*
X102740073Y-65698267D01*
X103128651Y-64954711D01*
X103245382Y-64120234D01*
X103074819Y-63375932D01*
X103000394Y-63247133D01*
X148649518Y-46226515D02*
X148205330Y-46900085D01*
X147391751Y-47786658D01*
X146852042Y-48342061D01*
X146233640Y-48963702D01*
X145543984Y-49645201D01*
X144790512Y-50380177D01*
X143980664Y-51162250D01*
X143121879Y-51985040D01*
X142221596Y-52842167D01*
X141287254Y-53727250D01*
X140326293Y-54633909D01*
X139346152Y-55555765D01*
X138354269Y-56486436D01*
X137358085Y-57419543D01*
X136365037Y-58348706D01*
X135382566Y-59267544D01*
X134418110Y-60169676D01*
X133479109Y-61048724D01*
X132573001Y-61898306D01*
X131707227Y-62712043D01*
X130889224Y-63483554D01*
X130126433Y-64206458D01*
X129426292Y-64874377D01*
X128796241Y-65480929D01*
X128243718Y-66019734D01*
X127401016Y-66868584D01*
X126957699Y-67369886D01*
X140263649Y-95026597D02*
X140971588Y-94561164D01*
X141713711Y-94268115D01*
X142474480Y-94147447D01*
X143238357Y-94199162D01*
X143989803Y-94423259D01*
X144713280Y-94819738D01*
X144991360Y-95026597D01*
X137318426Y-113269495D02*
X136657314Y-112896997D01*
X136249321Y-112516260D01*
X115800858Y-115767996D02*
X116163815Y-114700065D01*
X116545811Y-113947480D01*
X117026096Y-113173155D01*
X117592903Y-112386313D01*
X118234461Y-111596182D01*
X118939003Y-110811986D01*
X119694760Y-110042951D01*
X120489962Y-109298303D01*
X121312842Y-108587268D01*
X122151631Y-107919070D01*
X122994559Y-107302936D01*
X123829859Y-106748091D01*
X124645762Y-106263761D01*
X125430498Y-105859171D01*
X126172299Y-105543547D01*
X126523422Y-105421981D01*
X118548073Y-66826762D02*
X118239244Y-67774970D01*
X118063892Y-68881643D01*
X118027640Y-70129912D01*
X118136114Y-71502909D01*
X118394940Y-72983765D01*
X118582492Y-73759370D01*
X118809742Y-74555614D01*
X119077393Y-75370389D01*
X119386148Y-76201586D01*
X119736709Y-77047097D01*
X120129781Y-77904814D01*
X120566066Y-78772627D01*
X121046267Y-79648429D01*
X121571088Y-80530111D01*
X122141232Y-81415564D01*
X122757402Y-82302680D01*
X123420301Y-83189350D01*
X124130633Y-84073466D01*
X124889100Y-84952920D01*
X125696406Y-85825602D01*
X126553254Y-86689405D01*
X127460347Y-87542219D01*
X128418388Y-88381937D01*
X129428080Y-89206449D01*
X130490128Y-90013648D01*
X131605233Y-90801425D01*
X132774099Y-91567671D01*
X208845153Y-99310627D02*
X208139769Y-100258183D01*
X207386631Y-101312887D01*
X206598535Y-102454926D01*
X205788275Y-103664488D01*
X204968648Y-104921761D01*
X204559320Y-105562099D01*
X204152449Y-106206935D01*
X203749634Y-106853793D01*
X203352473Y-107500197D01*
X202962568Y-108143670D01*
X202210919Y-109411917D01*
X201507483Y-110638724D01*
X200865054Y-111804278D01*
X200296429Y-112888767D01*
X199814403Y-113872381D01*
X199431771Y-114735307D01*
X199161329Y-115457734D01*
X198994013Y-116234600D01*
X142627405Y-108992930D02*
X143447766Y-108914106D01*
X144233606Y-108684953D01*
X144977641Y-108316515D01*
X145120790Y-108227085D01*
X142316637Y-111354445D02*
X141713014Y-110870016D01*
X141065228Y-110416525D01*
X140332210Y-110040084D01*
X139566354Y-109954765D01*
X139224022Y-110117400D01*
X169827650Y-115747884D02*
X169415907Y-116444784D01*
X169068464Y-117307380D01*
X168784379Y-118065309D01*
X168451572Y-118841086D01*
X168030098Y-119595511D01*
X167480014Y-120289386D01*
X166761374Y-120883511D01*
X166326364Y-121130918D01*
X60976057Y-90885298D02*
X61735608Y-91007295D01*
X62732070Y-91336117D01*
X63559398Y-91658393D01*
X64492117Y-92056928D01*
X65508777Y-92526414D01*
X66587930Y-93061547D01*
X67708124Y-93657019D01*
X68847911Y-94307524D01*
X69985842Y-95007755D01*
X71100466Y-95752407D01*
X72170333Y-96536174D01*
X73173995Y-97353747D01*
X74090002Y-98199822D01*
X74896904Y-99069092D01*
X75252738Y-99510767D01*
X137452063Y-111714433D02*
X137868810Y-111064855D01*
X137986617Y-110839708D01*
X86418416Y-59354055D02*
X85661982Y-59373273D01*
X84853582Y-59396329D01*
X84032856Y-59368061D01*
X83280800Y-59218806D01*
X82609229Y-59038395D01*
X248564684Y-67880265D02*
X249506981Y-68378095D01*
X250409855Y-68885190D01*
X251261672Y-69388835D01*
X252050804Y-69876311D01*
X252765618Y-70334904D01*
X253394484Y-70751895D01*
X254079172Y-71221192D01*
X254720634Y-71678140D01*
X254851023Y-71774149D01*
X128519994Y-59812658D02*
X127836546Y-59451374D01*
X127695785Y-58993219D01*
X35533221Y-68080429D02*
X34590923Y-68578259D01*
X33688051Y-69085354D01*
X32836234Y-69588998D01*
X32047103Y-70076475D01*
X31332289Y-70535067D01*
X30703423Y-70952058D01*
X30018735Y-71421354D01*
X29377274Y-71878302D01*
X29246886Y-71974311D01*
X108401988Y-59788072D02*
X107910496Y-59123453D01*
X107377224Y-58490949D01*
X106809077Y-57834422D01*
X106270958Y-57186060D01*
X105827767Y-56578048D01*
X105767689Y-56482896D01*
X179034875Y-56128166D02*
X179654547Y-55695129D01*
X180364044Y-55408451D01*
X181243052Y-55261624D01*
X182046753Y-55334541D01*
X182740300Y-55703885D01*
X182915717Y-55957708D01*
X96008212Y-70233751D02*
X95506354Y-70954522D01*
X95137661Y-71612980D01*
X94736034Y-72257728D01*
X94046267Y-72605258D01*
X93660957Y-72677281D01*
X111530873Y-74203925D02*
X111294556Y-73349095D01*
X111094861Y-72552374D01*
X110927782Y-71810108D01*
X110729556Y-70790821D01*
X110582186Y-69873512D01*
X110472152Y-69045851D01*
X110385936Y-68295511D01*
X110284668Y-67394026D01*
X110169667Y-66578860D01*
X110008891Y-65820791D01*
X109901323Y-65454036D01*
X149239748Y-111657857D02*
X148854872Y-112346027D01*
X148437918Y-112884899D01*
X86275337Y-117104297D02*
X87065801Y-116470199D01*
X87885889Y-115856911D01*
X88555798Y-115381511D01*
X89312550Y-114869941D01*
X90146109Y-114336827D01*
X91046442Y-113796795D01*
X92003517Y-113264470D01*
X93007299Y-112754478D01*
X94047755Y-112281446D01*
X95114851Y-111859999D01*
X96198553Y-111504762D01*
X97288829Y-111230363D01*
X98375645Y-111051425D01*
X99448967Y-110982577D01*
X186700000Y-84200000D02*
X186917497Y-84983249D01*
X187046842Y-85748804D01*
X187112879Y-86550784D01*
X187293658Y-87311815D01*
X187701154Y-87942709D01*
X187917543Y-88188983D01*
X148158502Y-109240219D02*
X147502460Y-109240219D01*
X198994013Y-116234600D02*
X198997290Y-116994615D01*
X199035064Y-117921679D01*
X199072721Y-118810889D01*
X199070044Y-119649016D01*
X198986816Y-120422829D01*
X198723993Y-121247883D01*
X198585729Y-121494136D01*
X254851023Y-71774149D02*
X254059034Y-71465020D01*
X253334560Y-71187330D01*
X252456933Y-70856879D01*
X251480067Y-70497458D01*
X250457877Y-70132856D01*
X249444276Y-69786865D01*
X248493180Y-69483273D01*
X247658503Y-69245872D01*
X246819882Y-69073418D01*
X86761001Y-111859303D02*
X86638422Y-112793516D01*
X86548873Y-113641329D01*
X86468870Y-114512597D01*
X86400240Y-115346552D01*
X86333227Y-116243955D01*
X86280846Y-117016896D01*
X86275337Y-117104297D01*
X147186579Y-110746686D02*
X147748924Y-111252813D01*
X147939813Y-111779347D01*
X127695785Y-58993219D02*
X128059170Y-58313726D01*
X128519994Y-58173779D01*
X141750880Y-108896317D02*
X142040813Y-109596110D01*
X142288571Y-110344236D01*
X142421867Y-111087483D01*
X142454089Y-111911153D01*
X174196544Y-65253886D02*
X174418294Y-64490384D01*
X174614326Y-63679046D01*
X174792593Y-62851684D01*
X174961052Y-62040109D01*
X175127655Y-61276133D01*
X175345418Y-60436563D01*
X175641188Y-59680346D01*
X175695878Y-59587919D01*
X130269441Y-59247475D02*
X130132851Y-60033964D01*
X129741191Y-60725776D01*
X129586240Y-60896870D01*
X115800858Y-115767996D02*
X116163815Y-114700065D01*
X116545811Y-113947480D01*
X117026096Y-113173155D01*
X117592903Y-112386313D01*
X118234461Y-111596182D01*
X118939003Y-110811986D01*
X119694760Y-110042951D01*
X120489962Y-109298303D01*
X121312842Y-108587268D01*
X122151631Y-107919070D01*
X122994559Y-107302936D01*
X123829859Y-106748091D01*
X124645762Y-106263761D01*
X125430498Y-105859171D01*
X126172299Y-105543547D01*
X126523422Y-105421981D01*
X131468328Y-75967153D02*
X132039779Y-76607789D01*
X132533373Y-77218910D01*
X133072261Y-77900769D01*
X133647059Y-78616245D01*
X134248385Y-79328220D01*
X134866855Y-79999575D01*
X135493087Y-80593189D01*
X136117697Y-81071945D01*
X136931769Y-81467460D01*
X137516106Y-81533860D01*
X180483335Y-69106747D02*
X180143255Y-68395181D01*
X179952321Y-67642771D01*
X180352078Y-67258169D01*
X37278023Y-69273580D02*
X38129052Y-69305003D01*
X38984937Y-69376809D01*
X39843951Y-69487081D01*
X40704366Y-69633898D01*
X41564458Y-69815343D01*
X42422500Y-70029498D01*
X43276765Y-70274444D01*
X44125527Y-70548262D01*
X44967060Y-70849035D01*
X45799637Y-71174843D01*
X46621532Y-71523770D01*
X47431019Y-71893895D01*
X48226371Y-72283301D01*
X49005862Y-72690069D01*
X49767766Y-73112281D01*
X50510357Y-73548019D01*
X51231907Y-73995364D01*
X51930691Y-74452397D01*
X52604982Y-74917201D01*
X53253055Y-75387857D01*
X53873182Y-75862446D01*
X54463637Y-76339051D01*
X55548627Y-77290632D01*
X56494215Y-78227252D01*
X57286589Y-79133566D01*
X57911940Y-79994225D01*
X58356456Y-80793883D01*
X122718840Y-91705822D02*
X121985452Y-90864097D01*
X121404146Y-90128757D01*
X120709171Y-89218690D01*
X119922579Y-88160091D01*
X119066426Y-86979153D01*
X118619156Y-86350994D01*
X118162766Y-85702072D01*
X117700012Y-85035664D01*
X117233651Y-84355042D01*
X116766440Y-83663481D01*
X116301137Y-82964256D01*
X115840496Y-82260641D01*
X115387276Y-81555909D01*
X114944233Y-80853336D01*
X114514124Y-80156196D01*
X114099705Y-79467762D01*
X113703734Y-78791310D01*
X113328966Y-78130113D01*
X112654070Y-76866582D01*
X112097071Y-75703364D01*
X111680023Y-74666654D01*
X111530873Y-74203925D01*
X125604251Y-59247475D02*
X125745792Y-58445450D01*
X126136902Y-57763728D01*
X126727310Y-57252578D01*
X127466745Y-56962270D01*
X127936845Y-56914880D01*
X137816532Y-112163943D02*
X138262928Y-112810371D01*
X138569766Y-113050814D01*
X146879852Y-43838330D02*
X147597090Y-44204113D01*
X148087718Y-44819697D01*
X148416829Y-45541643D01*
X148649518Y-46226515D01*
X110931760Y-93252591D02*
X111006026Y-94431506D01*
X111113796Y-95445494D01*
X111265203Y-96616835D01*
X111457699Y-97924031D01*
X111688738Y-99345584D01*
X111817914Y-100092526D01*
X111955771Y-100859995D01*
X112101990Y-101645305D01*
X112256252Y-102445767D01*
X112418239Y-103258694D01*
X112587634Y-104081400D01*
X112764116Y-104911196D01*
X112947369Y-105745396D01*
X113137074Y-106581312D01*
X113332911Y-107416257D01*
X113534564Y-108247544D01*
X113741713Y-109072485D01*
X113954040Y-109888393D01*
X114171226Y-110692581D01*
X114392954Y-111482361D01*
X114618905Y-112255047D01*
X114848760Y-113007950D01*
X115082202Y-113738384D01*
X115558570Y-115121094D01*
X115800860Y-115767996D01*
X224090738Y-89665973D02*
X224607693Y-90222213D01*
X225246491Y-90915208D01*
X225816097Y-91538472D01*
X226418353Y-92204226D01*
X227012823Y-92870851D01*
X227559068Y-93496730D01*
X228142492Y-94195923D01*
X228504102Y-94713724D01*
X121622573Y-61150588D02*
X122019609Y-61816743D01*
X122047241Y-62651589D01*
X121953431Y-63417478D01*
X121765126Y-64260457D01*
X121535137Y-64904985D01*
X104128769Y-58586670D02*
X104815854Y-58933028D01*
X105434676Y-59450004D01*
X105529969Y-60008065D01*
X147939813Y-111779347D02*
X147493416Y-112425776D01*
X147186579Y-112666219D01*
X134647648Y-54911177D02*
X134499333Y-55652488D01*
X134076969Y-56280943D01*
X180352078Y-67258169D02*
X181170836Y-67403059D01*
X182139709Y-67598417D01*
X183007496Y-67796016D01*
X183942872Y-68036892D01*
X184897795Y-68320588D01*
X185824222Y-68646646D01*
X186674110Y-69014611D01*
X187399417Y-69424026D01*
X188089663Y-70033601D01*
X137281978Y-110135071D02*
X136495561Y-110036406D01*
X135994194Y-110050027D01*
X113065542Y-59962501D02*
X113914619Y-59902126D01*
X114808936Y-59926575D01*
X115626585Y-59979911D01*
X116540551Y-60067450D01*
X117524190Y-60192975D01*
X118550857Y-60360268D01*
X119593906Y-60573113D01*
X120626693Y-60835292D01*
X121622573Y-61150588D01*
X145120791Y-108227085D02*
X145691386Y-108771339D01*
X146257415Y-109340684D01*
X146676354Y-109985411D01*
X146632251Y-110333935D01*
X126957699Y-67369886D02*
X126752466Y-68158396D01*
X126878578Y-68933254D01*
X127198149Y-69820864D01*
X127669263Y-70781169D01*
X128046830Y-71441976D01*
X128460701Y-72105417D01*
X128898457Y-72759624D01*
X129347677Y-73392728D01*
X130015836Y-74276849D01*
X130639932Y-75046721D01*
X131178048Y-75662285D01*
X131468328Y-75967153D01*
X102581401Y-62635341D02*
X101663413Y-62417138D01*
X100858132Y-62227713D01*
X99858345Y-61994649D01*
X98701268Y-61727767D01*
X97424122Y-61436887D01*
X96064123Y-61131828D01*
X94658491Y-60822411D01*
X93244444Y-60518455D01*
X91859201Y-60229781D01*
X90539979Y-59966208D01*
X89323997Y-59737556D01*
X88248473Y-59553645D01*
X87350626Y-59424296D01*
X86418416Y-59354055D01*
X190436920Y-72477132D02*
X191191580Y-72623768D01*
X191948162Y-72804997D01*
X192825504Y-73036538D01*
X193785266Y-73308707D01*
X194789108Y-73611822D01*
X195798690Y-73936197D01*
X196775671Y-74272150D01*
X197681713Y-74609997D01*
X198478474Y-74940053D01*
X199304565Y-75351274D01*
X161379025Y-91505688D02*
X162112412Y-90663962D01*
X162693718Y-89928621D01*
X163388694Y-89018554D01*
X164175286Y-87959954D01*
X165031439Y-86779016D01*
X165478709Y-86150856D01*
X165935100Y-85501934D01*
X166397854Y-84835525D01*
X166864215Y-84154903D01*
X167331425Y-83463342D01*
X167796729Y-82764116D01*
X168257370Y-82060500D01*
X168710590Y-81355769D01*
X169153633Y-80653195D01*
X169583742Y-79956054D01*
X169998161Y-79267620D01*
X170394132Y-78591167D01*
X170768900Y-77929970D01*
X171443796Y-76666438D01*
X172000795Y-75503220D01*
X172417843Y-74466509D01*
X172566994Y-74003780D01*
X126523423Y-105421982D02*
X127251656Y-105223219D01*
X128128339Y-105000016D01*
X129122066Y-104771748D01*
X130201431Y-104557788D01*
X130953077Y-104432666D01*
X131719522Y-104328255D01*
X132491460Y-104250296D01*
X133259587Y-104204531D01*
X134014598Y-104196699D01*
X135102166Y-104268635D01*
X136107880Y-104458213D01*
X137000336Y-104784808D01*
X137267225Y-104927471D01*
X169827650Y-115747884D02*
X169415907Y-116444784D01*
X169068464Y-117307380D01*
X168784379Y-118065309D01*
X168451572Y-118841086D01*
X168030098Y-119595511D01*
X167480014Y-120289386D01*
X166761374Y-120883511D01*
X166326364Y-121130918D01*
X139298701Y-111471452D02*
X138644937Y-111092084D01*
X138569766Y-111131284D01*
X149895798Y-110904623D02*
X150164078Y-110185551D01*
X150017288Y-109653283D01*
X110182721Y-89535735D02*
X110475177Y-90252324D01*
X110781677Y-91039828D01*
X110882201Y-91959317D01*
X110924569Y-92947407D01*
X110931760Y-93252591D01*
X156455814Y-92302959D02*
X157372505Y-92389893D01*
X158257658Y-92420718D01*
X159095543Y-92380278D01*
X159870432Y-92253420D01*
X160695000Y-91965780D01*
X161379025Y-91505688D01*
X254851023Y-71774149D02*
X254059034Y-71465020D01*
X253334560Y-71187330D01*
X252456933Y-70856879D01*
X251480067Y-70497458D01*
X250457877Y-70132856D01*
X249444276Y-69786865D01*
X248493180Y-69483273D01*
X247658503Y-69245872D01*
X246819882Y-69073418D01*
X176843722Y-68487787D02*
X177590262Y-68808521D01*
X178192167Y-69257471D01*
X178804384Y-69845279D01*
X179281100Y-70426793D01*
X179352709Y-70528620D01*
X138607366Y-89603713D02*
X137651814Y-89564395D01*
X136840602Y-89411357D01*
X136015158Y-89097744D01*
X135382003Y-88693224D01*
X134850036Y-88155681D01*
X134474951Y-87487306D01*
X174647748Y-70611656D02*
X174800809Y-71665113D01*
X174925964Y-72525198D01*
X175051245Y-73426874D01*
X175144508Y-74267462D01*
X175169951Y-75052882D01*
X175109008Y-75838186D01*
X174998303Y-76678499D01*
X172566994Y-74003780D02*
X172803310Y-73148950D01*
X173003005Y-72352228D01*
X173170084Y-71609961D01*
X173368310Y-70590674D01*
X173515681Y-69673365D01*
X173625715Y-68845704D01*
X173711930Y-68095363D01*
X173813198Y-67193878D01*
X173928199Y-66378711D01*
X174088975Y-65620641D01*
X174196544Y-65253886D01*
X84793316Y-75551423D02*
X83986953Y-76035606D01*
X83229392Y-76503329D01*
X82381645Y-77034239D01*
X81480412Y-77604522D01*
X80562392Y-78190365D01*
X79664285Y-78767956D01*
X78822789Y-79313482D01*
X78074604Y-79803131D01*
X77285606Y-80327917D01*
X76897867Y-80594579D01*
X35533221Y-68080429D02*
X34590923Y-68578259D01*
X33688051Y-69085354D01*
X32836234Y-69588998D01*
X32047103Y-70076475D01*
X31332289Y-70535067D01*
X30703423Y-70952058D01*
X30018735Y-71421354D01*
X29377274Y-71878302D01*
X29246886Y-71974311D01*
X95859395Y-84048235D02*
X96347415Y-83056388D01*
X96815254Y-82110822D01*
X97263344Y-81210335D01*
X97692119Y-80353726D01*
X98102012Y-79539794D01*
X98493456Y-78767338D01*
X98866884Y-78035157D01*
X99222729Y-77342050D01*
X99883404Y-76068253D01*
X100478948Y-74936339D01*
X101012825Y-73936699D01*
X101488500Y-73059725D01*
X101909441Y-72295808D01*
X102279111Y-71635341D01*
X102745066Y-70817588D01*
X103219241Y-69999645D01*
X103614536Y-69306896D01*
X137516106Y-81533860D02*
X138544854Y-80942870D01*
X139681913Y-80010580D01*
X140364533Y-79406871D01*
X141113757Y-78722086D01*
X141922493Y-77964201D01*
X142783647Y-77141190D01*
X143690127Y-76261027D01*
X144634841Y-75331690D01*
X145610697Y-74361151D01*
X146610601Y-73357387D01*
X147627462Y-72328372D01*
X148654187Y-71282082D01*
X149683683Y-70226491D01*
X150708858Y-69169574D01*
X151722620Y-68119307D01*
X152717876Y-67083665D01*
X153687533Y-66070622D01*
X154624499Y-65088154D01*
X155521682Y-64144235D01*
X156371989Y-63246841D01*
X157168327Y-62403947D01*
X157903605Y-61623528D01*
X158570729Y-60913559D01*
X159162607Y-60282014D01*
X160092256Y-59286099D01*
X160635813Y-58699584D01*
X160745075Y-58579790D01*
X143553685Y-110880282D02*
X143661571Y-110103623D01*
X143863029Y-109332706D01*
X144070845Y-108694312D01*
X179255880Y-61853930D02*
X181005496Y-61323643D01*
X182702857Y-60830193D01*
X184349353Y-60372493D01*
X185946371Y-59949455D01*
X187495302Y-59559992D01*
X188997534Y-59203016D01*
X190454456Y-58877440D01*
X191867458Y-58582177D01*
X193237928Y-58316139D01*
X194567256Y-58078239D01*
X195856830Y-57867390D01*
X197108040Y-57682503D01*
X198322275Y-57522493D01*
X199500924Y-57386271D01*
X200645376Y-57272749D01*
X201757020Y-57180842D01*
X202837245Y-57109460D01*
X203887440Y-57057517D01*
X204908994Y-57023926D01*
X205903297Y-57007599D01*
X206871738Y-57007449D01*
X207815704Y-57022388D01*
X208736587Y-57051329D01*
X209635774Y-57093184D01*
X210514655Y-57146867D01*
X211374619Y-57211289D01*
X212217055Y-57285364D01*
X213043351Y-57368004D01*
X213854898Y-57458122D01*
X214653084Y-57554629D01*
X215439299Y-57656440D01*
X216214931Y-57762467D01*
X132699228Y-52974034D02*
X133457641Y-53126264D01*
X134141483Y-53608685D01*
X134560050Y-54335129D01*
X134647648Y-54911177D01*
X135108475Y-91364498D02*
X134158207Y-91409038D01*
X133321433Y-91463613D01*
X132256097Y-91561250D01*
X131387044Y-91673647D01*
X130472374Y-91838366D01*
X129603134Y-92052505D01*
X128745447Y-92292900D01*
X127992666Y-92453943D01*
X127642049Y-92503092D01*
X169523526Y-115983765D02*
X169891781Y-114904789D01*
X170256794Y-113713785D01*
X170617939Y-112419940D01*
X170974590Y-111032438D01*
X171326121Y-109560467D01*
X171671907Y-108013211D01*
X172011320Y-106399857D01*
X172343737Y-104729592D01*
X172668529Y-103011601D01*
X172985072Y-101255069D01*
X173292739Y-99469184D01*
X173590905Y-97663131D01*
X173878944Y-95846096D01*
X174156229Y-94027266D01*
X174422136Y-92215825D01*
X174676037Y-90420961D01*
X174917307Y-88651859D01*
X175145320Y-86917706D01*
X175359450Y-85227686D01*
X175559071Y-83590987D01*
X175743558Y-82016795D01*
X175912283Y-80514295D01*
X176064623Y-79092673D01*
X176199949Y-77761115D01*
X176317637Y-76528808D01*
X176417061Y-75404938D01*
X176497594Y-74398689D01*
X176558611Y-73519250D01*
X176619592Y-72177540D01*
X176594997Y-71453297D01*
X148547260Y-110163539D02*
X148474367Y-109750473D01*
X131497032Y-55289163D02*
X131860418Y-54609670D01*
X132321242Y-54469723D01*
X75252738Y-99510767D02*
X75958121Y-100458323D01*
X76711259Y-101513026D01*
X77499355Y-102655064D01*
X78309614Y-103864625D01*
X79129241Y-105121898D01*
X79538569Y-105762235D01*
X79945440Y-106407071D01*
X80348255Y-107053928D01*
X80745415Y-107700332D01*
X81135321Y-108343804D01*
X81886969Y-109612051D01*
X82590405Y-110838857D01*
X83232834Y-112004410D01*
X83801459Y-113088899D01*
X84283485Y-114072512D01*
X84666117Y-114935438D01*
X84936558Y-115657864D01*
X85103875Y-116434730D01*
X135108475Y-91364498D02*
X134158207Y-91409038D01*
X133321433Y-91463613D01*
X132256097Y-91561250D01*
X131387044Y-91673647D01*
X130472374Y-91838366D01*
X129603134Y-92052505D01*
X128745447Y-92292900D01*
X127992666Y-92453943D01*
X127642049Y-92503092D01*
X148437918Y-112884899D02*
X149099030Y-112512402D01*
X149507024Y-112131665D01*
X223121840Y-90685150D02*
X222362287Y-90807148D01*
X221365824Y-91135970D01*
X220538496Y-91458246D01*
X219605777Y-91856781D01*
X218589116Y-92326268D01*
X217509963Y-92861401D01*
X216389768Y-93456874D01*
X215249981Y-94107379D01*
X214112050Y-94807612D01*
X212997426Y-95552264D01*
X211927558Y-96336031D01*
X210923895Y-97153605D01*
X210007888Y-97999681D01*
X209200986Y-98868951D01*
X208845153Y-99310627D01*
X113495543Y-60188893D02*
X113695122Y-61032034D01*
X113809270Y-61921578D01*
X113975407Y-62697745D01*
X114344205Y-63502471D01*
X114989714Y-63985158D01*
X85512161Y-121694264D02*
X85492330Y-120790366D01*
X85553541Y-119979651D01*
X85705620Y-119106726D01*
X85910609Y-118316081D01*
X86133716Y-117579408D01*
X86275337Y-117104297D01*
X129586240Y-60896870D02*
X128933524Y-61356417D01*
X128167393Y-61568656D01*
X127936845Y-61580071D01*
X101182153Y-56157863D02*
X101947227Y-56042431D01*
X102745963Y-56153861D01*
X103372641Y-56580903D01*
X103870836Y-57278085D01*
X104145720Y-57882765D01*
X132321242Y-56108603D02*
X131637794Y-55747319D01*
X131497032Y-55289163D01*
X60007159Y-89866120D02*
X59490204Y-90422360D01*
X58851406Y-91115355D01*
X58281800Y-91738619D01*
X57679544Y-92404372D01*
X57085075Y-93070997D01*
X56538830Y-93696877D01*
X55955407Y-94396070D01*
X55593798Y-94913871D01*
X198585729Y-121494136D02*
X198605559Y-120590238D01*
X198544347Y-119779523D01*
X198392268Y-118906597D01*
X198187278Y-118115952D01*
X197964171Y-117379279D01*
X197822551Y-116904168D01*
X144991360Y-106436989D02*
X144283420Y-106902421D01*
X143541297Y-107195470D01*
X142780528Y-107316138D01*
X142016651Y-107264423D01*
X141265205Y-107040326D01*
X140541728Y-106643847D01*
X140263649Y-106436989D01*
X129102800Y-59572651D02*
X128519994Y-59812658D01*
X137209085Y-110548135D02*
X137281978Y-110135071D01*
X160745075Y-58579790D02*
X161562924Y-58619655D01*
X162134007Y-59168717D01*
X162609112Y-59829107D01*
X163022153Y-60581459D01*
X163081715Y-60710258D01*
X246819882Y-69073418D02*
X245968851Y-69104841D01*
X245112966Y-69176648D01*
X244253952Y-69286919D01*
X243393536Y-69433736D01*
X242533443Y-69615182D01*
X241675401Y-69829337D01*
X240821136Y-70074283D01*
X239972373Y-70348102D01*
X239130840Y-70648875D01*
X238298263Y-70974684D01*
X237476367Y-71323610D01*
X236666880Y-71693736D01*
X235871527Y-72083142D01*
X235092036Y-72489910D01*
X234330132Y-72912123D01*
X233587541Y-73347861D01*
X232865990Y-73795206D01*
X232167206Y-74252240D01*
X231492915Y-74717044D01*
X230844842Y-75187700D01*
X230224715Y-75662290D01*
X229634259Y-76138895D01*
X228549268Y-77090477D01*
X227603680Y-78027098D01*
X226811306Y-78933412D01*
X226185955Y-79794072D01*
X225741440Y-80593730D01*
X129586240Y-57598081D02*
X130045787Y-58250796D01*
X130258026Y-59016926D01*
X130269441Y-59247475D01*
X105529969Y-60008065D02*
X105369317Y-60799843D01*
X105208750Y-61551512D01*
X104841989Y-62054082D01*
X172566994Y-74003780D02*
X172803310Y-73148950D01*
X173003005Y-72352228D01*
X173170084Y-71609961D01*
X173368310Y-70590674D01*
X173515681Y-69673365D01*
X173625715Y-68845704D01*
X173711930Y-68095363D01*
X173813198Y-67193878D01*
X173928199Y-66378711D01*
X174088975Y-65620641D01*
X174196544Y-65253886D01*
X60007159Y-89866120D02*
X59490204Y-90422360D01*
X58851406Y-91115355D01*
X58281800Y-91738619D01*
X57679544Y-92404372D01*
X57085075Y-93070997D01*
X56538830Y-93696877D01*
X55955407Y-94396070D01*
X55593798Y-94913871D01*
X109099567Y-76878644D02*
X109297237Y-77758484D01*
X109578166Y-78476851D01*
X109941189Y-79205721D01*
X110270152Y-79996506D01*
X110341379Y-80871580D01*
X110291484Y-81158894D01*
X210834519Y-81916058D02*
X211494067Y-82337732D01*
X212131771Y-82760032D01*
X212899629Y-83275688D01*
X213773427Y-83867909D01*
X214728949Y-84519904D01*
X215741983Y-85214879D01*
X216788312Y-85936044D01*
X217843724Y-86666607D01*
X218884003Y-87389777D01*
X219884934Y-88088761D01*
X220822304Y-88746768D01*
X221671897Y-89347006D01*
X222409500Y-89872683D01*
X223252953Y-90484666D01*
X223604642Y-90750479D01*
X137899794Y-100731793D02*
X137941369Y-99859176D01*
X138063446Y-99012921D01*
X138262044Y-98202627D01*
X138533187Y-97437896D01*
X138872896Y-96728327D01*
X139277195Y-96083520D01*
X139867337Y-95383210D01*
X140263649Y-95026597D01*
X146506237Y-111998028D02*
X146431588Y-111226469D01*
X146457644Y-111086857D01*
X135860547Y-111289218D02*
X135592266Y-110570147D01*
X135739057Y-110037878D01*
X137767934Y-112577006D02*
X137405745Y-111910713D01*
X137452063Y-111714433D01*
X139124094Y-110718533D02*
X139662414Y-111272801D01*
X139663169Y-111495750D01*
X90433867Y-100338281D02*
X90220916Y-101202906D01*
X89998664Y-102151293D01*
X89778728Y-103122091D01*
X89572728Y-104053952D01*
X89392280Y-104885526D01*
X89220355Y-105690503D01*
X89120442Y-106165033D01*
X104128769Y-58586670D02*
X104815854Y-58933028D01*
X105434676Y-59450004D01*
X105529969Y-60008065D01*
X175695878Y-59587919D02*
X176187369Y-58923299D01*
X176720643Y-58290795D01*
X177288789Y-57634268D01*
X177826909Y-56985905D01*
X178270100Y-56377893D01*
X178330179Y-56282741D01*
X105062992Y-56328320D02*
X104443320Y-55895284D01*
X103733823Y-55608606D01*
X102854816Y-55461779D01*
X102051115Y-55534696D01*
X101357569Y-55904040D01*
X101182153Y-56157863D01*
X142454089Y-111911153D02*
X143175563Y-112130614D01*
X143486704Y-111384039D01*
X143553685Y-110880282D01*
X67882955Y-57962629D02*
X67066846Y-58089202D01*
X66184178Y-58249111D01*
X65240348Y-58440248D01*
X64240756Y-58660500D01*
X63190801Y-58907758D01*
X62095882Y-59179911D01*
X60961398Y-59474849D01*
X59792749Y-59790461D01*
X58595333Y-60124637D01*
X57374549Y-60475267D01*
X56135798Y-60840240D01*
X54884477Y-61217446D01*
X53625986Y-61604774D01*
X52365725Y-62000114D01*
X51109091Y-62401356D01*
X49861486Y-62806389D01*
X48628306Y-63213102D01*
X47414953Y-63619387D01*
X46226824Y-64023131D01*
X45069319Y-64422224D01*
X43947838Y-64814557D01*
X42867779Y-65198019D01*
X41834541Y-65570498D01*
X40853523Y-65929886D01*
X39930126Y-66274072D01*
X39069747Y-66600945D01*
X38277786Y-66908394D01*
X37559642Y-67194310D01*
X36366402Y-67693099D01*
X35533221Y-68080429D01*
X137549256Y-110936901D02*
X136969834Y-111498604D01*
X136516597Y-112042453D01*
X108401988Y-59788072D02*
X107910496Y-59123453D01*
X107377224Y-58490949D01*
X106809077Y-57834422D01*
X106270958Y-57186060D01*
X105827767Y-56578048D01*
X105767689Y-56482896D01*
X109450120Y-70811803D02*
X109297059Y-71865259D01*
X109171904Y-72725344D01*
X109046623Y-73627020D01*
X108953361Y-74467608D01*
X108927917Y-75253028D01*
X108988860Y-76038331D01*
X109099567Y-76878644D01*
X60211368Y-90091428D02*
X61100816Y-89433731D01*
X61983582Y-88784737D01*
X62859356Y-88144699D01*
X63727824Y-87513869D01*
X64588674Y-86892502D01*
X65441596Y-86280850D01*
X66286275Y-85679167D01*
X67122401Y-85087707D01*
X67949661Y-84506723D01*
X68767744Y-83936468D01*
X69576337Y-83377195D01*
X70375128Y-82829159D01*
X71163806Y-82292612D01*
X71942057Y-81767808D01*
X72709571Y-81255000D01*
X73466034Y-80754442D01*
X74211136Y-80266387D01*
X74944563Y-79791088D01*
X75666004Y-79328799D01*
X76375148Y-78879774D01*
X77071680Y-78444265D01*
X77755291Y-78022526D01*
X78425667Y-77614811D01*
X79082497Y-77221372D01*
X80354270Y-76478339D01*
X81568112Y-75795454D01*
X82721528Y-75174745D01*
X83812022Y-74618238D01*
X134474951Y-87487306D02*
X133958145Y-86755682D01*
X133319013Y-86052786D01*
X132751477Y-85468855D01*
X132152182Y-84873324D01*
X131560576Y-84299537D01*
X131016104Y-83780841D01*
X130431642Y-83232576D01*
X130048096Y-82877864D01*
X146093176Y-111111154D02*
X146298319Y-111839936D01*
X146506237Y-111998028D01*
X207200019Y-80394430D02*
X207870150Y-80758917D01*
X208679696Y-81023252D01*
X209473800Y-81269160D01*
X210251865Y-81595603D01*
X210834519Y-81916058D01*
X225741440Y-80593730D02*
X225415728Y-81367136D01*
X225135346Y-82153491D01*
X224896940Y-82944124D01*
X224697153Y-83730361D01*
X224532631Y-84503533D01*
X224400017Y-85254967D01*
X224253588Y-86322390D01*
X224160081Y-87292125D01*
X224108172Y-88134906D01*
X224084097Y-89010545D01*
X224090738Y-89665973D01*
X197822551Y-116904168D02*
X197032086Y-116270069D01*
X196211998Y-115656782D01*
X195542088Y-115181381D01*
X194785336Y-114669811D01*
X193951776Y-114136697D01*
X193051442Y-113596664D01*
X192094367Y-113064339D01*
X191090584Y-112554348D01*
X190050128Y-112081316D01*
X188983031Y-111659868D01*
X187899328Y-111304632D01*
X186809051Y-111030232D01*
X185722235Y-110851295D01*
X184648913Y-110782447D01*
X174998303Y-76678499D02*
X174800632Y-77558339D01*
X174519702Y-78276707D01*
X174156679Y-79005578D01*
X173827716Y-79796363D01*
X173756489Y-80671438D01*
X173806385Y-80958752D01*
X105529969Y-60008065D02*
X105369317Y-60799843D01*
X105208750Y-61551512D01*
X104841989Y-62054082D01*
X139663169Y-111495750D02*
X139458024Y-112224532D01*
X139250108Y-112382623D01*
X197679462Y-59153898D02*
X198435895Y-59173115D01*
X199244295Y-59196171D01*
X200065022Y-59167903D01*
X200817078Y-59018648D01*
X201488650Y-58838237D01*
X178330179Y-56282741D02*
X179147078Y-56364519D01*
X179604928Y-57000889D01*
X179936997Y-57721014D01*
X179969099Y-58386516D01*
X200285860Y-74418088D02*
X199179542Y-73878911D01*
X197989040Y-73313408D01*
X196732430Y-72728426D01*
X195427786Y-72130814D01*
X194093185Y-71527419D01*
X192746701Y-70925089D01*
X191406409Y-70330672D01*
X190090387Y-69751016D01*
X188816708Y-69192969D01*
X187603449Y-68663380D01*
X186468684Y-68169096D01*
X185430490Y-67716964D01*
X184506941Y-67313834D01*
X183716114Y-66966553D01*
X182818265Y-66565328D01*
X182604925Y-66466930D01*
X107502873Y-71653444D02*
X107642183Y-70760564D01*
X107721686Y-69907961D01*
X107679780Y-69128929D01*
X107254147Y-68687935D01*
X99448967Y-110982577D02*
X100538883Y-111016699D01*
X101672773Y-111130765D01*
X102836540Y-111315537D01*
X104016087Y-111561775D01*
X105197318Y-111860240D01*
X106366134Y-112201694D01*
X107508440Y-112576896D01*
X108610138Y-112976609D01*
X109657132Y-113391594D01*
X110635324Y-113812610D01*
X111530618Y-114230420D01*
X112328917Y-114635785D01*
X113016124Y-115019465D01*
X113807800Y-115534116D01*
X114270224Y-115948008D01*
X85512161Y-121694264D02*
X85492330Y-120790366D01*
X85553541Y-119979651D01*
X85705620Y-119106726D01*
X85910609Y-118316081D01*
X86133716Y-117579408D01*
X86275337Y-117104297D01*
X127936845Y-56914880D02*
X128723334Y-57051469D01*
X129415146Y-57443129D01*
X129586240Y-57598081D01*
X148152672Y-81747303D02*
X148203632Y-82755926D01*
X148442468Y-83845273D01*
X148688745Y-84599266D01*
X148992539Y-85363510D01*
X149343459Y-86127755D01*
X149731109Y-86881748D01*
X150145099Y-87615240D01*
X150575033Y-88317980D01*
X151010520Y-88979718D01*
X151651426Y-89873021D01*
X152246365Y-90616407D01*
X152760259Y-91175282D01*
X153158033Y-91515050D01*
X239794839Y-65611490D02*
X240628269Y-65993617D01*
X241503810Y-66407712D01*
X242394363Y-66838587D01*
X243272830Y-67271052D01*
X244112114Y-67689918D01*
X244885117Y-68079996D01*
X245564742Y-68426097D01*
X246278817Y-68792902D01*
X246819882Y-69073418D01*
X179352709Y-70528620D02*
X179852406Y-71334123D01*
X180243971Y-71996325D01*
X180710147Y-72798127D01*
X181236033Y-73714507D01*
X181806727Y-74720441D01*
X182407330Y-75790905D01*
X183022940Y-76900875D01*
X183638657Y-78025327D01*
X184239580Y-79139238D01*
X184810808Y-80217583D01*
X185337440Y-81235340D01*
X185804576Y-82167483D01*
X186197315Y-82988990D01*
X186614334Y-83959068D01*
X186700000Y-84200000D01*
X147186579Y-112666219D02*
X147873935Y-112304883D01*
X147988411Y-112192411D01*
X104841989Y-62054082D02*
X103092373Y-61523796D01*
X101395012Y-61030347D01*
X99748517Y-60572647D01*
X98151499Y-60149610D01*
X96602569Y-59760147D01*
X95100338Y-59403172D01*
X93643416Y-59077596D01*
X92230415Y-58782334D01*
X90859946Y-58516296D01*
X89530619Y-58278397D01*
X88241045Y-58067547D01*
X86989835Y-57882661D01*
X85775601Y-57722651D01*
X84596953Y-57586429D01*
X83452502Y-57472908D01*
X82340858Y-57381001D01*
X81260634Y-57309620D01*
X80210439Y-57257677D01*
X79188885Y-57224086D01*
X78194583Y-57207759D01*
X77226143Y-57207609D01*
X76282176Y-57222548D01*
X75361294Y-57251489D01*
X74462108Y-57293345D01*
X73583227Y-57347028D01*
X72723264Y-57411450D01*
X71880828Y-57485525D01*
X71054532Y-57568165D01*
X70242985Y-57658283D01*
X69444800Y-57754791D01*
X68658586Y-57856602D01*
X67882955Y-57962629D01*
X114989714Y-63985158D02*
X115764605Y-64338971D01*
X116477458Y-64783615D01*
X117217257Y-65320834D01*
X117932616Y-65903495D01*
X118572150Y-66484464D01*
X119186657Y-67136489D01*
X119520386Y-67688598D01*
X147988411Y-112192411D02*
X148350599Y-111526117D01*
X148304282Y-111329835D01*
X157574441Y-105221853D02*
X156595618Y-104969905D01*
X155694092Y-104759974D01*
X154864005Y-104589294D01*
X154099502Y-104455101D01*
X153062911Y-104316178D01*
X152140948Y-104243801D01*
X151313851Y-104228638D01*
X150561859Y-104261361D01*
X149641875Y-104363352D01*
X148773434Y-104511769D01*
X147909694Y-104684495D01*
X144457304Y-86207142D02*
X143924061Y-86981678D01*
X143349963Y-87655976D01*
X142727152Y-88230160D01*
X142047771Y-88704353D01*
X141303959Y-89078681D01*
X140487860Y-89353267D01*
X139591615Y-89528236D01*
X138607366Y-89603713D01*
X114270224Y-115948008D02*
X114681966Y-116644908D01*
X115029409Y-117507503D01*
X115313494Y-118265432D01*
X115646301Y-119041209D01*
X116067775Y-119795633D01*
X116617859Y-120489507D01*
X117336499Y-121083632D01*
X117771510Y-121331039D01*
X117771510Y-121331039D02*
X117433111Y-120557827D01*
X117090825Y-119750883D01*
X116802524Y-119049042D01*
X116512373Y-118314239D01*
X116243071Y-117591353D01*
X115955669Y-116723611D01*
X115787265Y-115942987D01*
X115800858Y-115767996D01*
X166326364Y-121130918D02*
X166664762Y-120357706D01*
X167007048Y-119550761D01*
X167295349Y-118848920D01*
X167585500Y-118114117D01*
X167854802Y-117391230D01*
X168142203Y-116523487D01*
X168310607Y-115742863D01*
X168297015Y-115567872D01*
X149507024Y-112131665D02*
X149613334Y-111351654D01*
X149118258Y-110770986D01*
X67882955Y-57962629D02*
X67066846Y-58089202D01*
X66184178Y-58249111D01*
X65240348Y-58440248D01*
X64240756Y-58660500D01*
X63190801Y-58907758D01*
X62095882Y-59179911D01*
X60961398Y-59474849D01*
X59792749Y-59790461D01*
X58595333Y-60124637D01*
X57374549Y-60475267D01*
X56135798Y-60840240D01*
X54884477Y-61217446D01*
X53625986Y-61604774D01*
X52365725Y-62000114D01*
X51109091Y-62401356D01*
X49861486Y-62806389D01*
X48628306Y-63213102D01*
X47414953Y-63619387D01*
X46226824Y-64023131D01*
X45069319Y-64422224D01*
X43947838Y-64814557D01*
X42867779Y-65198019D01*
X41834541Y-65570498D01*
X40853523Y-65929886D01*
X39930126Y-66274072D01*
X39069747Y-66600945D01*
X38277786Y-66908394D01*
X37559642Y-67194310D01*
X36366402Y-67693099D01*
X35533221Y-68080429D01*
X134076969Y-56280943D02*
X133444855Y-56700862D01*
X132699228Y-56848319D01*
X143553685Y-111216996D02*
X144159021Y-110554894D01*
X144790190Y-110026145D01*
X145492454Y-109691817D01*
X146252925Y-109726562D01*
X146371399Y-109773778D01*
X179255880Y-61853930D02*
X181005496Y-61323643D01*
X182702857Y-60830193D01*
X184349353Y-60372493D01*
X185946371Y-59949455D01*
X187495302Y-59559992D01*
X188997534Y-59203016D01*
X190454456Y-58877440D01*
X191867458Y-58582177D01*
X193237928Y-58316139D01*
X194567256Y-58078239D01*
X195856830Y-57867390D01*
X197108040Y-57682503D01*
X198322275Y-57522493D01*
X199500924Y-57386271D01*
X200645376Y-57272749D01*
X201757020Y-57180842D01*
X202837245Y-57109460D01*
X203887440Y-57057517D01*
X204908994Y-57023926D01*
X205903297Y-57007599D01*
X206871738Y-57007449D01*
X207815704Y-57022388D01*
X208736587Y-57051329D01*
X209635774Y-57093184D01*
X210514655Y-57146867D01*
X211374619Y-57211289D01*
X212217055Y-57285364D01*
X213043351Y-57368004D01*
X213854898Y-57458122D01*
X214653084Y-57554629D01*
X215439299Y-57656440D01*
X216214931Y-57762467D01*
X97397876Y-84400143D02*
X97180378Y-85183391D01*
X97051034Y-85948946D01*
X96984997Y-86750926D01*
X96804219Y-87511957D01*
X96396723Y-88142851D01*
X96180335Y-88389124D01*
X147355215Y-100731793D02*
X147355215Y-100731793D01*
D11*
X192840965Y-146205728D02*
X193548072Y-145498621D01*
X192436904Y-145801667D01*
X193144011Y-145094560D01*
X192672606Y-144623156D02*
X192537919Y-144488469D01*
X192436904Y-144454797D01*
X192302217Y-144454797D01*
X192133858Y-144555812D01*
X191898156Y-144791514D01*
X191797140Y-144959873D01*
X191797140Y-145094560D01*
X191830812Y-145195575D01*
X191965499Y-145330263D01*
X192066514Y-145363934D01*
X192201201Y-145363934D01*
X192369560Y-145262919D01*
X192605263Y-145027217D01*
X192706278Y-144858858D01*
X192706278Y-144724171D01*
X192672606Y-144623156D01*
X192167530Y-144118079D02*
X191763469Y-143714018D01*
X191258392Y-144623156D02*
X191965499Y-143916049D01*
X190517614Y-143478316D02*
X190180896Y-143141599D01*
X190382927Y-143747690D02*
X190854331Y-142804881D01*
X189911522Y-143276286D01*
X189204416Y-142501835D02*
X189069729Y-142434492D01*
X188901370Y-142266133D01*
X188867698Y-142165118D01*
X188867698Y-142097774D01*
X188901370Y-141996759D01*
X188968713Y-141929416D01*
X189069729Y-141895744D01*
X189137072Y-141895744D01*
X189238087Y-141929416D01*
X189406446Y-142030431D01*
X189507461Y-142064103D01*
X189574805Y-142064103D01*
X189675820Y-142030431D01*
X189743164Y-141963087D01*
X189776835Y-141862072D01*
X189776835Y-141794729D01*
X189743164Y-141693713D01*
X189574805Y-141525355D01*
X189440118Y-141458011D01*
X188463637Y-141828400D02*
X189170744Y-141121294D01*
X188059576Y-141424339D01*
X188766683Y-140717233D01*
X187958561Y-140919263D02*
X187621843Y-140582546D01*
X187823874Y-141188637D02*
X188295278Y-140245828D01*
X187352469Y-140717233D01*
X186780049Y-140010126D02*
X186780049Y-140077469D01*
X186847393Y-140212156D01*
X186914736Y-140279500D01*
X187049424Y-140346843D01*
X187184111Y-140346843D01*
X187285126Y-140313172D01*
X187453485Y-140212156D01*
X187554500Y-140111141D01*
X187655515Y-139942782D01*
X187689187Y-139841767D01*
X187689187Y-139707080D01*
X187621843Y-139572393D01*
X187554500Y-139505049D01*
X187419813Y-139437706D01*
X187352469Y-139437706D01*
X186409660Y-139774424D02*
X187116767Y-139067317D01*
X186005599Y-139370362D02*
X186712706Y-139269347D01*
X186712706Y-138663256D02*
X186712706Y-139471378D01*
D12*
X146845686Y-62716412D02*
X147350762Y-62548053D01*
X148024197Y-61874618D01*
X148192556Y-61369542D01*
X148024197Y-60864466D01*
X146677327Y-59517596D01*
X146172251Y-59349237D01*
X145667175Y-59517596D01*
X144993740Y-60191031D01*
X144825381Y-60696107D01*
X144993740Y-61201183D01*
X145330457Y-61537901D01*
X147350762Y-60191031D01*
X143815228Y-65746870D02*
X144320305Y-65578511D01*
X144993740Y-64905076D01*
X145162098Y-64400000D01*
X144993740Y-63894923D01*
X143646870Y-62548053D01*
X143141793Y-62379694D01*
X142636717Y-62548053D01*
X141963282Y-63221488D01*
X141794923Y-63726564D01*
X141963282Y-64231641D01*
X142300000Y-64568358D01*
X144320305Y-63221488D01*
X142300000Y-67598816D02*
X138764466Y-64063282D01*
X140616412Y-66588663D02*
X140953129Y-68945686D01*
X138596107Y-66588663D02*
X141289847Y-66588663D01*
X139101183Y-70124197D02*
X139101183Y-70460915D01*
X139437901Y-70460915D01*
X139437901Y-70124197D01*
X139101183Y-70124197D01*
X139437901Y-70460915D01*
X138091031Y-69114045D02*
X136239084Y-66925381D01*
X135902367Y-66925381D01*
X135902367Y-67262098D01*
X138091031Y-69114045D01*
X135902367Y-66925381D01*
D11*
X197811904Y-144952380D02*
X197811904Y-143952380D01*
X197811904Y-144428571D02*
X197240476Y-144428571D01*
X197240476Y-144952380D02*
X197240476Y-143952380D01*
X196859523Y-143952380D02*
X196192857Y-143952380D01*
X196621428Y-144952380D01*
D13*
X169381831Y-102425846D02*
X169176770Y-101216693D01*
X169883877Y-101923800D02*
X168469663Y-100509586D01*
X169381831Y-102425846D02*
X166624115Y-105183562D01*
X167967617Y-101011632D02*
X169381831Y-102425846D01*
X169176770Y-101216693D02*
X167967617Y-101011632D01*
X167967617Y-101011632D02*
X165209901Y-103769348D01*
X179917721Y-85808836D02*
X177160005Y-88566552D01*
X181126874Y-86013897D02*
X179917721Y-85808836D01*
X181833981Y-86721004D02*
X180419767Y-85306790D01*
X181331935Y-87223050D02*
X181126874Y-86013897D01*
X181331935Y-87223050D02*
X178574219Y-89980766D01*
X179917721Y-85808836D02*
X181331935Y-87223050D01*
X188190871Y-67353349D02*
X189605085Y-68767563D01*
X189605085Y-68767563D02*
X186847369Y-71525279D01*
X188190871Y-67353349D02*
X185433155Y-70111065D01*
X189400024Y-67558410D02*
X188190871Y-67353349D01*
X189605085Y-68767563D02*
X189400024Y-67558410D01*
X190107131Y-68265517D02*
X188692917Y-66851303D01*
X206717068Y-59009489D02*
X203959352Y-61767205D01*
X206717068Y-59009489D02*
X208131282Y-60423703D01*
X207926221Y-59214550D02*
X206717068Y-59009489D01*
X208633328Y-59921657D02*
X207219114Y-58507443D01*
X208131282Y-60423703D02*
X207926221Y-59214550D01*
X208131282Y-60423703D02*
X205373566Y-63181419D01*
X227011032Y-52291974D02*
X224253316Y-55049690D01*
X228425246Y-53706188D02*
X228220185Y-52497035D01*
X228927292Y-53204142D02*
X227513078Y-51789928D01*
X227011032Y-52291974D02*
X228425246Y-53706188D01*
X228220185Y-52497035D02*
X227011032Y-52291974D01*
X228425246Y-53706188D02*
X225667530Y-56463904D01*
X182648097Y-115681117D02*
X179890381Y-118438833D01*
X181233883Y-114266903D02*
X182648097Y-115681117D01*
X181233883Y-114266903D02*
X178476167Y-117024619D01*
X182443036Y-114471964D02*
X181233883Y-114266903D01*
X183150143Y-115179071D02*
X181735929Y-113764857D01*
X182648097Y-115681117D02*
X182443036Y-114471964D01*
X194343036Y-99341964D02*
X193133883Y-99136903D01*
X193133883Y-99136903D02*
X194548097Y-100551117D01*
X194548097Y-100551117D02*
X191790381Y-103308833D01*
X193133883Y-99136903D02*
X190376167Y-101894619D01*
X194548097Y-100551117D02*
X194343036Y-99341964D01*
X195050143Y-100049071D02*
X193635929Y-98634857D01*
X202838097Y-82011117D02*
X202633036Y-80801964D01*
X202633036Y-80801964D02*
X201423883Y-80596903D01*
X203340143Y-81509071D02*
X201925929Y-80094857D01*
X201423883Y-80596903D02*
X202838097Y-82011117D01*
X201423883Y-80596903D02*
X198666167Y-83354619D01*
X202838097Y-82011117D02*
X200080381Y-84768833D01*
X221568097Y-73561117D02*
X221363036Y-72351964D01*
X221568097Y-73561117D02*
X218810381Y-76318833D01*
X220153883Y-72146903D02*
X221568097Y-73561117D01*
X222070143Y-73059071D02*
X220655929Y-71644857D01*
X221363036Y-72351964D02*
X220153883Y-72146903D01*
X220153883Y-72146903D02*
X217396167Y-74904619D01*
X241584823Y-66894391D02*
X238827107Y-69652107D01*
X242086869Y-66392345D02*
X240672655Y-64978131D01*
X241584823Y-66894391D02*
X241379762Y-65685238D01*
X240170609Y-65480177D02*
X237412893Y-68237893D01*
X240170609Y-65480177D02*
X241584823Y-66894391D01*
X241379762Y-65685238D02*
X240170609Y-65480177D01*
X183123883Y-116176903D02*
X184538097Y-117591117D01*
X184333036Y-116381964D02*
X183123883Y-116176903D01*
X183123883Y-116176903D02*
X180366167Y-118934619D01*
X185040143Y-117089071D02*
X183625929Y-115674857D01*
X184538097Y-117591117D02*
X181780381Y-120348833D01*
X184538097Y-117591117D02*
X184333036Y-116381964D01*
X195043883Y-101026903D02*
X196458097Y-102441117D01*
X196458097Y-102441117D02*
X193700381Y-105198833D01*
X196253036Y-101231964D02*
X195043883Y-101026903D01*
X195043883Y-101026903D02*
X192286167Y-103784619D01*
X196458097Y-102441117D02*
X196253036Y-101231964D01*
X196960143Y-101939071D02*
X195545929Y-100524857D01*
X205260143Y-83399071D02*
X203845929Y-81984857D01*
X203343883Y-82486903D02*
X204758097Y-83901117D01*
X203343883Y-82486903D02*
X200586167Y-85244619D01*
X204758097Y-83901117D02*
X202000381Y-86658833D01*
X204758097Y-83901117D02*
X204553036Y-82691964D01*
X204553036Y-82691964D02*
X203343883Y-82486903D01*
X222073883Y-74066903D02*
X219316167Y-76824619D01*
X223283036Y-74271964D02*
X222073883Y-74066903D01*
X223488097Y-75481117D02*
X220730381Y-78238833D01*
X222073883Y-74066903D02*
X223488097Y-75481117D01*
X223990143Y-74979071D02*
X222575929Y-73564857D01*
X223488097Y-75481117D02*
X223283036Y-74271964D01*
X212840000Y-99905000D02*
X214840000Y-99905000D01*
X213840000Y-99195000D02*
X212840000Y-99905000D01*
X214840000Y-99195000D02*
X212840000Y-99195000D01*
X214840000Y-99905000D02*
X214840000Y-103805000D01*
X214840000Y-99905000D02*
X213840000Y-99195000D01*
X212840000Y-99905000D02*
X212840000Y-103805000D01*
X217840000Y-96945000D02*
X216840000Y-96235000D01*
X216840000Y-96235000D02*
X215840000Y-96945000D01*
X215840000Y-96945000D02*
X215840000Y-100845000D01*
X217840000Y-96235000D02*
X215840000Y-96235000D01*
X217840000Y-96945000D02*
X217840000Y-100845000D01*
X215840000Y-96945000D02*
X217840000Y-96945000D01*
X220870000Y-93185000D02*
X218870000Y-93185000D01*
X218870000Y-93895000D02*
X218870000Y-97795000D01*
X220870000Y-93895000D02*
X220870000Y-97795000D01*
X218870000Y-93895000D02*
X220870000Y-93895000D01*
X220870000Y-93895000D02*
X219870000Y-93185000D01*
X219870000Y-93185000D02*
X218870000Y-93895000D01*
X218691215Y-124525762D02*
X219822586Y-123394391D01*
X218691215Y-124525762D02*
X218266951Y-124950026D01*
X220529693Y-124101497D02*
X220600403Y-124596472D01*
X220600403Y-124596472D02*
X219256900Y-125939975D01*
X219822586Y-123394391D02*
X220529693Y-124101497D01*
X206837278Y-139612591D02*
X207968649Y-138481220D01*
X206837278Y-139612591D02*
X206413014Y-140036855D01*
X207968649Y-138481220D02*
X208675756Y-139188326D01*
X208675756Y-139188326D02*
X208746466Y-139683301D01*
X208746466Y-139683301D02*
X207402963Y-141026804D01*
X181805697Y-112742533D02*
X180462194Y-114086036D01*
X179896509Y-112671823D02*
X181027880Y-111540452D01*
X181027880Y-111540452D02*
X181734987Y-112247558D01*
X181734987Y-112247558D02*
X181805697Y-112742533D01*
X179896509Y-112671823D02*
X179472245Y-113096087D01*
X240735269Y-63484768D02*
X240805979Y-63979743D01*
X238896791Y-63909033D02*
X240028162Y-62777662D01*
X240028162Y-62777662D02*
X240735269Y-63484768D01*
X240805979Y-63979743D02*
X239462476Y-65323246D01*
X238896791Y-63909033D02*
X238472527Y-64333297D01*
X205220830Y-57173840D02*
X206352201Y-56042469D01*
X207130018Y-57244550D02*
X205786515Y-58588053D01*
X205220830Y-57173840D02*
X204796566Y-57598104D01*
X206352201Y-56042469D02*
X207059308Y-56749575D01*
X207059308Y-56749575D02*
X207130018Y-57244550D01*
X234070788Y-84185318D02*
X232727285Y-85528821D01*
X234000078Y-83690343D02*
X234070788Y-84185318D01*
X233292971Y-82983237D02*
X234000078Y-83690343D01*
X232161600Y-84114608D02*
X233292971Y-82983237D01*
X232161600Y-84114608D02*
X231737336Y-84538872D01*
X226557778Y-49307278D02*
X227264885Y-50014384D01*
X227264885Y-50014384D02*
X227335595Y-50509359D01*
X225426407Y-50438649D02*
X225002143Y-50862913D01*
X227335595Y-50509359D02*
X225992092Y-51852862D01*
X225426407Y-50438649D02*
X226557778Y-49307278D01*
X215481658Y-92536956D02*
X214138155Y-93880459D01*
X213572470Y-92466246D02*
X213148206Y-92890510D01*
X213572470Y-92466246D02*
X214703841Y-91334875D01*
X214703841Y-91334875D02*
X215410948Y-92041981D01*
X215410948Y-92041981D02*
X215481658Y-92536956D01*
X194498263Y-125010836D02*
X195205370Y-125717942D01*
X193366892Y-126142207D02*
X194498263Y-125010836D01*
X195276080Y-126212917D02*
X193932577Y-127556420D01*
X195205370Y-125717942D02*
X195276080Y-126212917D01*
X193366892Y-126142207D02*
X192942628Y-126566471D01*
X205220831Y-111055377D02*
X206352202Y-109924006D01*
X205220831Y-111055377D02*
X204796567Y-111479641D01*
X207130019Y-111126087D02*
X205786516Y-112469590D01*
X207059309Y-110631112D02*
X207130019Y-111126087D01*
X206352202Y-109924006D02*
X207059309Y-110631112D01*
X220529694Y-70219959D02*
X220600404Y-70714934D01*
X218691216Y-70644224D02*
X219822587Y-69512853D01*
X218691216Y-70644224D02*
X218266952Y-71068488D01*
X219822587Y-69512853D02*
X220529694Y-70219959D01*
X220600404Y-70714934D02*
X219256901Y-72058437D01*
X193659634Y-97655702D02*
X192316131Y-98999205D01*
X193588924Y-97160727D02*
X193659634Y-97655702D01*
X191750446Y-97584992D02*
X191326182Y-98009256D01*
X191750446Y-97584992D02*
X192881817Y-96453621D01*
X192881817Y-96453621D02*
X193588924Y-97160727D01*
X254276363Y-77450126D02*
X252932860Y-78793629D01*
X252367175Y-77379416D02*
X253498546Y-76248045D01*
X253498546Y-76248045D02*
X254205653Y-76955151D01*
X254205653Y-76955151D02*
X254276363Y-77450126D01*
X252367175Y-77379416D02*
X251942911Y-77803680D01*
X201233455Y-77864491D02*
X201940562Y-78571597D01*
X200102084Y-78995862D02*
X201233455Y-77864491D01*
X201940562Y-78571597D02*
X202011272Y-79066572D01*
X202011272Y-79066572D02*
X200667769Y-80410075D01*
X200102084Y-78995862D02*
X199677820Y-79420126D01*
X178280062Y-84114608D02*
X177855798Y-84538872D01*
X178280062Y-84114608D02*
X179411433Y-82983237D01*
X179411433Y-82983237D02*
X180118540Y-83690343D01*
X180118540Y-83690343D02*
X180189250Y-84185318D01*
X180189250Y-84185318D02*
X178845747Y-85528821D01*
X230410449Y-109304227D02*
X229986185Y-109728491D01*
X232248927Y-108879962D02*
X232319637Y-109374937D01*
X232319637Y-109374937D02*
X230976134Y-110718440D01*
X231541820Y-108172856D02*
X232248927Y-108879962D01*
X230410449Y-109304227D02*
X231541820Y-108172856D01*
X166426125Y-99201439D02*
X166001861Y-99625703D01*
X168264603Y-98777174D02*
X168335313Y-99272149D01*
X166426125Y-99201439D02*
X167557496Y-98070068D01*
X167557496Y-98070068D02*
X168264603Y-98777174D01*
X168335313Y-99272149D02*
X166991810Y-100615652D01*
X187763071Y-64394107D02*
X188470178Y-65101213D01*
X188470178Y-65101213D02*
X188540888Y-65596188D01*
X186631700Y-65525478D02*
X186207436Y-65949742D01*
X188540888Y-65596188D02*
X187197385Y-66939691D01*
X186631700Y-65525478D02*
X187763071Y-64394107D01*
X47593036Y-69838036D02*
X47798097Y-68628883D01*
X46383883Y-70043097D02*
X43626167Y-67285381D01*
X46383883Y-70043097D02*
X47593036Y-69838036D01*
X47798097Y-68628883D02*
X46383883Y-70043097D01*
X46885929Y-70545143D02*
X48300143Y-69130929D01*
X47798097Y-68628883D02*
X45040381Y-65871167D01*
X67981371Y-75342157D02*
X66567157Y-76756371D01*
X66567157Y-76756371D02*
X67776310Y-76551310D01*
X67069203Y-77258417D02*
X68483417Y-75844203D01*
X66567157Y-76756371D02*
X63809441Y-73998655D01*
X67776310Y-76551310D02*
X67981371Y-75342157D01*
X67981371Y-75342157D02*
X65223655Y-72584441D01*
X94733036Y-103488036D02*
X94938097Y-102278883D01*
X94025929Y-104195143D02*
X95440143Y-102780929D01*
X94938097Y-102278883D02*
X92180381Y-99521167D01*
X93523883Y-103693097D02*
X90766167Y-100935381D01*
X94938097Y-102278883D02*
X93523883Y-103693097D01*
X93523883Y-103693097D02*
X94733036Y-103488036D01*
X69056128Y-96819861D02*
X68056128Y-96109861D01*
X68056128Y-96109861D02*
X67056128Y-96819861D01*
X69056128Y-96819861D02*
X69056128Y-100719861D01*
X67056128Y-96819861D02*
X69056128Y-96819861D01*
X69056128Y-96109861D02*
X67056128Y-96109861D01*
X67056128Y-96819861D02*
X67056128Y-100719861D01*
X65165929Y-79155143D02*
X66580143Y-77740929D01*
X65873036Y-78448036D02*
X66078097Y-77238883D01*
X66078097Y-77238883D02*
X64663883Y-78653097D01*
X66078097Y-77238883D02*
X63320381Y-74481167D01*
X64663883Y-78653097D02*
X61906167Y-75895381D01*
X64663883Y-78653097D02*
X65873036Y-78448036D01*
X63950000Y-93825000D02*
X65950000Y-93825000D01*
X64950000Y-93115000D02*
X63950000Y-93825000D01*
X65950000Y-93825000D02*
X65950000Y-97725000D01*
X65950000Y-93115000D02*
X63950000Y-93115000D01*
X63950000Y-93825000D02*
X63950000Y-97725000D01*
X65950000Y-93825000D02*
X64950000Y-93115000D01*
X45696310Y-71741310D02*
X45901371Y-70532157D01*
X44487157Y-71946371D02*
X45696310Y-71741310D01*
X45901371Y-70532157D02*
X43143655Y-67774441D01*
X44989203Y-72448417D02*
X46403417Y-71034203D01*
X44487157Y-71946371D02*
X41729441Y-69188655D01*
X45901371Y-70532157D02*
X44487157Y-71946371D01*
X84637783Y-85568883D02*
X81880067Y-82811167D01*
X83223569Y-86983097D02*
X84432722Y-86778036D01*
X83725615Y-87485143D02*
X85139829Y-86070929D01*
X83223569Y-86983097D02*
X80465853Y-84225381D01*
X84637783Y-85568883D02*
X83223569Y-86983097D01*
X84432722Y-86778036D02*
X84637783Y-85568883D01*
X86518097Y-83628883D02*
X83760381Y-80871167D01*
X85605929Y-85545143D02*
X87020143Y-84130929D01*
X85103883Y-85043097D02*
X82346167Y-82285381D01*
X86518097Y-83628883D02*
X85103883Y-85043097D01*
X85103883Y-85043097D02*
X86313036Y-84838036D01*
X86313036Y-84838036D02*
X86518097Y-83628883D01*
X91613883Y-105593097D02*
X88856167Y-102835381D01*
X93028097Y-104178883D02*
X90270381Y-101421167D01*
X91613883Y-105593097D02*
X92823036Y-105388036D01*
X92115929Y-106095143D02*
X93530143Y-104680929D01*
X92823036Y-105388036D02*
X93028097Y-104178883D01*
X93028097Y-104178883D02*
X91613883Y-105593097D01*
X98143522Y-72023026D02*
X95385806Y-69265310D01*
X99557736Y-70608812D02*
X96800020Y-67851096D01*
X98143522Y-72023026D02*
X99352675Y-71817965D01*
X99557736Y-70608812D02*
X98143522Y-72023026D01*
X99352675Y-71817965D02*
X99557736Y-70608812D01*
X98645568Y-72525072D02*
X100059782Y-71110858D01*
X60178958Y-57251566D02*
X61593172Y-55837352D01*
X61091126Y-55335306D02*
X59676912Y-56749520D01*
X61091126Y-55335306D02*
X58333410Y-52577590D01*
X59676912Y-56749520D02*
X60886065Y-56544459D01*
X59676912Y-56749520D02*
X56919196Y-53991804D01*
X60886065Y-56544459D02*
X61091126Y-55335306D01*
X106487381Y-90549224D02*
X103729665Y-87791508D01*
X106487381Y-90549224D02*
X107696534Y-90344163D01*
X107696534Y-90344163D02*
X107901595Y-89135010D01*
X107901595Y-89135010D02*
X105143879Y-86377294D01*
X106989427Y-91051270D02*
X108403641Y-89637056D01*
X107901595Y-89135010D02*
X106487381Y-90549224D01*
X79617324Y-63679166D02*
X76859608Y-60921450D01*
X80826477Y-63474105D02*
X81031538Y-62264952D01*
X81031538Y-62264952D02*
X79617324Y-63679166D01*
X79617324Y-63679166D02*
X80826477Y-63474105D01*
X80119370Y-64181212D02*
X81533584Y-62766998D01*
X81031538Y-62264952D02*
X78273822Y-59507236D01*
X119575928Y-105476248D02*
X119780989Y-104267095D01*
X118366775Y-105681309D02*
X119575928Y-105476248D01*
X119780989Y-104267095D02*
X118366775Y-105681309D01*
X119780989Y-104267095D02*
X117023273Y-101509379D01*
X118366775Y-105681309D02*
X115609059Y-102923593D01*
X118868821Y-106183355D02*
X120283035Y-104769141D01*
X104693036Y-120498036D02*
X104898097Y-119288883D01*
X103483883Y-120703097D02*
X104693036Y-120498036D01*
X104898097Y-119288883D02*
X103483883Y-120703097D01*
X103483883Y-120703097D02*
X100726167Y-117945381D01*
X103985929Y-121205143D02*
X105400143Y-119790929D01*
X104898097Y-119288883D02*
X102140381Y-116531167D01*
X72080000Y-99125000D02*
X70080000Y-99125000D01*
X72080000Y-99835000D02*
X72080000Y-103735000D01*
X72080000Y-99835000D02*
X71080000Y-99125000D01*
X70080000Y-99835000D02*
X72080000Y-99835000D01*
X70080000Y-99835000D02*
X70080000Y-103735000D01*
X71080000Y-99125000D02*
X70080000Y-99835000D01*
X105915929Y-119325143D02*
X107330143Y-117910929D01*
X106623036Y-118618036D02*
X106828097Y-117408883D01*
X106828097Y-117408883D02*
X104070381Y-114651167D01*
X105413883Y-118823097D02*
X102656167Y-116065381D01*
X105413883Y-118823097D02*
X106623036Y-118618036D01*
X106828097Y-117408883D02*
X105413883Y-118823097D01*
X243538097Y-68821117D02*
X240780381Y-71578833D01*
X244040143Y-68319071D02*
X242625929Y-66904857D01*
X243333036Y-67611964D02*
X242123883Y-67406903D01*
X242123883Y-67406903D02*
X243538097Y-68821117D01*
X242123883Y-67406903D02*
X239366167Y-70164619D01*
X243538097Y-68821117D02*
X243333036Y-67611964D01*
X81356808Y-144869168D02*
X80013305Y-143525665D01*
X82558889Y-144091351D02*
X81851783Y-144798458D01*
X81427518Y-142959980D02*
X82558889Y-144091351D01*
X81427518Y-142959980D02*
X81003254Y-142535716D01*
X81851783Y-144798458D02*
X81356808Y-144869168D01*
X95322167Y-131328072D02*
X94827192Y-131398782D01*
X94897902Y-129489594D02*
X94473638Y-129065330D01*
X94827192Y-131398782D02*
X93483689Y-130055279D01*
X94897902Y-129489594D02*
X96029273Y-130620965D01*
X96029273Y-130620965D02*
X95322167Y-131328072D01*
X49297293Y-69165607D02*
X47953790Y-67822104D01*
X49368003Y-67256419D02*
X50499374Y-68387790D01*
X50499374Y-68387790D02*
X49792268Y-69094897D01*
X49792268Y-69094897D02*
X49297293Y-69165607D01*
X49368003Y-67256419D02*
X48943739Y-66832155D01*
X82973254Y-116311952D02*
X81629751Y-114968449D01*
X83043964Y-114402764D02*
X84175335Y-115534135D01*
X83468229Y-116241242D02*
X82973254Y-116311952D01*
X84175335Y-115534135D02*
X83468229Y-116241242D01*
X83043964Y-114402764D02*
X82619700Y-113978500D01*
X35897618Y-80726804D02*
X37028989Y-81858175D01*
X36321883Y-82565282D02*
X35826908Y-82635992D01*
X37028989Y-81858175D02*
X36321883Y-82565282D01*
X35897618Y-80726804D02*
X35473354Y-80302540D01*
X35826908Y-82635992D02*
X34483405Y-81292489D01*
X88162709Y-82343250D02*
X89294080Y-83474621D01*
X88162709Y-82343250D02*
X87738445Y-81918986D01*
X88091999Y-84252438D02*
X86748496Y-82908935D01*
X88586974Y-84181728D02*
X88091999Y-84252438D01*
X89294080Y-83474621D02*
X88586974Y-84181728D01*
X69573580Y-127873148D02*
X70704951Y-129004519D01*
X69573580Y-127873148D02*
X69149316Y-127448884D01*
X70704951Y-129004519D02*
X69997845Y-129711626D01*
X69997845Y-129711626D02*
X69502870Y-129782336D01*
X69502870Y-129782336D02*
X68159367Y-128438833D01*
X75116591Y-97652112D02*
X74621616Y-97722822D01*
X74692326Y-95813634D02*
X75823697Y-96945005D01*
X74692326Y-95813634D02*
X74268062Y-95389370D01*
X75823697Y-96945005D02*
X75116591Y-97652112D01*
X74621616Y-97722822D02*
X73278113Y-96379319D01*
X69573580Y-73991613D02*
X69149316Y-73567349D01*
X69573580Y-73991613D02*
X70704951Y-75122984D01*
X69997845Y-75830091D02*
X69502870Y-75900801D01*
X69502870Y-75900801D02*
X68159367Y-74557298D01*
X70704951Y-75122984D02*
X69997845Y-75830091D01*
X96443637Y-102841568D02*
X95100134Y-101498065D01*
X96514347Y-100932380D02*
X96090083Y-100508116D01*
X96938612Y-102770858D02*
X96443637Y-102841568D01*
X97645718Y-102063751D02*
X96938612Y-102770858D01*
X96514347Y-100932380D02*
X97645718Y-102063751D01*
X56103196Y-87461996D02*
X55678932Y-87037732D01*
X57234567Y-88593367D02*
X56527461Y-89300474D01*
X56032486Y-89371184D02*
X54688983Y-88027681D01*
X56527461Y-89300474D02*
X56032486Y-89371184D01*
X56103196Y-87461996D02*
X57234567Y-88593367D01*
X108792550Y-117857689D02*
X108297575Y-117928399D01*
X108368285Y-116019211D02*
X107944021Y-115594947D01*
X108297575Y-117928399D02*
X106954072Y-116584896D01*
X108368285Y-116019211D02*
X109499656Y-117150582D01*
X109499656Y-117150582D02*
X108792550Y-117857689D01*
X62767677Y-55695223D02*
X61424174Y-54351720D01*
X63969758Y-54917406D02*
X63262652Y-55624513D01*
X62838387Y-53786035D02*
X62414123Y-53361771D01*
X63262652Y-55624513D02*
X62767677Y-55695223D01*
X62838387Y-53786035D02*
X63969758Y-54917406D01*
X83043964Y-60521227D02*
X82619700Y-60096963D01*
X83043964Y-60521227D02*
X84175335Y-61652598D01*
X83468229Y-62359705D02*
X82973254Y-62430415D01*
X84175335Y-61652598D02*
X83468229Y-62359705D01*
X82973254Y-62430415D02*
X81629751Y-61086912D01*
X109984731Y-87461996D02*
X109560467Y-87037732D01*
X110408996Y-89300474D02*
X109914021Y-89371184D01*
X111116102Y-88593367D02*
X110408996Y-89300474D01*
X109984731Y-87461996D02*
X111116102Y-88593367D01*
X109914021Y-89371184D02*
X108570518Y-88027681D01*
X58278610Y-114490092D02*
X57783635Y-114560802D01*
X57783635Y-114560802D02*
X56440132Y-113217299D01*
X57854345Y-112651614D02*
X57430081Y-112227350D01*
X57854345Y-112651614D02*
X58985716Y-113782985D01*
X58985716Y-113782985D02*
X58278610Y-114490092D01*
X121838671Y-102548826D02*
X121414407Y-102124562D01*
X121767961Y-104458014D02*
X120424458Y-103114511D01*
X121838671Y-102548826D02*
X122970042Y-103680197D01*
X122262936Y-104387304D02*
X121767961Y-104458014D01*
X122970042Y-103680197D02*
X122262936Y-104387304D01*
X101633093Y-68872866D02*
X101208829Y-68448602D01*
X101562383Y-70782054D02*
X100218880Y-69438551D01*
X101633093Y-68872866D02*
X102764464Y-70004237D01*
X102764464Y-70004237D02*
X102057358Y-70711344D01*
X102057358Y-70711344D02*
X101562383Y-70782054D01*
D14*
X147780081Y-48191888D03*
D15*
X145984030Y-49987939D03*
X144187979Y-51783990D03*
X142391927Y-53580041D03*
X140595876Y-55376092D03*
X138799825Y-57172144D03*
X137003774Y-58968195D03*
X135207722Y-60764246D03*
X133411671Y-62560297D03*
X131615620Y-64356349D03*
X129819569Y-66152400D03*
X128185162Y-68110096D03*
X138799825Y-78724758D03*
X140595876Y-76928707D03*
X142391927Y-75132656D03*
X144187979Y-73336605D03*
X145984030Y-71540554D03*
X147780081Y-69744502D03*
X149576132Y-67948451D03*
X151372184Y-66152400D03*
X153168235Y-64356349D03*
X154964286Y-62560297D03*
X156760337Y-60764246D03*
X158556388Y-58968195D03*
X129819569Y-69744502D03*
X131615620Y-71540554D03*
X133411671Y-73336605D03*
X135207722Y-75132656D03*
X137003774Y-76928707D03*
M02*
