0
SECTION
2
HEADER
9
$INSUNITS
70
4
9
$ACADVER
1
AC1014
9
$HANDSEED
5
FFFF
0
ENDSEC
0
SECTION
2
TABLES
0
TABLE
2
VPORT
5
8
100
AcDbSymbolTable
0
ENDTAB
0
TABLE
2
LTYPE
5
5
100
AcDbSymbolTable
0
LTYPE
5
14
100
AcDbSymbolTableRecord
100
AcDbLinetypeTableRecord
2
BYBLOCK
70
0
0
LTYPE
5
15
100
AcDbSymbolTableRecord
100
AcDbLinetypeTableRecord
2
BYLAYER
70
0
0
ENDTAB
0
TABLE
2
LAYER
5
2
100
AcDbSymbolTable
70
2
0
LAYER
5
50
100
AcDbSymbolTableRecord
100
AcDbLayerTableRecord
2
0
70
0
6
CONTINUOUS
0
ENDTAB
0
TABLE
2
STYLE
5
3
100
AcDbSymbolTable
70
1
0
STYLE
5
11
100
AcDbSymbolTableRecord
100
AcDbTextStyleTableRecord
2
STANDARD
70
0
0
ENDTAB
0
TABLE
2
VIEW
5
6
100
AcDbSymbolTable
70
0
0
ENDTAB
0
TABLE
2
UCS
5
7
100
AcDbSymbolTable
70
0
0
ENDTAB
0
TABLE
2
APPID
5
9
100
AcDbSymbolTable
70
2
0
APPID
5
12
100
AcDbSymbolTableRecord
100
AcDbRegAppTableRecord
2
ACAD
70
0
0
ENDTAB
0
TABLE
2
DIMSTYLE
5
A
100
AcDbSymbolTable
70
1
0
ENDTAB
0
TABLE
2
BLOCK_RECORD
5
1
100
AcDbSymbolTable
70
1
0
BLOCK_RECORD
5
1F
100
AcDbSymbolTableRecord
100
AcDbBlockTableRecord
2
*MODEL_SPACE
0
BLOCK_RECORD
5
1B
100
AcDbSymbolTableRecord
100
AcDbBlockTableRecord
2
*PAPER_SPACE
0
ENDTAB
0
ENDSEC
0
SECTION
2
BLOCKS
0
BLOCK
5
20
100
AcDbEntity
100
AcDbBlockBegin
2
*MODEL_SPACE
0
ENDBLK
5
21
100
AcDbEntity
100
AcDbBlockEnd
0
BLOCK
5
1C
100
AcDbEntity
100
AcDbBlockBegin
2
*PAPER_SPACE
0
ENDBLK
5
1D
100
AcDbEntity
100
AcDbBlockEnd
0
ENDSEC
0
SECTION
2
ENTITIES
0
LINE
5
100
100
AcDbEntity
8
0
100
AcDbLine
10
-66.098928999999998
20
-32.191400000000002
30
0
11
-47.572730999999997
21
-40.535260000000008
31
0
0
LINE
5
101
100
AcDbEntity
8
0
100
AcDbLine
10
-47.572730999999997
20
-40.535260000000008
30
0
11
-27.499999000000003
21
-47.274999000000008
31
0
0
ARC
5
102
100
AcDbEntity
8
0
100
AcDbCircle
10
-27.400000000000002
20
-47.125
30
0
40
0.18027617702292439
210
0
220
0
230
1
100
AcDbArc
50
236.31002062205272
51
326.31002062205243
0
LINE
5
103
100
AcDbEntity
8
0
100
AcDbLine
10
-27.250000999999937
20
-47.224999000000039
30
0
11
12.602055999999999
21
-7.3719519999999994
31
0
0
ARC
5
104
100
AcDbEntity
8
0
100
AcDbCircle
10
12.248502999999999
20
-7.0183980000000012
30
0
40
0.50000015472497461
210
0
220
0
230
1
100
AcDbArc
50
-45.000081028443255
51
44.999918971556468
0
LINE
5
105
100
AcDbEntity
8
0
100
AcDbLine
10
12.602057000000018
20
-6.6648449999999846
30
0
11
-0.62084100000000086
21
6.5580520000000018
31
0
0
ARC
5
106
100
AcDbEntity
8
0
100
AcDbCircle
10
-0.97439400000000009
20
6.2044990000000011
30
0
40
0.49999944761769499
210
0
220
-0
230
1
100
AcDbArc
50
45.000000000000121
51
135.00000000000006
0
LINE
5
107
100
AcDbEntity
8
0
100
AcDbLine
10
-1.3279470000002163
20
6.5580520000002167
30
0
11
-3.095714249658017
21
4.7902852496562502
31
0
0
ARC
5
108
100
AcDbEntity
8
0
100
AcDbCircle
10
-3.4492680000000004
20
5.1438379999999997
30
0
40
0.49999944761799997
210
0
220
0
230
1
100
AcDbArc
50
224.99999999999997
51
315.0000810283575
0
LINE
5
109
100
AcDbEntity
8
0
100
AcDbLine
10
-3.8028210000002165
20
4.7902849999997841
30
0
11
-16.106479249657248
21
17.093942750342748
31
0
0
ARC
5
110
100
AcDbEntity
8
0
100
AcDbCircle
10
-15.752926
20
17.447496000000001
30
0
40
0.5000001547249997
210
0
220
0
230
1
100
AcDbArc
50
134.9999189715567
51
225.0000000000004
0
LINE
5
111
100
AcDbEntity
8
0
100
AcDbLine
10
-16.106479000000018
20
17.801050000000018
30
0
11
-9.3889650000000007
21
24.518564000000005
31
0
0
ARC
5
112
100
AcDbEntity
8
0
100
AcDbCircle
10
-9.7425180000000005
20
24.872118000000004
30
0
40
0.50000015472497461
210
0
220
0
230
1
100
AcDbArc
50
-45.000081028443311
51
44.999918971555971
0
LINE
5
113
100
AcDbEntity
8
0
100
AcDbLine
10
-9.3889639999999801
20
25.225671000000016
30
0
11
-22.116887249655207
21
37.953592750346594
31
0
0
ARC
5
114
100
AcDbEntity
8
0
100
AcDbCircle
10
-21.763332999999999
20
38.307146000000003
30
0
40
0.50000086183099712
210
0
220
0
230
1
100
AcDbArc
50
135
51
224.99991897146811
0
LINE
5
115
100
AcDbEntity
8
0
100
AcDbLine
10
-22.116886999999817
20
38.660699999999821
30
0
11
-21.056227
21
39.721359999999997
31
0
0
ARC
5
116
100
AcDbEntity
8
0
100
AcDbCircle
10
-21.409780000000001
20
40.074913000000009
30
0
40
0.49999944761770088
210
0
220
0
230
1
100
AcDbArc
50
-45.00000000000086
51
44.999999999999133
0
LINE
5
117
100
AcDbEntity
8
0
100
AcDbLine
10
-21.05622699999978
20
40.428466000000221
30
0
11
-33.854858750342046
21
53.227099249659744
31
0
0
ARC
5
118
100
AcDbEntity
8
0
100
AcDbCircle
10
-33.501306
20
53.580652999999998
30
0
40
0.49999944761800225
210
0
220
0
230
1
100
AcDbArc
50
134.99999999999943
51
225.00008102835531
0
LINE
5
119
100
AcDbEntity
8
0
100
AcDbLine
10
-33.854859000000211
20
53.934206000000216
30
0
11
-32.935620999999998
21
54.853445000000001
31
0
0
ARC
5
120
100
AcDbEntity
8
0
100
AcDbCircle
10
-33.289174000000003
20
55.206997999999999
30
0
40
0.49999944761769777
210
0
220
0
230
1
100
AcDbArc
50
-44.999999999999439
51
45.000000000000568
0
LINE
5
121
100
AcDbEntity
8
0
100
AcDbLine
10
-32.935620999999784
20
55.560551000000224
30
0
11
-46.512070999999999
21
69.137001999999995
31
0
0
LINE
5
122
100
AcDbEntity
8
0
100
AcDbLine
10
-46.512070999999999
20
69.137001999999995
30
0
11
-46.582780999999997
21
69.207712999999998
31
0
0
LINE
5
123
100
AcDbEntity
8
0
100
AcDbLine
10
-46.582780999999997
20
69.207712999999998
30
0
11
-47.582780999999997
21
70.207712999999998
31
0
0
ARC
5
124
100
AcDbEntity
8
0
100
AcDbCircle
10
-50.269787000000008
20
67.520707000000016
30
0
40
3.8000003273778789
210
0
220
-0
230
1
100
AcDbArc
50
44.999999999999702
51
135.00000000000009
0
LINE
5
125
100
AcDbEntity
8
0
100
AcDbLine
10
-52.956793000000097
20
70.207713000000098
30
0
11
-90.928426999999999
21
32.377499999999998
31
0
0
LINE
5
126
100
AcDbEntity
8
0
100
AcDbLine
10
-90.928426999999999
20
32.377499999999998
30
0
11
-91.930000000000007
21
31.379999999999999
31
0
0
LINE
5
127
100
AcDbEntity
8
0
100
AcDbLine
10
-91.930000000000007
20
31.379999999999999
30
0
11
-119.02000000000001
21
31.379999999999999
31
0
0
LINE
5
128
100
AcDbEntity
8
0
100
AcDbLine
10
-119.02000000000001
20
31.379999999999999
30
0
11
-120.017127
21
32.374577000000002
31
0
0
LINE
5
129
100
AcDbEntity
8
0
100
AcDbLine
10
-120.017127
20
32.374577000000002
30
0
11
-157.98876100000001
21
70.204790000000003
31
0
0
ARC
5
130
100
AcDbEntity
8
0
100
AcDbCircle
10
-160.67576700000001
20
67.517784000000006
30
0
40
3.8000003273778722
210
0
220
-0
230
1
100
AcDbArc
50
45
51
135.00000000000017
0
LINE
5
131
100
AcDbEntity
8
0
100
AcDbLine
10
-163.36277300000009
20
70.204790000000074
30
0
11
-164.362773
21
69.204790000000003
31
0
0
LINE
5
132
100
AcDbEntity
8
0
100
AcDbLine
10
-164.362773
20
69.204790000000003
30
0
11
-164.433483
21
69.134079
31
0
0
LINE
5
133
100
AcDbEntity
8
0
100
AcDbLine
10
-164.433483
20
69.134079
30
0
11
-178.00993275034375
21
55.557628750342019
31
0
0
ARC
5
134
100
AcDbEntity
8
0
100
AcDbCircle
10
-177.65638000000001
20
55.20407500000001
30
0
40
0.49999980165647784
210
0
220
0
230
1
100
AcDbArc
50
134.99991897163952
51
225.0000000000029
0
LINE
5
135
100
AcDbEntity
8
0
100
AcDbLine
10
-178.00993300000022
20
54.850521999999771
30
0
11
-177.09069500000001
21
53.931283000000008
31
0
0
ARC
5
136
100
AcDbEntity
8
0
100
AcDbCircle
10
-177.44424800000002
20
53.57773000000001
30
0
40
0.49999944761799597
210
0
220
0
230
1
100
AcDbArc
50
-45.000000000001727
51
44.999999999999424
0
LINE
5
137
100
AcDbEntity
8
0
100
AcDbLine
10
-177.09069499999981
20
53.224176999999784
30
0
11
-189.88932675034209
21
40.425543750340225
31
0
0
ARC
5
138
100
AcDbEntity
8
0
100
AcDbCircle
10
-189.535774
20
40.07199
30
0
40
0.49999980165405988
210
0
220
0
230
1
100
AcDbArc
50
134.99991897165049
51
224.99999999999653
0
LINE
5
139
100
AcDbEntity
8
0
100
AcDbLine
10
-189.88932700000024
20
39.71843699999981
30
0
11
-188.828667
21
38.65777700000001
31
0
0
ARC
5
140
100
AcDbEntity
8
0
100
AcDbCircle
10
-189.18222100000003
20
38.304223000000007
30
0
40
0.50000086183100023
210
0
220
0
230
1
100
AcDbArc
50
-44.999999999998835
51
44.999999999997691
0
LINE
5
141
100
AcDbEntity
8
0
100
AcDbLine
10
-188.82866700000019
20
37.95066900000019
30
0
11
-201.55658924965479
21
25.222748249654696
31
0
0
ARC
5
142
100
AcDbEntity
8
0
100
AcDbCircle
10
-201.203036
20
24.869195000000005
30
0
40
0.4999998006828188
210
0
220
0
230
1
100
AcDbArc
50
135.00000000000836
51
225.00008102844143
0
LINE
5
143
100
AcDbEntity
8
0
100
AcDbLine
10
-201.55658900000003
20
24.515640999999995
30
0
11
-194.83907500000001
21
17.798127000000001
31
0
0
ARC
5
144
100
AcDbEntity
8
0
100
AcDbCircle
10
-195.19262800000004
20
17.444572999999998
30
0
40
0.50000015472499504
210
0
220
0
230
1
100
AcDbArc
50
-44.999918971558266
51
45.000081028440874
0
LINE
5
145
100
AcDbEntity
8
0
100
AcDbLine
10
-194.83907400000004
20
17.091019999999975
30
0
11
-207.14273300000002
21
4.7873619999999999
31
0
0
ARC
5
146
100
AcDbEntity
8
0
100
AcDbCircle
10
-207.496286
20
5.1409150000000006
30
0
40
0.49999944761799758
210
0
220
0
230
1
100
AcDbArc
50
225.00000000000165
51
314.99999999999807
0
LINE
5
147
100
AcDbEntity
8
0
100
AcDbLine
10
-207.8498390000002
20
4.7873619999997761
30
0
11
-209.61760699999999
21
6.5551290000000009
31
0
0
ARC
5
148
100
AcDbEntity
8
0
100
AcDbCircle
10
-209.97116000000003
20
6.2015760000000011
30
0
40
0.49999944761771342
210
0
220
-0
230
1
100
AcDbArc
50
44.999999999997272
51
134.99999999999841
0
LINE
5
149
100
AcDbEntity
8
0
100
AcDbLine
10
-210.32471300000023
20
6.5551290000002247
30
0
11
-223.54761024965725
21
-6.6677677503427448
31
0
0
ARC
5
150
100
AcDbEntity
8
0
100
AcDbCircle
10
-223.19405700000002
20
-7.0213210000000004
30
0
40
0.49999980068636485
210
0
220
0
230
1
100
AcDbArc
50
134.99999999999861
51
225.00008102844419
0
LINE
5
151
100
AcDbEntity
8
0
100
AcDbLine
10
-223.54761000000002
20
-7.3748750000000154
30
0
11
-183.69555299999999
21
-47.227922
31
0
0
ARC
5
152
100
AcDbEntity
8
0
100
AcDbCircle
10
-183.54555400000004
20
-47.127923000000003
30
0
40
0.18027617702288495
210
0
220
0
230
1
100
AcDbArc
50
213.68997937795638
51
303.68997937795137
0
LINE
5
153
100
AcDbEntity
8
0
100
AcDbLine
10
-183.44555499999998
20
-47.277922000000068
30
0
11
-163.37282300000001
21
-40.538182999999997
31
0
0
LINE
5
154
100
AcDbEntity
8
0
100
AcDbLine
10
-163.37282300000001
20
-40.538182999999997
30
0
11
-144.84662499999999
21
-32.194322999999997
31
0
0
LINE
5
155
100
AcDbEntity
8
0
100
AcDbLine
10
-144.84662499999999
20
-32.194322999999997
30
0
11
-126.24833193836929
21
-24.639622225228344
31
0
0
ARC
5
156
100
AcDbEntity
8
0
100
AcDbCircle
10
-126.012086
20
-25.311251000000002
30
0
40
0.71196701006199836
210
0
220
-0
230
1
100
AcDbArc
50
34.479344366553072
51
109.37936193785032
0
LINE
5
157
100
AcDbEntity
8
0
100
AcDbLine
10
-125.42519000000021
20
-24.90820000000015
30
0
11
-123.02102400000001
21
-27.312363000000005
31
0
0
LINE
5
158
100
AcDbEntity
8
0
100
AcDbLine
10
-123.02102400000001
20
-27.312363000000005
30
0
11
-114.46503200000001
21
-35.868355000000001
31
0
0
LINE
5
159
100
AcDbEntity
8
0
100
AcDbLine
10
-114.46503200000001
20
-35.868355000000001
30
0
11
-110.92949900000001
21
-39.403889000000007
31
0
0
LINE
5
160
100
AcDbEntity
8
0
100
AcDbLine
10
-110.92949900000001
20
-39.403889000000007
30
0
11
-110.85878600000001
21
-39.474600000000002
31
0
0
ARC
5
161
100
AcDbEntity
8
0
100
AcDbCircle
10
-109.79812800000002
20
-38.696781999999999
30
0
40
1.3152932122108738
210
0
220
0
230
1
100
AcDbArc
50
216.25391267715074
51
306.2538629973252
0
LINE
5
162
100
AcDbEntity
8
0
100
AcDbLine
10
-109.02031091967189
20
-39.757440674427428
30
0
11
-95.019596000000007
21
-33.393481000000008
31
0
0
LINE
5
163
100
AcDbEntity
8
0
100
AcDbLine
10
-95.019596000000007
20
-33.393481000000008
30
0
11
-86.25590700893774
21
-24.62635598861263
31
0
0
ARC
5
164
100
AcDbEntity
8
0
100
AcDbCircle
10
-85.278492999999997
20
-25.739757000000001
30
0
40
1.4815532392339994
210
0
220
-0
230
1
100
AcDbArc
50
67.87868104858812
51
131.27871310518597
0
LINE
5
165
100
AcDbEntity
8
0
100
AcDbLine
10
-84.72058600000004
20
-24.367263000000072
30
0
11
-66.098928999999998
21
-32.191400000000002
31
0
0
CIRCLE
5
166
100
AcDbEntity
8
0
100
AcDbCircle
10
-94.950000000000017
20
27.625
30
0
40
1.1000000000000001
210
0
220
0
230
1
0
CIRCLE
5
167
100
AcDbEntity
8
0
100
AcDbCircle
10
-116.00000000000001
20
27.625
30
0
40
1.1000000000000001
210
0
220
0
230
1
0
CIRCLE
5
168
100
AcDbEntity
8
0
100
AcDbCircle
10
-170.10000000000002
20
-37.575000000000003
30
0
40
1.1000000000000001
210
0
220
0
230
1
0
CIRCLE
5
169
100
AcDbEntity
8
0
100
AcDbCircle
10
-132.19999999999999
20
-13.175000000000001
30
0
40
1.1000000000000001
210
0
220
0
230
1
0
CIRCLE
5
170
100
AcDbEntity
8
0
100
AcDbCircle
10
-202.5
20
4.2249999999999996
30
0
40
1.1000000000000001
210
0
220
0
230
1
0
CIRCLE
5
171
100
AcDbEntity
8
0
100
AcDbCircle
10
-78.75
20
-13.175000000000001
30
0
40
1.1000000000000001
210
0
220
0
230
1
0
CIRCLE
5
172
100
AcDbEntity
8
0
100
AcDbCircle
10
-8.4499999999999993
20
4.2249999999999996
30
0
40
1.1000000000000001
210
0
220
0
230
1
0
CIRCLE
5
173
100
AcDbEntity
8
0
100
AcDbCircle
10
-40.850000000000001
20
-37.575000000000003
30
0
40
1.1000000000000001
210
0
220
0
230
1
0
CIRCLE
5
174
100
AcDbEntity
8
0
100
AcDbCircle
10
-160.10000000000002
20
66.325000000000003
30
0
40
1.1000000000000001
210
0
220
0
230
1
0
CIRCLE
5
175
100
AcDbEntity
8
0
100
AcDbCircle
10
-50.850000000000009
20
66.325000000000003
30
0
40
1.1000000000000001
210
0
220
0
230
1
0
ENDSEC
0
SECTION
2
OBJECTS
0
DICTIONARY
5
C
100
AcDbDictionary
3
ACAD_GROUP
350
D
3
ACAD_MLINESTYLE
350
17
0
DICTIONARY
5
D
100
AcDbDictionary
0
DICTIONARY
5
1A
330
C
100
AcDbDictionary
0
DICTIONARY
5
17
100
AcDbDictionary
0
ENDSEC
0
EOF
