0
SECTION
2
HEADER
9
$INSUNITS
70
4
9
$ACADVER
1
AC1014
9
$HANDSEED
5
FFFF
0
ENDSEC
0
SECTION
2
TABLES
0
TABLE
2
VPORT
5
8
100
AcDbSymbolTable
0
ENDTAB
0
TABLE
2
LTYPE
5
5
100
AcDbSymbolTable
0
LTYPE
5
14
100
AcDbSymbolTableRecord
100
AcDbLinetypeTableRecord
2
BYBLOCK
70
0
0
LTYPE
5
15
100
AcDbSymbolTableRecord
100
AcDbLinetypeTableRecord
2
BYLAYER
70
0
0
ENDTAB
0
TABLE
2
LAYER
5
2
100
AcDbSymbolTable
70
2
0
LAYER
5
50
100
AcDbSymbolTableRecord
100
AcDbLayerTableRecord
2
0
70
0
6
CONTINUOUS
0
ENDTAB
0
TABLE
2
STYLE
5
3
100
AcDbSymbolTable
70
1
0
STYLE
5
11
100
AcDbSymbolTableRecord
100
AcDbTextStyleTableRecord
2
STANDARD
70
0
0
ENDTAB
0
TABLE
2
VIEW
5
6
100
AcDbSymbolTable
70
0
0
ENDTAB
0
TABLE
2
UCS
5
7
100
AcDbSymbolTable
70
0
0
ENDTAB
0
TABLE
2
APPID
5
9
100
AcDbSymbolTable
70
2
0
APPID
5
12
100
AcDbSymbolTableRecord
100
AcDbRegAppTableRecord
2
ACAD
70
0
0
ENDTAB
0
TABLE
2
DIMSTYLE
5
A
100
AcDbSymbolTable
70
1
0
ENDTAB
0
TABLE
2
BLOCK_RECORD
5
1
100
AcDbSymbolTable
70
1
0
BLOCK_RECORD
5
1F
100
AcDbSymbolTableRecord
100
AcDbBlockTableRecord
2
*MODEL_SPACE
0
BLOCK_RECORD
5
1B
100
AcDbSymbolTableRecord
100
AcDbBlockTableRecord
2
*PAPER_SPACE
0
ENDTAB
0
ENDSEC
0
SECTION
2
BLOCKS
0
BLOCK
5
20
100
AcDbEntity
100
AcDbBlockBegin
2
*MODEL_SPACE
0
ENDBLK
5
21
100
AcDbEntity
100
AcDbBlockEnd
0
BLOCK
5
1C
100
AcDbEntity
100
AcDbBlockBegin
2
*PAPER_SPACE
0
ENDBLK
5
1D
100
AcDbEntity
100
AcDbBlockEnd
0
ENDSEC
0
SECTION
2
ENTITIES
0
ARC
5
100
100
AcDbEntity
8
0
100
AcDbCircle
10
-50.269787000000008
20
67.520707000000016
30
0
40
3.8000003273780041
210
0
220
-0
230
1
100
AcDbArc
50
44.999999999999694
51
135.00000000000009
0
LINE
5
101
100
AcDbEntity
8
0
100
AcDbLine
10
-52.956793000000097
20
70.207713000000098
30
0
11
-90.928426999999999
21
32.377499999999998
31
0
0
LINE
5
102
100
AcDbEntity
8
0
100
AcDbLine
10
-90.928426999999999
20
32.377499999999998
30
0
11
-91.930000000000007
21
31.379999999999999
31
0
0
LINE
5
103
100
AcDbEntity
8
0
100
AcDbLine
10
-91.930000000000007
20
31.379999999999999
30
0
11
-119.02000000000001
21
31.379999999999999
31
0
0
LINE
5
104
100
AcDbEntity
8
0
100
AcDbLine
10
-119.02000000000001
20
31.379999999999999
30
0
11
-120.017127
21
32.374577000000002
31
0
0
LINE
5
105
100
AcDbEntity
8
0
100
AcDbLine
10
-120.017127
20
32.374577000000002
30
0
11
-157.98876100000001
21
70.204790000000003
31
0
0
ARC
5
106
100
AcDbEntity
8
0
100
AcDbCircle
10
-160.67576700000001
20
67.517784000000006
30
0
40
3.8000003273778722
210
0
220
-0
230
1
100
AcDbArc
50
45
51
135.00000000000017
0
LINE
5
107
100
AcDbEntity
8
0
100
AcDbLine
10
-163.36277300000009
20
70.204790000000074
30
0
11
-164.362773
21
69.204790000000003
31
0
0
LINE
5
108
100
AcDbEntity
8
0
100
AcDbLine
10
-164.362773
20
69.204790000000003
30
0
11
-164.433483
21
69.134079
31
0
0
LINE
5
109
100
AcDbEntity
8
0
100
AcDbLine
10
-164.433483
20
69.134079
30
0
11
-178.00993275034375
21
55.557628750342019
31
0
0
ARC
5
110
100
AcDbEntity
8
0
100
AcDbCircle
10
-177.65638000000001
20
55.20407500000001
30
0
40
0.49999980165647784
210
0
220
0
230
1
100
AcDbArc
50
134.99991897163952
51
225.0000000000029
0
LINE
5
111
100
AcDbEntity
8
0
100
AcDbLine
10
-178.00993300000022
20
54.850521999999771
30
0
11
-177.09069500000001
21
53.931283000000008
31
0
0
ARC
5
112
100
AcDbEntity
8
0
100
AcDbCircle
10
-177.44424800000002
20
53.57773000000001
30
0
40
0.49999944761799597
210
0
220
0
230
1
100
AcDbArc
50
-45.000000000001727
51
44.999999999999424
0
LINE
5
113
100
AcDbEntity
8
0
100
AcDbLine
10
-177.09069499999981
20
53.224176999999784
30
0
11
-189.88932675034209
21
40.425543750340225
31
0
0
ARC
5
114
100
AcDbEntity
8
0
100
AcDbCircle
10
-189.535774
20
40.07199
30
0
40
0.49999980165405988
210
0
220
0
230
1
100
AcDbArc
50
134.99991897165049
51
224.99999999999653
0
LINE
5
115
100
AcDbEntity
8
0
100
AcDbLine
10
-189.88932700000024
20
39.71843699999981
30
0
11
-188.828667
21
38.65777700000001
31
0
0
ARC
5
116
100
AcDbEntity
8
0
100
AcDbCircle
10
-189.18222100000003
20
38.304223000000007
30
0
40
0.50000086183100023
210
0
220
0
230
1
100
AcDbArc
50
-44.999999999998835
51
44.999999999997691
0
LINE
5
117
100
AcDbEntity
8
0
100
AcDbLine
10
-188.82866700000019
20
37.95066900000019
30
0
11
-201.55658924965479
21
25.222748249654696
31
0
0
ARC
5
118
100
AcDbEntity
8
0
100
AcDbCircle
10
-201.203036
20
24.869195000000005
30
0
40
0.4999998006828188
210
0
220
0
230
1
100
AcDbArc
50
135.00000000000836
51
225.00008102844143
0
LINE
5
119
100
AcDbEntity
8
0
100
AcDbLine
10
-201.55658900000003
20
24.515640999999995
30
0
11
-194.83907500000001
21
17.798127000000001
31
0
0
ARC
5
120
100
AcDbEntity
8
0
100
AcDbCircle
10
-195.19262800000004
20
17.444572999999998
30
0
40
0.50000015472499504
210
0
220
0
230
1
100
AcDbArc
50
-44.999918971558266
51
45.000081028440874
0
LINE
5
121
100
AcDbEntity
8
0
100
AcDbLine
10
-194.83907400000004
20
17.091019999999975
30
0
11
-207.14273300000002
21
4.7873619999999999
31
0
0
ARC
5
122
100
AcDbEntity
8
0
100
AcDbCircle
10
-207.496286
20
5.1409150000000006
30
0
40
0.49999944761799758
210
0
220
0
230
1
100
AcDbArc
50
225.00000000000165
51
314.99999999999807
0
LINE
5
123
100
AcDbEntity
8
0
100
AcDbLine
10
-207.8498390000002
20
4.7873619999997761
30
0
11
-209.61760699999999
21
6.5551290000000009
31
0
0
ARC
5
124
100
AcDbEntity
8
0
100
AcDbCircle
10
-209.97116000000003
20
6.2015760000000011
30
0
40
0.49999944761771342
210
0
220
-0
230
1
100
AcDbArc
50
44.999999999997272
51
134.99999999999841
0
LINE
5
125
100
AcDbEntity
8
0
100
AcDbLine
10
-210.32471300000023
20
6.5551290000002247
30
0
11
-223.54761024965725
21
-6.6677677503427448
31
0
0
ARC
5
126
100
AcDbEntity
8
0
100
AcDbCircle
10
-223.19405700000002
20
-7.0213210000000004
30
0
40
0.49999980068636485
210
0
220
0
230
1
100
AcDbArc
50
134.99999999999861
51
225.00008102844419
0
LINE
5
127
100
AcDbEntity
8
0
100
AcDbLine
10
-223.54761000000002
20
-7.3748750000000154
30
0
11
-183.69555299999999
21
-47.227922
31
0
0
ARC
5
128
100
AcDbEntity
8
0
100
AcDbCircle
10
-183.54555400000004
20
-47.127923000000003
30
0
40
0.18027617702288495
210
0
220
0
230
1
100
AcDbArc
50
213.68997937795638
51
303.68997937795137
0
LINE
5
129
100
AcDbEntity
8
0
100
AcDbLine
10
-183.44555499999998
20
-47.277922000000068
30
0
11
-163.37282300000001
21
-40.538182999999997
31
0
0
LINE
5
130
100
AcDbEntity
8
0
100
AcDbLine
10
-163.37282300000001
20
-40.538182999999997
30
0
11
-144.58000000000001
21
-32.090000000000003
31
0
0
LINE
5
131
100
AcDbEntity
8
0
100
AcDbLine
10
-144.58000000000001
20
-32.090000000000003
30
0
11
-131.05000000000001
21
-18.57
31
0
0
LINE
5
132
100
AcDbEntity
8
0
100
AcDbLine
10
-131.05000000000001
20
-18.57
30
0
11
-128.150001
21
-15.669999000000001
31
0
0
ARC
5
133
100
AcDbEntity
8
0
100
AcDbCircle
10
-128.86000000000001
20
-14.960000000000003
30
0
40
1.0040902150713493
210
0
220
0
230
1
100
AcDbArc
50
-44.999999999999496
51
0
0
LINE
5
134
100
AcDbEntity
8
0
100
AcDbLine
10
-127.85590978492903
20
-14.960000000000003
30
0
11
-127.86000000000001
21
-5.1600000000000001
31
0
0
LINE
5
135
100
AcDbEntity
8
0
100
AcDbLine
10
-127.86000000000001
20
-5.1600000000000001
30
0
11
-120.56
21
2.1499999999999995
31
0
0
LINE
5
136
100
AcDbEntity
8
0
100
AcDbLine
10
-120.56
20
2.1499999999999995
30
0
11
-90.439999999999998
21
2.1499999999999999
31
0
0
LINE
5
137
100
AcDbEntity
8
0
100
AcDbLine
10
-90.439999999999998
20
2.1499999999999999
30
0
11
-83.140000000000001
21
-5.1600000000000001
31
0
0
LINE
5
138
100
AcDbEntity
8
0
100
AcDbLine
10
-83.140000000000001
20
-5.1600000000000001
30
0
11
-83.144090107092978
21
-14.960000000052453
31
0
0
ARC
5
139
100
AcDbEntity
8
0
100
AcDbCircle
10
-82.140000000000001
20
-14.960000000000003
30
0
40
1.0040901070929742
210
0
220
0
230
1
100
AcDbArc
50
180
51
224.99999999999949
0
LINE
5
140
100
AcDbEntity
8
0
100
AcDbLine
10
-82.849998999999769
20
-15.669998999999759
30
0
11
-79.950000000000017
21
-18.57
31
0
0
LINE
5
141
100
AcDbEntity
8
0
100
AcDbLine
10
-79.950000000000017
20
-18.57
30
0
11
-66.420000000000002
21
-32.090000000000003
31
0
0
LINE
5
142
100
AcDbEntity
8
0
100
AcDbLine
10
-66.420000000000002
20
-32.090000000000003
30
0
11
-47.572730999999997
21
-40.535260000000008
31
0
0
LINE
5
143
100
AcDbEntity
8
0
100
AcDbLine
10
-47.572730999999997
20
-40.535260000000008
30
0
11
-27.499999000000003
21
-47.274999000000008
31
0
0
ARC
5
144
100
AcDbEntity
8
0
100
AcDbCircle
10
-27.400000000000002
20
-47.125
30
0
40
0.18027617702292439
210
0
220
0
230
1
100
AcDbArc
50
236.31002062205272
51
326.31002062205243
0
LINE
5
145
100
AcDbEntity
8
0
100
AcDbLine
10
-27.250000999999937
20
-47.224999000000039
30
0
11
12.602055999999999
21
-7.3719519999999994
31
0
0
ARC
5
146
100
AcDbEntity
8
0
100
AcDbCircle
10
12.248502999999999
20
-7.0183980000000012
30
0
40
0.50000015472497461
210
0
220
0
230
1
100
AcDbArc
50
-45.000081028443255
51
44.999918971556468
0
LINE
5
147
100
AcDbEntity
8
0
100
AcDbLine
10
12.602057000000018
20
-6.6648449999999846
30
0
11
-0.62084100000000086
21
6.5580520000000018
31
0
0
ARC
5
148
100
AcDbEntity
8
0
100
AcDbCircle
10
-0.97439400000000009
20
6.2044990000000011
30
0
40
0.49999944761769499
210
0
220
-0
230
1
100
AcDbArc
50
45.000000000000121
51
135.00000000000006
0
LINE
5
149
100
AcDbEntity
8
0
100
AcDbLine
10
-1.3279470000002163
20
6.5580520000002167
30
0
11
-3.095714249658017
21
4.7902852496562502
31
0
0
ARC
5
150
100
AcDbEntity
8
0
100
AcDbCircle
10
-3.4492680000000004
20
5.1438379999999997
30
0
40
0.49999944761799997
210
0
220
0
230
1
100
AcDbArc
50
224.99999999999997
51
315.0000810283575
0
LINE
5
151
100
AcDbEntity
8
0
100
AcDbLine
10
-3.8028210000002165
20
4.7902849999997841
30
0
11
-16.106479249657248
21
17.093942750342748
31
0
0
ARC
5
152
100
AcDbEntity
8
0
100
AcDbCircle
10
-15.752926
20
17.447496000000001
30
0
40
0.5000001547249997
210
0
220
0
230
1
100
AcDbArc
50
134.9999189715567
51
225.0000000000004
0
LINE
5
153
100
AcDbEntity
8
0
100
AcDbLine
10
-16.106479000000018
20
17.801050000000018
30
0
11
-9.3889650000000007
21
24.518564000000005
31
0
0
ARC
5
154
100
AcDbEntity
8
0
100
AcDbCircle
10
-9.7425180000000005
20
24.872118000000004
30
0
40
0.50000015472497461
210
0
220
0
230
1
100
AcDbArc
50
-45.000081028443311
51
44.999918971555971
0
LINE
5
155
100
AcDbEntity
8
0
100
AcDbLine
10
-9.3889639999999801
20
25.225671000000016
30
0
11
-22.116887249655207
21
37.953592750346594
31
0
0
ARC
5
156
100
AcDbEntity
8
0
100
AcDbCircle
10
-21.763332999999999
20
38.307146000000003
30
0
40
0.50000086183099712
210
0
220
0
230
1
100
AcDbArc
50
135
51
224.99991897146811
0
LINE
5
157
100
AcDbEntity
8
0
100
AcDbLine
10
-22.116886999999817
20
38.660699999999821
30
0
11
-21.056227
21
39.721359999999997
31
0
0
ARC
5
158
100
AcDbEntity
8
0
100
AcDbCircle
10
-21.409780000000001
20
40.074913000000009
30
0
40
0.49999944761770088
210
0
220
0
230
1
100
AcDbArc
50
-45.00000000000086
51
44.999999999999133
0
LINE
5
159
100
AcDbEntity
8
0
100
AcDbLine
10
-21.05622699999978
20
40.428466000000221
30
0
11
-33.854858750342046
21
53.227099249659744
31
0
0
ARC
5
160
100
AcDbEntity
8
0
100
AcDbCircle
10
-33.501306
20
53.580652999999998
30
0
40
0.49999944761800225
210
0
220
0
230
1
100
AcDbArc
50
134.99999999999943
51
225.00008102835531
0
LINE
5
161
100
AcDbEntity
8
0
100
AcDbLine
10
-33.854859000000211
20
53.934206000000216
30
0
11
-32.935620999999998
21
54.853445000000001
31
0
0
ARC
5
162
100
AcDbEntity
8
0
100
AcDbCircle
10
-33.289174000000003
20
55.206997999999999
30
0
40
0.49999944761769777
210
0
220
0
230
1
100
AcDbArc
50
-44.999999999999439
51
45.000000000000568
0
LINE
5
163
100
AcDbEntity
8
0
100
AcDbLine
10
-32.935620999999784
20
55.560551000000224
30
0
11
-46.512070999999999
21
69.137001999999995
31
0
0
LINE
5
164
100
AcDbEntity
8
0
100
AcDbLine
10
-46.512070999999999
20
69.137001999999995
30
0
11
-46.582780999999997
21
69.207712999999998
31
0
0
LINE
5
165
100
AcDbEntity
8
0
100
AcDbLine
10
-46.582780999999997
20
69.207712999999998
30
0
11
-47.582780999999912
21
70.207713000000084
31
0
0
LWPOLYLINE
5
166
100
AcDbEntity
8
0
100
AcDbPolyline
90
12
70
1
43
0.0
10
-219.57496283354004
20
-7.1451890687119999
10
-220.24671427567
20
-7.8169405108390011
10
-211.40787951083001
20
-16.655775275671001
10
-210.73612806871
20
-15.984023833544001
10
-210.20579798282
20
-16.514353919434001
10
-200.51843508056004
20
-6.8269910171779999
10
-201.04876516645004
20
-6.2966609312880006
10
-200.37701372431999
20
-5.6249094891610003
10
-209.21584848916001
20
3.2139252756710004
10
-209.88759993127999
20
2.5421738335440001
10
-210.41793001716999
20
3.0725039194339998
10
-220.10529291943001
20
-6.6148589828220006
0
LWPOLYLINE
5
167
100
AcDbEntity
8
0
100
AcDbPolyline
90
12
70
1
43
0.0
10
-188.24907198282003
20
15.410457080560001
10
-178.56170908056001
20
25.097819982819999
10
-179.09203916645001
20
25.628150068710003
10
-178.42028772431999
20
26.299901510830001
10
-187.25912248916001
20
35.138736275669999
10
-187.93087393128002
20
34.466984833540003
10
-188.46120401716999
20
34.997314919430011
10
-198.14856691943004
20
25.309952017170005
10
-197.61823683354004
20
24.779621931280005
10
-198.28998827567003
20
24.10787048916
10
-189.45115351083001
20
15.269035724320002
10
-188.77940206871
20
15.940787166450001
0
LWPOLYLINE
5
168
100
AcDbEntity
8
0
100
AcDbPolyline
90
12
70
1
43
0.0
10
-176.74197001717002
20
50.218849919430006
10
-186.42933291943001
20
40.531487017170001
10
-185.89900283354001
20
40.001156931280008
10
-186.57075427567003
20
39.329405489160003
10
-177.73191951083004
20
30.490570724320001
10
-177.06016806871003
20
31.162322166450004
10
-176.52983798282003
20
30.63199208056
10
-166.84247508056001
20
40.319354982820002
10
-167.37280516645001
20
40.849685068710002
10
-166.70105372432002
20
41.521436510830007
10
-175.53988848916003
20
50.360271275670002
10
-176.21163993127999
20
49.688519833539999
0
LWPOLYLINE
5
169
100
AcDbEntity
8
0
100
AcDbPolyline
90
12
70
1
43
0.0
10
-159.48856391942999
20
13.590717017170002
10
-158.95823383353999
20
13.060386931280002
10
-159.62998527567004
20
12.38863548916
10
-150.79115051082999
20
3.5498007243290002
10
-150.11939906871001
20
4.2215521664560001
10
-149.58906898282004
20
3.6912220805659999
10
-139.90170608055999
20
13.378584982820001
10
-140.43203616644999
20
13.908915068710002
10
-139.76028472432
20
14.58066651083
10
-148.59911948915999
20
23.419501275670001
10
-149.27087093128
20
22.747749833539999
10
-149.80120101717
20
23.278079919430002
0
LWPOLYLINE
5
170
100
AcDbEntity
8
0
100
AcDbPolyline
90
12
70
1
43
0.0
10
-172.42861883354004
20
26.530771931280004
10
-173.10037027567003
20
25.859020489160002
10
-164.26153551083002
20
17.020185724320001
10
-163.58978406871
20
17.69193716645
10
-163.05945398282003
20
17.16160708056
10
-153.37209108056001
20
26.848969982820002
10
-153.90242116645001
20
27.379300068710002
10
-153.23066972431999
20
28.05105151083
10
-162.06950448916001
20
36.889886275670001
10
-162.74125593128002
20
36.218134833539999
10
-163.27158601716999
20
36.748464919429999
10
-172.95894891942999
20
27.061102017170001
0
LWPOLYLINE
5
171
100
AcDbEntity
8
0
100
AcDbPolyline
90
12
70
1
43
0.0
10
-141.37673072432
20
43.137881510829999
10
-150.21556548916004
20
51.976716275670007
10
-150.88731693128
20
51.304964833540005
10
-151.41764701717
20
51.835294919429998
10
-161.10500991942999
20
42.14793201717
10
-160.57467983353999
20
41.617601931279999
10
-161.24643127567001
20
40.945850489160009
10
-152.40759651082999
20
32.10701572432
10
-151.73584506871003
20
32.778767166450002
10
-151.20551498282001
20
32.248437080560002
10
-141.51815208056001
20
41.935799982820001
10
-142.04848216644999
20
42.466130068710008
0
LWPOLYLINE
5
172
100
AcDbEntity
8
0
100
AcDbPolyline
90
12
70
1
43
0.0
10
-137.41693393128
20
37.834580833540002
10
-137.94726401717
20
38.364910919430002
10
-147.63462691942999
20
28.67754801717
10
-147.10429683353999
20
28.147217931280004
10
-147.77604827567001
20
27.475466489159999
10
-138.93721351082999
20
18.636631724320001
10
-138.26546206871001
20
19.30838316645
10
-137.73513198282001
20
18.778053080559999
10
-128.04776908055999
20
28.465415982820002
10
-128.57809916644999
20
28.995746068710005
10
-127.90634772432
20
29.667497510830003
10
-136.74518248915999
20
38.506332275670005
0
LWPOLYLINE
5
173
100
AcDbEntity
8
0
100
AcDbPolyline
90
12
70
1
43
0.0
10
-124.79507806871
20
5.8379991664560009
10
-124.26474798282001
20
5.3076690805659998
10
-114.57738508056002
20
14.995031982820002
10
-115.10771516645001
20
15.525362068710002
10
-114.43596372432
20
16.19711351083
10
-123.27479848916001
20
25.035948275669998
10
-123.94654993128
20
24.364196833539999
10
-124.47688001717
20
24.894526919430003
10
-134.16424291943
20
15.207164017170001
10
-133.63391283353999
20
14.676833931280001
10
-134.30566427567001
20
14.005082489160001
10
-125.46682951083
20
5.1662477243289997
0
LWPOLYLINE
5
174
100
AcDbEntity
8
0
100
AcDbPolyline
90
12
70
1
43
0.0
10
-145.00065306870999
20
-27.837961833544004
10
-144.47032298281999
20
-28.368291919434
10
-134.78296008056
20
-18.680929017177998
10
-135.31329016645
20
-18.150598931288002
10
-134.64153872432001
20
-17.478847489161002
10
-143.48037348916
20
-8.6400127243290008
10
-144.15212493128001
20
-9.3117641664560011
10
-144.68245501717001
20
-8.7814340805659992
10
-154.36981791943001
20
-18.468796982821999
10
-153.83948783354001
20
-18.999127068711999
10
-154.51123927566999
20
-19.670878510839
10
-145.67240451083001
20
-28.509713275671
0
LWPOLYLINE
5
175
100
AcDbEntity
8
0
100
AcDbPolyline
90
12
70
1
43
0.0
10
-157.62250893128001
20
4.1586198335439999
10
-158.15283901717004
20
4.6889499194340001
10
-167.84020191943
20
-4.9984129828219999
10
-167.30987183354
20
-5.5287430687120001
10
-167.98162327566999
20
-6.2004945108390004
10
-159.14278851083
20
-15.039329275671001
10
-158.47103706870999
20
-14.367577833544001
10
-157.94070698281999
20
-14.897907919433999
10
-148.25334408056
20
-5.2105450171780001
10
-148.78367416645
20
-4.6802149312880008
10
-148.11192272432004
20
-4.0084634891609996
10
-156.95075748916
20
4.8303712756710002
0
LWPOLYLINE
5
176
100
AcDbEntity
8
0
100
AcDbPolyline
90
12
70
1
43
0.0
10
-136.64901506871001
20
-9.2488318335439992
10
-136.11868498282001
20
-9.7791619194339994
10
-126.43132208056001
20
-0.091799017177979989
10
-126.96165216644999
20
0.43853106871200004
10
-126.28990072432002
20
1.1102825108390002
10
-135.12873548915999
20
9.949117275671
10
-135.80048693128001
20
9.2773658335439997
10
-136.33081701717001
20
9.8076959194339999
10
-146.01817991943
20
0.12033301717800003
10
-145.48784983354
20
-0.40999706871199998
10
-146.15960127567001
20
-1.0817485108390001
10
-137.32076651083
20
-9.9205832756709995
0
LWPOLYLINE
5
177
100
AcDbEntity
8
0
100
AcDbPolyline
90
12
70
1
43
0.0
10
-173.10036927567
20
-28.022516510839001
10
-164.26153451082999
20
-36.861351275670998
10
-163.58978306871001
20
-36.189599833544001
10
-163.05945298282001
20
-36.719929919434001
10
-153.37209008056001
20
-27.032567017178
10
-153.90242016645001
20
-26.502236931288003
10
-153.23066872432003
20
-25.830485489160999
10
-162.06950348916001
20
-16.991650724328998
10
-162.74125493128
20
-17.663402166455999
10
-163.27158501717003
20
-17.133072080565999
10
-172.95894791942999
20
-26.820434982822
10
-172.42861783353999
20
-27.350765068712004
0
LWPOLYLINE
5
178
100
AcDbEntity
8
0
100
AcDbPolyline
90
12
70
1
43
0.0
10
-193.30594627567001
20
-34.757707510838998
10
-184.46711151083002
20
-43.596542275670998
10
-183.79536006871004
20
-42.924790833544002
10
-183.26502998282001
20
-43.455120919434009
10
-173.57766708056002
20
-33.767758017177997
10
-174.10799716644999
20
-33.237427931288003
10
-173.43624572432003
20
-32.565676489161
10
-182.27508048916002
20
-23.726841724328999
10
-182.94683193128003
20
-24.398593166456003
10
-183.47716201717003
20
-23.868263080565999
10
-193.16452491942999
20
-33.555625982822001
10
-192.63419483353999
20
-34.085956068712008
0
LWPOLYLINE
5
179
100
AcDbEntity
8
0
100
AcDbPolyline
90
12
70
1
43
0.0
10
-206.10457883354002
20
-20.615572068712002
10
-206.77633027567001
20
-21.287323510839002
10
-197.93749551082999
20
-30.126158275670999
10
-197.26574406871003
20
-29.454406833544002
10
-196.73541398282001
20
-29.984736919433999
10
-187.04805108056001
20
-20.297374017178001
10
-187.57838116645001
20
-19.767043931288001
10
-186.90662972432
20
-19.095292489161004
10
-195.74546448916004
20
-10.256457724329
10
-196.41721593128
20
-10.928209166456
10
-196.94754601717
20
-10.397879080566
10
-206.63490891942999
20
-20.085241982822005
0
LWPOLYLINE
5
180
100
AcDbEntity
8
0
100
AcDbPolyline
90
12
70
1
43
0.0
10
-176.74197101716999
20
-3.6626880805660003
10
-186.42933391943001
20
-13.350050982821999
10
-185.89900383354004
20
-13.880381068712
10
-186.57075527567
20
-14.552132510839
10
-177.73192051083001
20
-23.390967275670999
10
-177.06016906871
20
-22.719215833543998
10
-176.52983898282
20
-23.249545919433999
10
-166.84247608056
20
-13.562183017178002
10
-167.37280616645
20
-13.031852931288002
10
-166.70105472431999
20
-12.360101489161002
10
-175.53988948916
20
-3.5212667243290001
10
-176.21164093127999
20
-4.1930181664559996
0
LWPOLYLINE
5
181
100
AcDbEntity
8
0
100
AcDbPolyline
90
12
70
1
43
0.0
10
-190.21235501717001
20
9.8076959194339999
10
-199.89971791943003
20
0.12033301717800003
10
-199.36938783354003
20
-0.40999706871199998
10
-200.04113927567002
20
-1.0817485108390001
10
-191.20230451083
20
-9.9205832756709995
10
-190.53055306870999
20
-9.2488318335439992
10
-190.00022298282002
20
-9.7791619194339994
10
-180.31286008056
20
-0.091799017177979989
10
-180.84319016645
20
0.43853106871200004
10
-180.17143872432001
20
1.1102825108390002
10
-189.01027348916
20
9.949117275671
10
-189.68202493128001
20
9.2773658335439997
0
LWPOLYLINE
5
182
100
AcDbEntity
8
0
100
AcDbPolyline
90
12
70
1
43
0.0
10
-180.78025783354002
20
7.941640931288001
10
-181.45200927567001
20
7.2698894891609998
10
-172.61317451082999
20
-1.5689452756710001
10
-171.94142306871001
20
-0.89719383354399995
10
-171.41109298282001
20
-1.4275239194339995
10
-161.72373008055999
20
8.259838982822
10
-162.25406016644999
20
8.7901690687120002
10
-161.58230872432
20
9.4619205108390005
10
-170.42114348915999
20
18.300755275669999
10
-171.09289493128
20
17.629003833540004
10
-171.62322501717
20
18.159333919430001
10
-181.31058791943002
20
8.4719710171779994
0
LWPOLYLINE
5
183
100
AcDbEntity
8
0
100
AcDbPolyline
90
12
70
1
43
0.0
10
-57.082403833544006
20
-26.534819931287998
10
-57.612733919434007
20
-27.065150017178002
10
-47.925371017178009
20
-36.752512919433997
10
-47.395040931288001
20
-36.222182833543997
10
-46.723289489160997
20
-36.893934275671
10
-37.884454724328997
20
-28.055099510839003
10
-38.556206166456008
20
-27.383348068712003
10
-38.025876080566
20
-26.853017982822003
10
-47.713238982822006
20
-17.165655080566001
10
-48.243569068712006
20
-17.695985166456005
10
-48.915320510839003
20
-17.024233724329001
10
-57.75415527567101
20
-25.863068489161005
0
LWPOLYLINE
5
184
100
AcDbEntity
8
0
100
AcDbPolyline
90
12
70
1
43
0.0
10
-43.144621080565997
20
-5.0309949828219995
10
-52.83198398282201
20
4.6563679194340004
10
-53.362314068712003
20
4.1260378335440002
10
-54.034065510839007
20
4.7977892756709997
10
-62.872900275671
20
-4.0410454891610001
10
-62.201148833544011
20
-4.7127969312879996
10
-62.731478919433997
20
-5.2431270171779998
10
-53.044116017177998
20
-14.930489919434002
10
-52.513785931287998
20
-14.400159833544002
10
-51.842034489161009
20
-15.071911275671003
10
-43.003199724329008
20
-6.2330765108390009
10
-43.674951166455998
20
-5.5613250687119997
0
LWPOLYLINE
5
185
100
AcDbEntity
8
0
100
AcDbPolyline
90
12
70
1
43
0.0
10
-30.204568166456003
20
7.9090589312880013
10
-29.674238080565999
20
8.4393890171780015
10
-39.361600982821997
20
18.126751919429999
10
-39.891931068711997
20
17.596421833539999
10
-40.563682510839001
20
18.268173275670001
10
-49.402517275671009
20
9.4293385108390009
10
-48.730765833544005
20
8.7575870687120005
10
-49.261095919434005
20
8.2272569828220004
10
-39.573733017178
20
-1.4601059194340003
10
-39.043402931288
20
-0.92977583354399995
10
-38.371651489161003
20
-1.6015272756709997
10
-29.532816724329003
20
7.2373074891610001
0
LWPOLYLINE
5
186
100
AcDbEntity
8
0
100
AcDbPolyline
90
12
70
1
43
0.0
10
-19.782521489160999
20
-9.9531652756709992
10
-10.943686724329
20
-1.114330510839
10
-11.615438166456
20
-0.44257906871200003
10
-11.085108080566
20
0.087751017177980506
10
-20.772470982822
20
9.7751139194340002
10
-21.302801068712004
20
9.244783833544
10
-21.974552510839001
20
9.9165352756710021
10
-30.813387275671005
20
1.0777005108390001
10
-30.141635833544001
20
0.40594906871199998
10
-30.671965919434001
20
-0.12438101717800021
10
-20.984603017177999
20
-9.8117439194340008
10
-20.454272931287999
20
-9.2814138335440006
0
LWPOLYLINE
5
187
100
AcDbEntity
8
0
100
AcDbPolyline
90
12
70
1
43
0.0
10
-28.709743510839001
20
-23.759425724328999
10
-37.548578275670998
20
-32.598260489160999
10
-36.876826833544001
20
-33.270011931288003
10
-37.407156919434001
20
-33.800342017177996
10
-27.719794017178003
20
-43.487704919434009
10
-27.189463931288
20
-42.957374833544002
10
-26.517712489161003
20
-43.629126275670998
10
-17.678877724328999
20
-34.790291510838998
10
-18.350629166456002
20
-34.118540068712008
10
-17.820299080565999
20
-33.588209982822001
10
-27.507661982822
20
-23.900847080565999
10
-28.037992068712004
20
-24.431177166456003
0
LWPOLYLINE
5
188
100
AcDbEntity
8
0
100
AcDbPolyline
90
12
70
1
43
0.0
10
-35.444936510839
20
-3.5538477243290001
10
-44.283771275671
20
-12.392682489161002
10
-43.612019833543997
20
-13.064433931288002
10
-44.142349919433997
20
-13.594764017178003
10
-34.454987017177999
20
-23.282126919433999
10
-33.924656931287998
20
-22.751796833543999
10
-33.252905489161002
20
-23.423548275670999
10
-24.414070724329004
20
-14.584713510839
10
-25.085822166456001
20
-13.912962068712
10
-24.555492080566005
20
-13.382631982822
10
-34.24285498282201
20
-3.6952690805659998
10
-34.773185068712003
20
-4.225599166456
0
LWPOLYLINE
5
189
100
AcDbEntity
8
0
100
AcDbPolyline
90
12
70
1
43
0.0
10
-24.078194275670999
20
-19.127876489161004
10
-23.406442833544002
20
-19.799627931288001
10
-23.936772919433999
20
-20.329958017178001
10
-14.249410017178
20
-30.017320919433999
10
-13.719079931288
20
-29.486990833544002
10
-13.047328489161
20
-30.158742275670999
10
-4.2084937243290002
20
-21.319907510839002
10
-4.8802451664559996
20
-20.648156068712002
10
-4.3499150805660003
20
-20.117825982822005
10
-14.037277982822001
20
-10.430463080566
10
-14.567608068712001
20
-10.960793166456
10
-15.239359510839002
20
-10.289041724329
0
LWPOLYLINE
5
190
100
AcDbEntity
8
0
100
AcDbPolyline
90
12
70
1
43
0.0
10
-9.9360578335440017
20
-6.3292429312880003
10
-10.466387919434002
20
-6.8595730171780005
10
-0.77902501717799999
20
-16.546935919433999
10
-0.24869493128800005
20
-16.016605833543998
10
0.42305651083899942
20
-16.688357275670999
10
9.2618912756709992
20
-7.8495225108389999
10
8.5901398335440007
20
-7.1777710687120013
10
9.1204699194340009
20
-6.6474409828219994
10
-0.56689298282199996
20
3.0399219194340006
10
-1.0972230687119999
20
2.509591833544
10
-1.7689745108389998
20
3.1813432756710003
10
-10.607809275671
20
-5.6574914891610009
0
LWPOLYLINE
5
191
100
AcDbEntity
8
0
100
AcDbPolyline
90
12
70
1
43
0.0
10
-24.555492080566005
20
40.498903017170001
10
-34.24285498282201
20
50.186265919430006
10
-34.773185068712003
20
49.655935833539999
10
-35.444936510839
20
50.327687275670002
10
-44.283771275671
20
41.488852510830007
10
-43.612019833543997
20
40.817101068710002
10
-44.142349919433997
20
40.286770982820002
10
-34.454987017177999
20
30.59940808056
10
-33.924656931287998
20
31.129738166450004
10
-33.252905489161002
20
30.457986724320001
10
-24.414070724329004
20
39.296821489160003
10
-25.085822166456001
20
39.968572931280008
0
LWPOLYLINE
5
192
100
AcDbEntity
8
0
100
AcDbPolyline
90
12
70
1
43
0.0
10
-22.735752017178005
20
15.377874080560002
10
-22.205421931288001
20
15.908204166450002
10
-21.533670489161004
20
15.236452724319999
10
-12.694835724329002
20
24.075287489160004
10
-13.366587166456
20
24.747038931279999
10
-12.836257080566
20
25.277369017170003
10
-22.523619982822002
20
34.964731919430001
10
-23.053950068711998
20
34.434401833540001
10
-23.725701510839002
20
35.10615327567001
10
-32.564536275671003
20
26.267318510830002
10
-31.892784833543999
20
25.59556706871
10
-32.423114919433999
20
25.065236982820004
0
LWPOLYLINE
5
193
100
AcDbEntity
8
0
100
AcDbPolyline
90
12
70
1
43
0.0
10
-38.556206166456008
20
26.498188931280001
10
-38.025876080566
20
27.028519017170005
10
-47.713238982822006
20
36.715881919430004
10
-48.243569068712006
20
36.185551833540003
10
-48.915320510839003
20
36.857303275669999
10
-57.75415527567101
20
28.018468510830004
10
-57.082403833544006
20
27.346717068709999
10
-57.612733919434007
20
26.816386982820003
10
-47.925371017178009
20
17.129024080560001
10
-47.395040931288001
20
17.659354166450001
10
-46.723289489160997
20
16.987602724319999
10
-37.884454724328997
20
25.826437489160003
0
LWPOLYLINE
5
194
100
AcDbEntity
8
0
100
AcDbPolyline
90
12
70
1
43
0.0
10
-36.939760166455997
20
55.055404931280009
10
-36.409430080565997
20
55.585735017170002
10
-46.096792982822009
20
65.273097919430001
10
-46.627123068712002
20
64.74276783354
10
-47.298874510838999
20
65.414519275670003
10
-56.137709275671
20
56.575684510830008
10
-55.46595783354401
20
55.903933068710003
10
-55.99628791943401
20
55.373602982820003
10
-46.308925017177998
20
45.686240080559998
10
-45.778594931287998
20
46.216570166449998
10
-45.106843489161001
20
45.544818724320002
10
-36.268008724329007
20
54.383653489160004
0
LWPOLYLINE
5
195
100
AcDbEntity
8
0
100
AcDbPolyline
90
12
70
1
43
0.0
10
-49.879814080566007
20
42.115349017170004
10
-59.567176982822005
20
51.802711919430003
10
-60.097507068712005
20
51.27238183354001
10
-60.769258510839002
20
51.944133275669998
10
-69.608093275670996
20
43.105298510830004
10
-68.936341833544006
20
42.433547068709998
10
-69.46667191943402
20
41.903216982819998
10
-59.779309017178008
20
32.21585408056
10
-59.248978931288008
20
32.74618416645
10
-58.577227489160997
20
32.074432724320005
10
-49.73839272432901
20
40.913267489159999
10
-50.410144166456007
20
41.585018931280004
0
LWPOLYLINE
5
196
100
AcDbEntity
8
0
100
AcDbPolyline
90
12
70
1
43
0.0
10
-87.710027510838998
20
25.003365275670003
10
-96.548862275671013
20
16.164530510830001
10
-95.877110833543995
20
15.49277906871
10
-96.407440919434009
20
14.96244898282
10
-86.720078017177997
20
5.275086080566
10
-86.189747931287997
20
5.8054161664560002
10
-85.517996489161007
20
5.1336647243289999
10
-76.679161724329006
20
13.972499489160002
10
-77.350913166455996
20
14.64425093128
10
-76.820583080565996
20
15.174581017170002
10
-86.507945982822008
20
24.861943919430001
10
-87.038276068711994
20
24.331613833540004
0
LWPOLYLINE
5
197
100
AcDbEntity
8
0
100
AcDbPolyline
90
12
70
1
43
0.0
10
-73.567890068712003
20
37.801998833539997
10
-74.239641510838993
20
38.47375027567
10
-83.078476275670994
20
29.634915510830005
10
-82.406724833544004
20
28.96316406871
10
-82.937054919434004
20
28.432833982820004
10
-73.249692017178006
20
18.745471080560002
10
-72.719361931288006
20
19.275801166450002
10
-72.047610489161002
20
18.604049724319999
10
-63.208775724329001
20
27.442884489160004
10
-63.880527166455998
20
28.114635931279999
10
-63.350197080565998
20
28.644966017170002
10
-73.037559982822003
20
38.332328919429997
0
LWPOLYLINE
5
198
100
AcDbEntity
8
0
100
AcDbPolyline
90
12
70
1
43
0.0
10
-51.496259080565999
20
13.558135017170001
10
-61.183621982821997
20
23.245497919430001
10
-61.713952068711997
20
22.715167833540001
10
-62.385703510839008
20
23.38691927567
10
-71.224538275670994
20
14.548084510830002
10
-70.552786833544005
20
13.87633306871
10
-71.083116919434005
20
13.34600298282
10
-61.395754017178
20
3.6586400805660002
10
-60.865423931288007
20
4.1889701664560004
10
-60.19367248916101
20
3.517218724329001
10
-51.354837724329002
20
12.356053489160001
10
-52.026589166455999
20
13.02780493128
0
LWPOLYLINE
5
199
100
AcDbEntity
8
0
100
AcDbPolyline
90
12
70
1
43
0.0
10
-73.664056489160998
20
-9.9531652756709992
10
-64.825221724328998
20
-1.114330510839
10
-65.496973166456002
20
-0.44257906871200003
10
-64.966643080566001
20
0.087751017177980506
10
-74.654005982822
20
9.7751139194340002
10
-75.184336068712
20
9.244783833544
10
-75.856087510839004
20
9.9165352756710021
10
-84.694922275671004
20
1.0777005108390001
10
-84.023170833544015
20
0.40594906871199998
10
-84.553500919434001
20
-0.12438101717800021
10
-74.866138017178002
20
-9.8117439194340008
10
-74.335807931288002
20
-9.2814138335440006
0
LWPOLYLINE
5
200
100
AcDbEntity
8
0
100
AcDbPolyline
90
12
70
1
43
0.0
10
-75.671532833544006
20
-18.183180931288
10
-76.201862919434006
20
-18.713511017178
10
-66.514500017177994
20
-28.400873919434005
10
-65.984169931287994
20
-27.870543833544001
10
-65.312418489161004
20
-28.542295275671002
10
-56.473583724329011
20
-19.703460510839001
10
-57.145335166456007
20
-19.031709068712001
10
-56.615005080566007
20
-18.501378982822001
10
-66.302367982822005
20
-8.8140160805660006
10
-66.832698068712006
20
-9.3443461664560008
10
-67.504449510838995
20
-8.6725947243290022
10
-76.343284275670996
20
-17.511429489161003
0
LWPOLYLINE
5
201
100
AcDbEntity
8
0
100
AcDbPolyline
90
12
70
1
43
0.0
10
-164.88803301716999
20
65.305678919429994
10
-174.57539591943001
20
55.618316017170002
10
-174.04506583354004
20
55.087985931280002
10
-174.71681727567
20
54.416234489160004
10
-165.87798251083001
20
45.577399724320003
10
-165.20623106871
20
46.249151166449998
10
-164.67590098282
20
45.718821080560005
10
-154.98853808056001
20
55.406183982819996
10
-155.51886816645003
20
55.936514068710004
10
-154.84711672431999
20
56.608265510830009
10
-163.68595148916
20
65.447100275669996
10
-164.35770293127999
20
64.775348833539994
0
CIRCLE
5
202
100
AcDbEntity
8
0
100
AcDbCircle
10
-202.5
20
4.2249999999999996
30
0
40
1.1000000000000001
210
0
220
0
230
1
0
CIRCLE
5
203
100
AcDbEntity
8
0
100
AcDbCircle
10
-132.19999999999999
20
-13.175000000000001
30
0
40
1.1000000000000001
210
0
220
0
230
1
0
CIRCLE
5
204
100
AcDbEntity
8
0
100
AcDbCircle
10
-170.10000000000002
20
-37.575000000000003
30
0
40
1.1000000000000001
210
0
220
0
230
1
0
CIRCLE
5
205
100
AcDbEntity
8
0
100
AcDbCircle
10
-40.850000000000001
20
-37.575000000000003
30
0
40
1.1000000000000001
210
0
220
0
230
1
0
CIRCLE
5
206
100
AcDbEntity
8
0
100
AcDbCircle
10
-8.4499999999999993
20
4.2249999999999996
30
0
40
1.1000000000000001
210
0
220
0
230
1
0
CIRCLE
5
207
100
AcDbEntity
8
0
100
AcDbCircle
10
-50.850000000000009
20
66.325000000000003
30
0
40
1.1000000000000001
210
0
220
0
230
1
0
CIRCLE
5
208
100
AcDbEntity
8
0
100
AcDbCircle
10
-116.00000000000001
20
27.625
30
0
40
1.1000000000000001
210
0
220
0
230
1
0
CIRCLE
5
209
100
AcDbEntity
8
0
100
AcDbCircle
10
-94.950000000000017
20
27.625
30
0
40
1.1000000000000001
210
0
220
0
230
1
0
CIRCLE
5
210
100
AcDbEntity
8
0
100
AcDbCircle
10
-78.75
20
-13.175000000000001
30
0
40
1.1000000000000001
210
0
220
0
230
1
0
CIRCLE
5
211
100
AcDbEntity
8
0
100
AcDbCircle
10
-160.10000000000002
20
66.325000000000003
30
0
40
1.1000000000000001
210
0
220
0
230
1
0
ENDSEC
0
SECTION
2
OBJECTS
0
DICTIONARY
5
C
100
AcDbDictionary
3
ACAD_GROUP
350
D
3
ACAD_MLINESTYLE
350
17
0
DICTIONARY
5
D
100
AcDbDictionary
0
DICTIONARY
5
1A
330
C
100
AcDbDictionary
0
DICTIONARY
5
17
100
AcDbDictionary
0
ENDSEC
0
EOF
